<svg width="11" height="20" viewBox="0 0 11 20" fill="none" xmlns="http://www.w3.org/2000/svg">
<path fill-rule="evenodd" clip-rule="evenodd" d="M8.76957 3.3735C9.42856 3.3494 10.0622 3.3735 10.7212 3.3735C10.7972 3.3735 10.8733 3.3735 11 3.3735V0.144582C10.6452 0.120485 10.2903 0.0722903 9.91016 0.0481939C9.25117 0.0240975 8.56681 0 7.90783 0C6.894 0.0240964 5.93088 0.265066 5.06913 0.843379C4.10599 1.51808 3.5737 2.43374 3.37094 3.54217C3.2949 4 3.26958 4.45783 3.24424 4.91567C3.21889 5.63856 3.24424 6.36144 3.24424 7.08434V7.3494H0V10.9398H3.21887V20H7.17278V10.9639H10.3917C10.5437 9.75904 10.7212 8.57831 10.8732 7.3494C10.6198 7.3494 10.3917 7.3494 10.1383 7.3494C9.22581 7.3494 7.12212 7.3494 7.12212 7.3494C7.12212 7.3494 7.12207 5.56627 7.14741 4.79519C7.22345 3.71085 7.88247 3.39759 8.76957 3.3735Z" fill="#1E4FAD"/>
</svg>
