<svg width="17" height="13" viewBox="0 0 17 13" fill="none" xmlns="http://www.w3.org/2000/svg">
<path d="M7.28672 10.1087L7.3909 10.1767L5.34105 12.1281C4.75497 12.6886 3.95774 13.0025 3.12704 13C2.29746 12.9984 1.5024 12.6838 0.916324 12.1249C0.330128 11.5661 0.000621125 10.8088 8.76942e-07 10.0191C-0.000619371 9.22931 0.327802 8.4716 0.913161 7.91203L5.52935 3.51676C6.32209 2.77151 7.47101 2.4833 8.54664 2.75997C9.62215 3.03664 10.4623 3.83645 10.7529 4.86035C11.0435 5.88436 10.7408 6.97812 9.95795 7.73284L9.1137 8.53634L9.06101 8.52839L9.06113 8.52827C8.7991 8.48929 8.55755 8.36992 8.37315 8.18851C8.18865 8.0071 8.07138 7.77334 8.03905 7.52271L8.03288 7.47427L8.85991 6.6868H8.85979C9.25858 6.30727 9.41426 5.7539 9.26829 5.23539C9.12231 4.71677 8.69685 4.31185 8.15221 4.17288C7.60745 4.03391 7.02631 4.18222 6.62752 4.56189L2.01009 8.95774C1.61614 9.33834 1.46399 9.88926 1.61055 10.405C1.75714 10.9208 2.18028 11.3236 2.72204 11.463C3.26367 11.6026 3.84248 11.4579 4.24214 11.0828L6.29708 9.12694L6.36844 9.22739C6.61375 9.57351 6.9252 9.87256 7.28668 10.1088L7.28672 10.1087ZM16.0865 0.87176C15.4987 0.313458 14.7024 0 13.8721 0C13.0419 0 12.2456 0.313458 11.6579 0.87176L9.60893 2.82301L9.71299 2.89106C10.0745 3.12748 10.3861 3.42654 10.6312 3.77274L10.7023 3.87319L12.7568 1.91733C13.1555 1.53768 13.7367 1.38923 14.2815 1.52808C14.8263 1.66705 15.2518 2.07209 15.3979 2.5906C15.544 3.10922 15.3884 3.66259 14.9896 4.04236L10.3721 8.43792C9.97247 8.81296 9.39366 8.95769 8.8519 8.81816C8.31027 8.67861 7.88714 8.27565 7.74066 7.76001C7.59408 7.24426 7.74624 6.69322 8.1402 6.31274L8.96711 5.52539L8.96093 5.47695L8.96081 5.47707C8.9281 5.22669 8.81084 4.99314 8.62672 4.81174C8.44258 4.63021 8.20163 4.51062 7.93985 4.47071L7.88679 4.46275L7.04171 5.26728C6.45452 5.82641 6.12455 6.58468 6.12455 7.37537C6.12455 8.16605 6.45455 8.92435 7.04183 9.48345C7.62911 10.0426 8.42563 10.3566 9.25618 10.3566C10.0867 10.3566 10.8832 10.0424 11.4705 9.48333L16.0867 5.08807C16.6717 4.52779 17 3.76996 17 2.97999C17 2.18998 16.6717 1.43215 16.0867 0.871901L16.0865 0.87176Z" fill="#F59F0D"/>
</svg>
