<svg width="20" height="15" viewBox="0 0 20 15" fill="none" xmlns="http://www.w3.org/2000/svg">
<path d="M0.026156 5.48721L0.0523585 10.8907C0.0569873 11.8453 0.440623 12.7589 1.11887 13.4306C1.79712 14.1023 2.71442 14.4771 3.66897 14.4725L15.6662 14.4143C16.6207 14.4096 17.5344 14.026 18.2061 13.3478C18.8778 12.6695 19.2525 11.7522 19.2479 10.7977L19.2217 5.39412L10.1357 9.53652C9.98135 9.6068 9.81388 9.64356 9.6443 9.64438C9.47473 9.6452 9.30691 9.61007 9.15191 9.54129L0.026156 5.48721ZM0.102369 2.89538L9.63211 7.12987L19.1203 2.80316C18.9358 2.00808 18.4866 1.29932 17.8462 0.79318C17.2059 0.287037 16.4126 0.0135646 15.5964 0.0176327L3.59916 0.0758089C2.78296 0.0796565 1.99231 0.36081 1.35693 0.873139C0.721541 1.38547 0.279161 2.09855 0.102369 2.89538V2.89538Z" fill="#FF3838"/>
</svg>
