<svg width="19" height="16" viewBox="0 0 19 16" fill="none" xmlns="http://www.w3.org/2000/svg">
<path d="M18.8889 1.86309C18.2823 2.13669 17.6161 2.30323 16.9737 2.4103C17.283 2.36271 17.735 1.80361 17.9135 1.57759C18.1871 1.23261 18.425 0.840039 18.5559 0.411787C18.5678 0.376099 18.5797 0.340418 18.5559 0.316626C18.5083 0.30473 18.4845 0.304724 18.4488 0.328516C17.7231 0.72108 16.9737 0.99469 16.1767 1.19692C16.1053 1.20882 16.0577 1.19692 16.022 1.16123C15.9507 1.08986 15.8912 1.01848 15.8198 0.958997C15.4867 0.673495 15.1298 0.447474 14.7135 0.280931C14.1782 0.0668049 13.5953 -0.0283572 13.0243 0.00733046C12.4652 0.0430182 11.9179 0.197662 11.4183 0.459371C10.9187 0.721081 10.4785 1.07796 10.1217 1.51811C9.75289 1.97015 9.49118 2.50547 9.34843 3.06458C9.21758 3.61179 9.22947 4.1471 9.31274 4.69431C9.32464 4.78947 9.31274 4.80137 9.22947 4.78948C6.10085 4.32554 3.51944 3.20733 1.41387 0.816252C1.3187 0.709189 1.27112 0.709182 1.19974 0.828141C0.283759 2.20807 0.723907 4.4207 1.87781 5.51513C2.03246 5.65788 2.1871 5.80063 2.35365 5.94338C2.29417 5.95528 1.53282 5.872 0.842863 5.51513C0.747695 5.45565 0.700118 5.49133 0.700118 5.5984C0.688222 5.75304 0.700114 5.88391 0.723906 6.05045C0.902344 7.44227 1.86591 8.73891 3.19825 9.25044C3.3529 9.32181 3.53134 9.3694 3.69788 9.40509C3.40048 9.47647 3.0793 9.52404 2.22279 9.45267C2.11573 9.42887 2.06814 9.48835 2.11572 9.58352C2.77 11.356 4.17371 11.8794 5.22055 12.1887C5.3633 12.2125 5.50605 12.2125 5.64881 12.2482C5.63691 12.2601 5.63691 12.2601 5.62502 12.272C5.28004 12.8073 4.06666 13.1999 3.50755 13.4021C2.4845 13.759 1.36628 13.9255 0.283754 13.8185C0.105316 13.7947 0.0696356 13.7947 0.022052 13.8185C-0.0255316 13.8423 0.0101481 13.8898 0.0696276 13.9374C0.283754 14.0802 0.509782 14.211 0.735804 14.33C1.42577 14.6988 2.13952 14.9843 2.88896 15.1865C6.76702 16.2571 11.1209 15.472 14.0354 12.5813C16.3194 10.3092 17.1164 7.18056 17.1164 4.05194C17.1164 3.93298 17.2592 3.86159 17.3425 3.80212C17.9373 3.35007 18.4131 2.82666 18.8533 2.21997C18.9484 2.08911 18.9484 1.97015 18.9484 1.92257C18.9484 1.91067 18.9484 1.91067 18.9484 1.91067C18.9722 1.8155 18.9722 1.8274 18.8889 1.86309Z" fill="#33A5FF"/>
</svg>
