<svg width="19" height="20" viewBox="0 0 19 20" fill="none" xmlns="http://www.w3.org/2000/svg">
<path fill-rule="evenodd" clip-rule="evenodd" d="M18.8406 7.71712C17.9275 2.70256 12.9369 -1.03835 7.38567 0.259351C1.27367 1.69323 -1.73026 8.41402 1.17754 13.9653C1.25765 14.1175 1.27366 14.3498 1.23361 14.518C0.937221 15.6635 0.616803 16.809 0.296384 17.9545C0.200258 18.315 0.104136 18.6755 0 19.084C0.50466 18.9879 2.17084 18.5152 4.67812 17.8824C4.85435 17.8424 5.09466 17.8584 5.26288 17.9465C7.14534 18.8597 9.11593 19.1641 11.1746 18.8116C16.3734 17.9064 19.7939 12.94 18.8406 7.71712ZM10.7821 17.2896C8.91566 17.594 7.16937 17.2416 5.53523 16.2963C5.31895 16.1762 5.13471 16.1361 4.88639 16.2002C4.02927 16.4405 3.15613 16.6568 2.21089 16.9051C2.41115 16.1521 2.56335 15.4552 2.79565 14.7904C2.99591 14.2376 2.91581 13.8051 2.61942 13.2844C-0.0240402 8.59026 2.79565 2.65449 8.11461 1.67721C12.5124 0.868151 16.6698 3.84805 17.3587 8.28586C18.0236 12.5795 15.0757 16.6007 10.7821 17.2896Z" fill="#2FBF41"/>
<path fill-rule="evenodd" clip-rule="evenodd" d="M12.2465 10.7128C11.846 10.5205 11.7739 10.7929 11.0129 11.7141C10.8767 11.8743 10.7245 11.9304 10.5162 11.8503C9.09036 11.2895 8.00894 10.3443 7.23193 9.03058C7.11177 8.83031 7.14381 8.67009 7.29601 8.49386C7.77664 7.94114 8.00094 7.62874 7.88079 7.30031C7.64848 6.67549 7.38413 6.05869 7.11177 5.44989C7.06371 5.33774 6.95156 5.17753 6.84743 5.16151C6.43088 5.08942 5.98229 5.00931 5.62983 5.33774C4.58046 6.31502 4.47633 7.73287 5.19727 8.9745C7.21591 12.4751 10.1558 13.941 12.0062 14.0051C12.9034 14.0692 14.3773 13.4924 14.3132 11.8743C14.3132 11.666 14.161 11.626 12.2465 10.7128Z" fill="#2FBF41"/>
</svg>
