<svg width="108" height="112" viewBox="0 0 108 112" fill="none" xmlns="http://www.w3.org/2000/svg">
<g filter="url(#filter0_dd_414_66)">
<rect x="4" y="6" width="100" height="100" fill="transperant"/>
</g>
<path d="M24 28.0004H30.1628V84.178H24V28.0004Z" fill="#FFC500"/>
<path d="M71.6592 72.1652L77.8147 75.0778V66.4381L71.6592 69.3498V72.1652Z" fill="#FFC500"/>
<path d="M68.7998 69.6758H69.8874V71.8404H68.7998V69.6758Z" fill="#FFC500"/>
<path d="M74.4512 60.723C68.9173 60.723 64.416 65.2244 64.416 70.7582C64.416 76.292 68.9173 80.7933 74.4512 80.7933C79.985 80.7933 84.4863 76.292 84.4863 70.7582C84.4863 65.2249 79.985 60.723 74.4512 60.723ZM79.5893 73.79V76.4789C79.5893 76.7829 79.4334 77.0651 79.1774 77.2281C79.0327 77.32 78.8685 77.3656 78.7032 77.3656C78.574 77.3656 78.4444 77.3372 78.3241 77.281L70.575 73.6141H67.9144C67.424 73.6141 67.0277 73.2178 67.0277 72.7274V68.7894C67.0277 68.2996 67.424 67.9027 67.9144 67.9027H70.575L78.3241 64.2368C78.5985 64.1077 78.9208 64.126 79.178 64.2897C79.434 64.4522 79.5898 64.735 79.5898 65.0389V67.7267C80.9068 68.113 81.8764 69.3181 81.8764 70.7585C81.8759 72.198 80.9057 73.403 79.5893 73.7897L79.5893 73.79Z" fill="#FFC500"/>
<path d="M79.5889 71.8331C79.9 71.576 80.1021 71.1925 80.1021 70.7583C80.1021 70.3242 79.8995 69.9407 79.5889 69.6835V71.8331Z" fill="#FFC500"/>
<path d="M42.0996 53.9518H61.9089V40.945H42.0996V53.9518ZM47.4297 43.8638H56.5792C57.0691 43.8638 57.4659 44.2607 57.4659 44.7505C57.4659 45.2408 57.0696 45.6372 56.5792 45.6372H47.4297C46.9399 45.6372 46.543 45.2409 46.543 44.7505C46.543 44.2607 46.9399 43.8638 47.4297 43.8638ZM47.4297 49.2595H56.5792C57.0691 49.2595 57.4659 49.6558 57.4659 50.1462C57.4659 50.636 57.0696 51.0329 56.5792 51.0329H47.4297C46.9399 51.0329 46.543 50.6366 46.543 50.1462C46.543 49.6564 46.9399 49.2595 47.4297 49.2595Z" fill="#FFC500"/>
<path d="M71.9371 82.2906C66.6298 81.1351 62.6412 76.4061 62.6412 70.7576C62.6412 64.5458 67.4658 59.4506 73.5629 58.9942V33.9441C73.5629 30.6667 70.8962 28 67.6189 28H31.9346V84.1775H67.6189C69.2664 84.1775 70.8232 83.4729 71.9371 82.2906V82.2906ZM40.3252 54.8381V40.0574C40.3252 39.5676 40.7215 39.1707 41.2119 39.1707H62.7938C63.2836 39.1707 63.6805 39.5676 63.6805 40.0574V54.8367C63.6805 55.3265 63.2842 55.7234 62.7938 55.7234L41.2105 55.7239C40.7207 55.7239 40.3243 55.3271 40.3243 54.8372L40.3252 54.8381Z" fill="#FFC500"/>
<defs>
<filter id="filter0_dd_414_66" x="0" y="0" width="108" height="112" filterUnits="userSpaceOnUse" color-interpolation-filters="sRGB">
<feFlood flood-opacity="0" result="BackgroundImageFix"/>
<feColorMatrix in="SourceAlpha" type="matrix" values="0 0 0 0 0 0 0 0 0 0 0 0 0 0 0 0 0 0 127 0" result="hardAlpha"/>
<feOffset dy="2"/>
<feGaussianBlur stdDeviation="2"/>
<feComposite in2="hardAlpha" operator="out"/>
<feColorMatrix type="matrix" values="0 0 0 0 0.764706 0 0 0 0 0.764706 0 0 0 0 0.764706 0 0 0 0.25 0"/>
<feBlend mode="normal" in2="BackgroundImageFix" result="effect1_dropShadow_414_66"/>
<feColorMatrix in="SourceAlpha" type="matrix" values="0 0 0 0 0 0 0 0 0 0 0 0 0 0 0 0 0 0 127 0" result="hardAlpha"/>
<feOffset dy="-2"/>
<feGaussianBlur stdDeviation="2"/>
<feComposite in2="hardAlpha" operator="out"/>
<feColorMatrix type="matrix" values="0 0 0 0 0.764706 0 0 0 0 0.764706 0 0 0 0 0.764706 0 0 0 0.25 0"/>
<feBlend mode="normal" in2="effect1_dropShadow_414_66" result="effect2_dropShadow_414_66"/>
<feBlend mode="normal" in="SourceGraphic" in2="effect2_dropShadow_414_66" result="shape"/>
</filter>
</defs>
</svg>
