<svg width="108" height="112" viewBox="0 0 108 112" fill="none" xmlns="http://www.w3.org/2000/svg">
<g filter="url(#filter0_dd_414_42)">
<rect x="4" y="6" width="100" height="100" fill="transperant"/>
</g>
<path d="M83.4297 57.702C83.6458 57.8095 83.689 58.0374 83.6977 58.1242L83.6999 58.1588L83.4597 71.8647C83.4597 77.3319 78.6711 81.7903 72.6413 82.0636L72.054 82.0769H35.916C29.8098 82.0769 24.8303 77.7894 24.5251 72.3905L24.5103 71.8647L24.3002 58.1588C24.3002 58.1588 24.3002 57.8363 24.5703 57.702C24.8104 57.5676 25.1106 57.7288 25.1406 57.7557C31.2036 61.3569 38.4972 63.7487 46.1511 64.743C47.2316 64.8774 48.3122 64.2593 48.6123 63.2918C49.2314 61.2259 51.1431 59.8213 53.4818 59.6538L53.955 59.6369H54.045C56.5963 59.6369 58.7274 61.0881 59.3877 63.2918C59.6878 64.2593 60.7684 64.8774 61.8489 64.743C69.5028 63.7487 76.7964 61.3569 82.8594 57.7557C82.8594 57.7557 82.9195 57.7288 82.9795 57.702C83.0996 57.6482 83.2796 57.6214 83.4297 57.702ZM53.985 63.4799C52.8569 63.4799 51.9054 64.2477 51.7547 65.2244L51.7339 65.4955V68.9623C51.7339 70.091 52.7544 70.9779 53.985 70.9779C55.1406 70.9779 56.0692 70.2327 56.2159 69.2391L56.2361 68.9623V65.4955C56.2361 64.3937 55.2456 63.4799 53.985 63.4799ZM57.8569 29C62.3592 29 66.051 32.0368 66.6213 35.9336H72.5643C78.8674 35.9336 84 40.5291 84 46.1726C84 46.1726 83.8199 48.5618 83.7599 51.8888C83.7539 52.1522 83.6098 52.4102 83.3727 52.566C81.929 53.5093 80.6083 54.2887 80.4882 54.3424C75.5058 57.2986 69.7159 59.3787 63.5478 60.4133C63.1456 60.4832 62.7494 60.2978 62.5453 59.9806C60.8164 57.3308 57.5868 55.6055 53.985 55.6055C50.4072 55.6055 47.1476 57.312 45.3677 59.9645C45.1606 60.2763 44.7704 60.4563 44.3712 60.3891C38.2541 59.3518 32.4642 57.2744 27.5118 54.3693L24.6303 52.5956C24.3902 52.4612 24.2401 52.2194 24.2401 51.9506C24.1501 50.58 24 46.1726 24 46.1726C24 40.5291 29.1326 35.9336 35.4357 35.9336H41.3487C41.919 32.0368 45.6108 29 50.1131 29H57.8569ZM57.8569 33.0311H50.1131C48.1021 33.0311 46.3912 34.2674 45.911 35.9336H62.059C61.5788 34.2674 59.8679 33.0311 57.8569 33.0311Z" fill="#FFC500"/>
<defs>
<filter id="filter0_dd_414_42" x="0" y="0" width="108" height="112" filterUnits="userSpaceOnUse" color-interpolation-filters="sRGB">
<feFlood flood-opacity="0" result="BackgroundImageFix"/>
<feColorMatrix in="SourceAlpha" type="matrix" values="0 0 0 0 0 0 0 0 0 0 0 0 0 0 0 0 0 0 127 0" result="hardAlpha"/>
<feOffset dy="2"/>
<feGaussianBlur stdDeviation="2"/>
<feComposite in2="hardAlpha" operator="out"/>
<feColorMatrix type="matrix" values="0 0 0 0 0.764706 0 0 0 0 0.764706 0 0 0 0 0.764706 0 0 0 0.25 0"/>
<feBlend mode="normal" in2="BackgroundImageFix" result="effect1_dropShadow_414_42"/>
<feColorMatrix in="SourceAlpha" type="matrix" values="0 0 0 0 0 0 0 0 0 0 0 0 0 0 0 0 0 0 127 0" result="hardAlpha"/>
<feOffset dy="-2"/>
<feGaussianBlur stdDeviation="2"/>
<feComposite in2="hardAlpha" operator="out"/>
<feColorMatrix type="matrix" values="0 0 0 0 0.764706 0 0 0 0 0.764706 0 0 0 0 0.764706 0 0 0 0.25 0"/>
<feBlend mode="normal" in2="effect1_dropShadow_414_42" result="effect2_dropShadow_414_42"/>
<feBlend mode="normal" in="SourceGraphic" in2="effect2_dropShadow_414_42" result="shape"/>
</filter>
</defs>
</svg>
