<svg width="108" height="112" viewBox="0 0 108 112" fill="none" xmlns="http://www.w3.org/2000/svg">
<g filter="url(#filter0_dd_412_17)">
<rect x="4" y="6" width="100" height="100" fill="transperant"/>
</g>
<path d="M35.9931 27.9123V33.9131H40.9937V27.9123H35.9931ZM66.9986 27.9123V33.9131H71.9992V27.9123H66.9986ZM27.9902 31.9127V40.915H80.0002V31.9127H73.999V34.9138C73.999 35.4668 73.5518 35.914 72.9987 35.914H65.9973C65.4442 35.914 64.997 35.4668 64.997 34.9138V31.9127H42.9934V34.9138C42.9934 35.4668 42.5463 35.914 41.9932 35.914H34.9917C34.4387 35.914 33.9915 35.4668 33.9915 34.9138V31.9127H27.9902ZM27.9902 42.9159V83.9247H80.0002V42.9159H27.9902ZM34.9917 48.9172H72.9999V77.9234H34.9917V48.9172ZM36.9913 50.9181V57.9196H43.9928V50.9181H36.9913ZM45.9936 50.9181V57.9196H52.9951V50.9181H45.9936ZM54.996 50.9181V57.9196H61.9975V50.9181H54.996ZM63.9984 50.9181V57.9196H70.9999V50.9181H63.9984ZM36.9915 59.9191V66.9206H43.993V59.9191H36.9915ZM45.9939 59.9191V66.9206H52.9954V59.9191H45.9939ZM54.9962 59.9191V66.9206H61.9977V59.9191H54.9962ZM63.9986 59.9191V66.9206H71.0001V59.9191H63.9986ZM36.9917 68.9215V75.923H43.9932V68.9215H36.9917ZM45.9941 68.9215V75.923H52.9956V68.9215H45.9941ZM54.9965 68.9215V75.923H61.998V68.9215H54.9965ZM63.9988 68.9215V75.923H71.0003V68.9215H63.9988Z" fill="#FFC500"/>
<defs>
<filter id="filter0_dd_412_17" x="0" y="0" width="108" height="112" filterUnits="userSpaceOnUse" color-interpolation-filters="sRGB">
<feFlood flood-opacity="0" result="BackgroundImageFix"/>
<feColorMatrix in="SourceAlpha" type="matrix" values="0 0 0 0 0 0 0 0 0 0 0 0 0 0 0 0 0 0 127 0" result="hardAlpha"/>
<feOffset dy="2"/>
<feGaussianBlur stdDeviation="2"/>
<feComposite in2="hardAlpha" operator="out"/>
<feColorMatrix type="matrix" values="0 0 0 0 0.764706 0 0 0 0 0.764706 0 0 0 0 0.764706 0 0 0 0.25 0"/>
<feBlend mode="normal" in2="BackgroundImageFix" result="effect1_dropShadow_412_17"/>
<feColorMatrix in="SourceAlpha" type="matrix" values="0 0 0 0 0 0 0 0 0 0 0 0 0 0 0 0 0 0 127 0" result="hardAlpha"/>
<feOffset dy="-2"/>
<feGaussianBlur stdDeviation="2"/>
<feComposite in2="hardAlpha" operator="out"/>
<feColorMatrix type="matrix" values="0 0 0 0 0.764706 0 0 0 0 0.764706 0 0 0 0 0.764706 0 0 0 0.25 0"/>
<feBlend mode="normal" in2="effect1_dropShadow_412_17" result="effect2_dropShadow_412_17"/>
<feBlend mode="normal" in="SourceGraphic" in2="effect2_dropShadow_412_17" result="shape"/>
</filter>
</defs>
</svg>
