<svg width="108" height="112" viewBox="0 0 108 112" fill="none" xmlns="http://www.w3.org/2000/svg">
<g filter="url(#filter0_dd_412_12)">
<rect x="4" y="6" width="100" height="100" fill="transperant"/>
</g>
<path d="M48.4214 36H37.459C36.5762 36.0009 35.7298 36.3638 35.1056 37.0089C34.4814 37.654 34.1303 38.5287 34.1294 39.441V50.7704C34.1303 51.6827 34.4814 52.5574 35.1056 53.2025C35.7298 53.8477 36.5762 54.2105 37.459 54.2114H48.4214C49.3042 54.2105 50.1505 53.8477 50.7747 53.2025C51.399 52.5574 51.75 51.6827 51.751 50.7704V39.441C51.75 38.5287 51.399 37.654 50.7747 37.0089C50.1505 36.3638 49.3042 36.0009 48.4214 36V36Z" fill="#FFC500"/>
<path d="M69.6713 36H58.7085C57.8257 36.0009 56.9793 36.3638 56.3551 37.0089C55.7309 37.654 55.3798 38.5287 55.3789 39.441V50.7704C55.3798 51.6827 55.7309 52.5574 56.3551 53.2025C56.9793 53.8477 57.8257 54.2105 58.7085 54.2114H69.6713C70.5541 54.2105 71.4004 53.8477 72.0246 53.2025C72.6489 52.5574 73 51.6827 73.0009 50.7704V39.441C73 38.5287 72.6489 37.654 72.0246 37.0089C71.4004 36.3638 70.5541 36.0009 69.6713 36V36Z" fill="#FFC500"/>
<path d="M48.4214 57.8394H37.459C36.5763 57.8403 35.73 58.2031 35.1057 58.8481C34.4815 59.4931 34.1304 60.3677 34.1294 61.28V72.6098C34.1303 73.5221 34.4814 74.3968 35.1056 75.0419C35.7298 75.687 36.5762 76.0499 37.459 76.0508H48.4214C49.3042 76.0499 50.1505 75.687 50.7747 75.0419C51.399 74.3968 51.75 73.5221 51.751 72.6098V61.28C51.7499 60.3677 51.3988 59.4931 50.7746 58.8481C50.1504 58.2031 49.3041 57.8403 48.4214 57.8394V57.8394Z" fill="#FFC500"/>
<path d="M69.292 58H58.3296C57.4469 58.0009 56.6006 58.3637 55.9764 59.0087C55.3521 59.6538 55.001 60.5284 55 61.4406V72.7704C55.0009 73.6827 55.352 74.5574 55.9762 75.2025C56.6004 75.8476 57.4468 76.2105 58.3296 76.2114H69.292C70.1748 76.2105 71.0211 75.8476 71.6453 75.2025C72.2696 74.5574 72.6206 73.6827 72.6216 72.7704V61.4406C72.6205 60.5284 72.2694 59.6538 71.6452 59.0087C71.021 58.3637 70.1747 58.0009 69.292 58V58Z" fill="#FFC500"/>
<defs>
<filter id="filter0_dd_412_12" x="0" y="0" width="108" height="112" filterUnits="userSpaceOnUse" color-interpolation-filters="sRGB">
<feFlood flood-opacity="0" result="BackgroundImageFix"/>
<feColorMatrix in="SourceAlpha" type="matrix" values="0 0 0 0 0 0 0 0 0 0 0 0 0 0 0 0 0 0 127 0" result="hardAlpha"/>
<feOffset dy="2"/>
<feGaussianBlur stdDeviation="2"/>
<feComposite in2="hardAlpha" operator="out"/>
<feColorMatrix type="matrix" values="0 0 0 0 0.764706 0 0 0 0 0.764706 0 0 0 0 0.764706 0 0 0 0.25 0"/>
<feBlend mode="normal" in2="BackgroundImageFix" result="effect1_dropShadow_412_12"/>
<feColorMatrix in="SourceAlpha" type="matrix" values="0 0 0 0 0 0 0 0 0 0 0 0 0 0 0 0 0 0 127 0" result="hardAlpha"/>
<feOffset dy="-2"/>
<feGaussianBlur stdDeviation="2"/>
<feComposite in2="hardAlpha" operator="out"/>
<feColorMatrix type="matrix" values="0 0 0 0 0.764706 0 0 0 0 0.764706 0 0 0 0 0.764706 0 0 0 0.25 0"/>
<feBlend mode="normal" in2="effect1_dropShadow_412_12" result="effect2_dropShadow_412_12"/>
<feBlend mode="normal" in="SourceGraphic" in2="effect2_dropShadow_412_12" result="shape"/>
</filter>
</defs>
</svg>
