<svg width="108" height="112" viewBox="0 0 108 112" fill="none" xmlns="http://www.w3.org/2000/svg">
<g filter="url(#filter0_dd_413_28)">
<rect x="4" y="6" width="100" height="100" fill="transperant"/>
</g>
<path d="M85.3592 36H22.2368C20.449 36 19 37.4496 19 39.2368V73.2258C19 75.0135 20.4496 76.4625 22.2368 76.4625H85.3592C87.147 76.4625 88.596 75.0129 88.596 73.2258V39.2368C88.596 37.4496 87.1464 36 85.3586 36H85.3592ZM50.1289 69.3777H24.2715C24.0434 69.3777 23.8538 69.1875 23.8622 68.96C24.0513 63.4342 27.9903 58.8166 33.3429 57.2863C33.4767 57.2484 33.5009 57.0813 33.3841 57.0057C31.4557 55.7536 30.1772 53.5866 30.1772 51.1157C30.1772 46.9723 33.764 43.6672 38.0018 44.1368C41.2488 44.4964 43.872 47.1591 44.1903 50.4112C44.4596 53.1711 43.128 55.6367 41.0179 57.0057C40.9016 57.0819 40.9247 57.2484 41.0591 57.2863C46.4116 58.8166 50.3496 63.4342 50.5397 68.96C50.546 69.1881 50.3563 69.3777 50.1282 69.3777H50.1289ZM81.3129 65.1333C81.3129 65.5798 80.9505 65.9428 80.5034 65.9428L57.8441 65.9422C57.3976 65.9422 57.0346 65.5798 57.0346 65.1327V63.5144C57.0346 63.0678 57.397 62.7049 57.8441 62.7049H80.5034C80.9499 62.7049 81.3129 63.0673 81.3129 63.5144V65.1333ZM81.3129 58.6591C81.3129 59.1056 80.9505 59.4685 80.5034 59.4685L57.8441 59.468C57.3976 59.468 57.0346 59.1056 57.0346 58.6585V57.0401C57.0346 56.5936 57.397 56.2306 57.8441 56.2306H80.5034C80.9499 56.2306 81.3129 56.593 81.3129 57.0401V58.6591ZM81.3129 48.1385C81.3129 48.585 80.9505 48.948 80.5034 48.948H57.8441C57.3976 48.948 57.0346 48.5856 57.0346 48.1385V44.9017C57.0346 44.4552 57.397 44.0922 57.8441 44.0922H80.5034C80.9499 44.0922 81.3129 44.4547 81.3129 44.9017V48.1385Z" fill="#FFC500"/>
<defs>
<filter id="filter0_dd_413_28" x="0" y="0" width="108" height="112" filterUnits="userSpaceOnUse" color-interpolation-filters="sRGB">
<feFlood flood-opacity="0" result="BackgroundImageFix"/>
<feColorMatrix in="SourceAlpha" type="matrix" values="0 0 0 0 0 0 0 0 0 0 0 0 0 0 0 0 0 0 127 0" result="hardAlpha"/>
<feOffset dy="2"/>
<feGaussianBlur stdDeviation="2"/>
<feComposite in2="hardAlpha" operator="out"/>
<feColorMatrix type="matrix" values="0 0 0 0 0.764706 0 0 0 0 0.764706 0 0 0 0 0.764706 0 0 0 0.25 0"/>
<feBlend mode="normal" in2="BackgroundImageFix" result="effect1_dropShadow_413_28"/>
<feColorMatrix in="SourceAlpha" type="matrix" values="0 0 0 0 0 0 0 0 0 0 0 0 0 0 0 0 0 0 127 0" result="hardAlpha"/>
<feOffset dy="-2"/>
<feGaussianBlur stdDeviation="2"/>
<feComposite in2="hardAlpha" operator="out"/>
<feColorMatrix type="matrix" values="0 0 0 0 0.764706 0 0 0 0 0.764706 0 0 0 0 0.764706 0 0 0 0.25 0"/>
<feBlend mode="normal" in2="effect1_dropShadow_413_28" result="effect2_dropShadow_413_28"/>
<feBlend mode="normal" in="SourceGraphic" in2="effect2_dropShadow_413_28" result="shape"/>
</filter>
</defs>
</svg>
