<svg id="app_store" xmlns="http://www.w3.org/2000/svg" width="913.798" height="305.454" viewBox="0 0 913.798 305.454">
  <path id="Path_56842" data-name="Path 56842" d="M841.028,0H72.81c-2.8,0-5.567,0-8.36.015-2.337.015-4.657.06-7.017.1a100.913,100.913,0,0,0-15.3,1.349A50.9,50.9,0,0,0,27.615,6.25a49.161,49.161,0,0,0-12.36,9,47.791,47.791,0,0,0-9,12.379A50.409,50.409,0,0,0,1.485,42.165,99.22,99.22,0,0,0,.116,57.453C.045,59.794.037,62.143,0,64.485V240.993c.037,2.371.045,4.668.116,7.041A99.212,99.212,0,0,0,1.485,263.32a50.305,50.305,0,0,0,4.773,14.542,47.4,47.4,0,0,0,9,12.327,47.914,47.914,0,0,0,12.36,9,51.168,51.168,0,0,0,14.516,4.817,102.744,102.744,0,0,0,15.3,1.35c2.36.052,4.68.082,7.018.082,2.793.015,5.559.015,8.36.015H841.026c2.745,0,5.534,0,8.278-.015,2.328,0,4.714-.03,7.041-.082a101.4,101.4,0,0,0,15.273-1.35,51.96,51.96,0,0,0,14.572-4.817,47.935,47.935,0,0,0,12.35-9,48.83,48.83,0,0,0,9.023-12.327,50.425,50.425,0,0,0,4.727-14.542,103.13,103.13,0,0,0,1.418-15.287c.031-2.372.031-4.669.031-7.04.061-2.774.061-5.533.061-8.353V72.822c0-2.8,0-5.571-.061-8.337,0-2.342,0-4.691-.031-7.033a103.132,103.132,0,0,0-1.417-15.288,50.537,50.537,0,0,0-4.728-14.533A49.378,49.378,0,0,0,886.189,6.25a51.679,51.679,0,0,0-14.572-4.788A99.611,99.611,0,0,0,856.345.112c-2.327-.037-4.713-.082-7.041-.1C846.56,0,843.771,0,841.026,0Z" transform="translate(0)" fill="#a6a6a6"/>
  <path id="Path_56843" data-name="Path 56843" d="M58.694,292.966c-2.327,0-4.6-.03-6.906-.082a96.885,96.885,0,0,1-14.273-1.245,44.932,44.932,0,0,1-12.651-4.185A41.279,41.279,0,0,1,14.2,279.692,40.632,40.632,0,0,1,6.4,269.027a43.7,43.7,0,0,1-4.147-12.655A94.8,94.8,0,0,1,.985,242.054c-.049-1.611-.112-6.972-.112-6.972V58.678S.94,53.4.985,51.846a94.465,94.465,0,0,1,1.264-14.3A43.951,43.951,0,0,1,6.4,24.858a41.034,41.034,0,0,1,7.752-10.676A42.5,42.5,0,0,1,24.86,6.375,44.466,44.466,0,0,1,37.485,2.221,96.11,96.11,0,0,1,51.807.97L58.7.875H843.474l6.972.1a94.576,94.576,0,0,1,14.192,1.242A45.347,45.347,0,0,1,877.4,6.4,42.715,42.715,0,0,1,895.84,24.877a44.005,44.005,0,0,1,4.087,12.592,99.246,99.246,0,0,1,1.327,14.411c.023,2.163.023,4.486.023,6.8.061,2.864.061,5.589.061,8.337V226.833c0,2.774,0,5.481-.061,8.211,0,2.483,0,4.758-.031,7.1A97.209,97.209,0,0,1,899.94,256.3a43.827,43.827,0,0,1-4.124,12.753,41.849,41.849,0,0,1-7.755,10.582,41.336,41.336,0,0,1-10.686,7.808,44.76,44.76,0,0,1-12.737,4.2,95.775,95.775,0,0,1-14.274,1.245q-3.426.08-6.853.082l-8.278.015Z" transform="translate(5.794 5.807)"/>
  <path id="Path_56844" data-name="Path 56844" d="M122.969,99.033a37.791,37.791,0,0,1,18-31.706A38.683,38.683,0,0,0,110.487,50.85C97.663,49.5,85.232,58.523,78.7,58.523c-6.66,0-16.721-7.539-27.555-7.316a40.589,40.589,0,0,0-34.157,20.83c-14.769,25.57-3.752,63.149,10.4,83.817,7.078,10.121,15.35,21.426,26.174,21.025,10.592-.439,14.547-6.754,27.334-6.754,12.667,0,16.378,6.754,27.422,6.5,11.366-.184,18.527-10.165,25.356-20.382a83.709,83.709,0,0,0,11.6-23.615A36.517,36.517,0,0,1,122.969,99.033ZM102.11,37.257A37.208,37.208,0,0,0,110.621,10.6,37.857,37.857,0,0,0,86.126,23.274a35.4,35.4,0,0,0-8.734,25.669A31.3,31.3,0,0,0,102.11,37.257Zm154.75,114H220.715l-8.68,25.631H196.723L230.961,82.06h15.906L281.1,176.889H265.533Zm-32.4-11.828h28.652l-14.124-41.6h-.4Zm130.586,2.894c0,21.484-11.5,35.288-28.852,35.288a23.438,23.438,0,0,1-21.754-12.1h-.328V199.76H289.918V107.751h13.737v11.5h.261a24.525,24.525,0,0,1,22.014-12.223c17.547,0,29.114,13.871,29.114,35.3Zm-14.587,0c0-14-7.233-23.2-18.27-23.2-10.844,0-18.136,9.4-18.136,23.2,0,13.931,7.293,23.26,18.136,23.26,11.037,0,18.27-9.135,18.27-23.26Zm90.682,0c0,21.484-11.5,35.288-28.852,35.288a23.438,23.438,0,0,1-21.753-12.1H380.2V199.76H366.013V107.751H379.75v11.5h.261a24.525,24.525,0,0,1,22.014-12.223c17.548,0,29.114,13.871,29.114,35.3Zm-14.586,0c0-14-7.234-23.2-18.271-23.2-10.844,0-18.136,9.4-18.136,23.2,0,13.931,7.293,23.26,18.136,23.26,11.037,0,18.271-9.135,18.271-23.26Zm64.879,8.143c1.052,9.4,10.187,15.578,22.67,15.578,11.962,0,20.568-6.175,20.568-14.654,0-7.361-5.19-11.768-17.48-14.788L494.9,133.643c-17.412-4.206-25.5-12.35-25.5-25.564,0-16.362,14.259-27.6,34.5-27.6,20.038,0,33.775,11.238,34.237,27.6H523.818c-.858-9.463-8.68-15.176-20.113-15.176s-19.254,5.78-19.254,14.191c0,6.7,5,10.65,17.218,13.669l10.448,2.566c19.456,4.6,27.541,12.417,27.541,26.287,0,17.741-14.132,28.853-36.609,28.853-21.031,0-35.229-10.851-36.146-28Zm88.854-59.077v16.361h13.148V118.99H570.286V157.1c0,5.921,2.632,8.68,8.412,8.68a44.35,44.35,0,0,0,4.668-.328v11.172a38.973,38.973,0,0,1-7.882.655c-14,0-19.457-5.257-19.457-18.666V118.99H545.975V107.751h10.052V91.391Zm20.762,50.934c0-21.754,12.812-35.423,32.79-35.423,20.045,0,32.8,13.669,32.8,35.423,0,21.812-12.685,35.422-32.8,35.422S591.047,164.137,591.047,142.324Zm51.128,0c0-14.922-6.838-23.73-18.338-23.73s-18.33,8.874-18.33,23.73c0,14.982,6.831,23.722,18.33,23.722S642.175,157.306,642.175,142.324Zm26.16-34.573H681.87v11.768h.328a16.49,16.49,0,0,1,16.63-12.491,21.886,21.886,0,0,1,4.862.529v13.274a19.838,19.838,0,0,0-6.376-.858,14.3,14.3,0,0,0-14.788,15.907v41.008H668.335Zm100.787,48.831c-1.909,12.551-14.132,21.164-29.77,21.164-20.112,0-32.6-13.475-32.6-35.094,0-21.686,12.551-35.75,32-35.75,19.129,0,31.157,13.14,31.157,34.1v4.862H721.081v.858a18.006,18.006,0,0,0,18.6,19.583,15.642,15.642,0,0,0,15.967-9.725Zm-47.973-20.634h34.564A16.627,16.627,0,0,0,738.755,118.4a17.5,17.5,0,0,0-17.606,17.548ZM222.679,10.683a20.157,20.157,0,0,1,21.44,22.641c0,14.556-7.868,22.924-21.44,22.924H206.221V10.682ZM213.3,49.8h8.591a14.325,14.325,0,0,0,15.026-16.388,14.364,14.364,0,0,0-15.026-16.294H213.3ZM252.114,39.04a16.29,16.29,0,1,1,32.432,0,16.293,16.293,0,1,1-32.432,0Zm25.452,0c0-7.454-3.349-11.813-9.225-11.813-5.9,0-9.217,4.359-9.217,11.813,0,7.513,3.319,11.839,9.217,11.839C274.217,50.878,277.566,46.523,277.566,39.04Zm50.091,17.208h-7.041L313.51,30.922h-.537L305.9,56.247h-6.973l-9.478-34.386h6.883l6.16,26.238H303l7.07-26.238h6.51l7.07,26.238h.537l6.13-26.238H337.1Zm17.412-34.386H351.6v5.462h.507A10.294,10.294,0,0,1,362.371,21.2a11.184,11.184,0,0,1,11.9,12.789v22.26h-6.786V35.691c0-5.526-2.4-8.274-7.42-8.274a7.888,7.888,0,0,0-8.211,8.714V56.247h-6.786ZM385.086,8.438h6.786v47.81h-6.786Zm16.22,30.6a16.292,16.292,0,1,1,32.436,0,16.294,16.294,0,1,1-32.436,0Zm25.452,0c0-7.454-3.349-11.813-9.225-11.813-5.9,0-9.217,4.359-9.217,11.813,0,7.513,3.319,11.839,9.217,11.839C423.409,50.878,426.758,46.523,426.758,39.04Zm14.128,7.484c0-6.19,4.609-9.758,12.789-10.266l9.314-.537V32.753c0-3.632-2.4-5.682-7.039-5.682-3.788,0-6.414,1.391-7.167,3.822h-6.57c.693-5.907,6.25-9.694,14.05-9.694,8.621,0,13.483,4.292,13.483,11.555V56.247h-6.533V51.415h-.537a11.569,11.569,0,0,1-10.328,5.4,10.388,10.388,0,0,1-11.462-10.291Zm22.1-2.938V40.71l-8.4.537c-4.735.317-6.883,1.928-6.883,4.959,0,3.1,2.685,4.9,6.376,4.9a8.106,8.106,0,0,0,8.9-7.517Zm15.676-4.545c0-10.866,5.585-17.748,14.273-17.748a11.332,11.332,0,0,1,10.545,6.033h.507V8.437h6.786v47.81h-6.5V50.813h-.537a11.934,11.934,0,0,1-10.8,6c-8.748,0-14.274-6.883-14.274-17.774Zm7.01,0c0,7.293,3.438,11.682,9.187,11.682,5.72,0,9.255-4.452,9.255-11.653,0-7.166-3.572-11.681-9.255-11.681C489.15,27.387,485.675,31.806,485.675,39.04Zm53.178,0a16.29,16.29,0,1,1,32.432,0,16.293,16.293,0,1,1-32.432,0Zm25.452,0c0-7.454-3.349-11.813-9.225-11.813-5.9,0-9.217,4.359-9.217,11.813,0,7.513,3.319,11.839,9.217,11.839C560.956,50.878,564.3,46.523,564.3,39.04ZM580.39,21.862h6.533v5.462h.507A10.294,10.294,0,0,1,597.692,21.2a11.184,11.184,0,0,1,11.9,12.789v22.26h-6.786V35.691c0-5.526-2.4-8.274-7.42-8.274a7.888,7.888,0,0,0-8.211,8.714V56.247h-6.786ZM647.94,13.3v8.718h7.45v5.716h-7.45V45.415c0,3.6,1.484,5.18,4.862,5.18a22.657,22.657,0,0,0,2.587-.157v5.653a22.263,22.263,0,0,1-3.691.347c-7.546,0-10.552-2.655-10.552-9.284V27.734h-5.458V22.017h5.458V13.3Zm16.719-4.863h6.727v18.95h.537a10.581,10.581,0,0,1,10.485-6.16,11.328,11.328,0,0,1,11.842,12.82v22.2h-6.793V35.721c0-5.493-2.558-8.274-7.353-8.274a8.033,8.033,0,0,0-8.658,8.718V56.247h-6.786Zm69.16,38.525a13.959,13.959,0,0,1-14.9,9.949,15.619,15.619,0,0,1-15.884-17.748A15.859,15.859,0,0,1,718.889,21.2c9.568,0,15.34,6.537,15.34,17.334V40.9H709.947v.38a9.089,9.089,0,0,0,9.158,9.851,8.242,8.242,0,0,0,8.181-4.169ZM709.947,35.881h17.368a8.3,8.3,0,0,0-8.464-8.908,8.794,8.794,0,0,0-8.9,8.908Z" transform="translate(66.174 55.991)" fill="#fff"/>
</svg>
