<svg width="705" height="744" viewBox="0 0 705 744" fill="none" xmlns="http://www.w3.org/2000/svg">
<path d="M519.056 639.4C523.433 640.495 527.903 641.38 532.45 642.028C534.85 642.371 537.239 642.638 539.616 642.843L548.611 622.998C558.098 623.053 567.259 621.805 575.893 619.411L592.841 635.838C599.119 633.495 605.115 630.634 610.764 627.296L605.311 605.387C612.457 600.246 618.767 594.111 624.019 587.137L647.281 591.657C650.61 586.236 653.448 580.474 655.736 574.42L637.898 558.827C639.231 553.932 640.154 548.842 640.609 543.578C640.919 539.99 641 536.419 640.875 532.875L661.557 523.745C660.724 517.156 659.295 510.678 657.321 504.373L633.919 501.062C630.437 492.609 625.748 484.628 620.034 477.342L630.223 458.065C625.531 452.992 620.411 448.261 614.904 443.943L594.886 454.17C587.103 449.01 578.567 444.79 569.452 441.724L565.273 419.672C560.896 418.577 556.426 417.693 551.879 417.044C549.479 416.702 547.09 416.434 544.714 416.229L535.718 436.074C526.231 436.023 517.07 437.271 508.436 439.662L491.488 423.235C485.21 425.578 479.214 428.439 473.565 431.776L479.019 453.686C471.873 458.823 465.559 464.961 460.31 471.935L437.048 467.415C433.72 472.837 430.881 478.599 428.594 484.653L446.432 500.245C445.098 505.14 444.175 510.23 443.72 515.494C443.41 519.083 443.33 522.654 443.454 526.197L422.773 535.327C423.605 541.917 425.034 548.394 427.008 554.699L450.411 558.01C453.892 566.464 458.582 574.444 464.295 581.73L454.107 601.004C458.799 606.077 463.918 610.808 469.426 615.126L489.444 604.899C497.226 610.06 505.762 614.282 514.878 617.349L519.056 639.4ZM495.159 522.835C497.263 498.468 520.015 481.713 545.977 485.416C571.939 489.119 591.282 511.875 589.177 536.245C587.072 560.616 564.32 577.367 538.355 573.663C512.394 569.957 493.054 547.202 495.159 522.835Z" fill="#E6E6E6"/>
<path d="M482.418 585.91C482.447 585.569 482.608 585.245 482.902 585.002C483.568 584.446 484.662 584.512 485.347 585.147C498.412 597.284 515.612 605.378 533.781 607.938C542.481 609.164 551.133 609.121 559.494 607.807C560.418 607.661 561.365 608.22 561.607 609.054C561.849 609.887 561.295 610.682 560.371 610.827C551.638 612.2 542.601 612.246 533.519 610.967C514.546 608.294 496.581 599.84 482.938 587.166C482.553 586.805 482.38 586.346 482.418 585.91Z" fill="white"/>
<path d="M591.687 590.469C591.719 590.063 591.913 589.682 592.266 589.413C600.505 583.146 606.99 575.41 611.538 566.422C611.944 565.617 613.011 565.335 613.921 565.79C614.831 566.245 615.237 567.267 614.827 568.072C610.077 577.46 603.309 585.539 594.706 592.083C593.973 592.641 592.831 592.497 592.159 591.758C591.807 591.376 591.652 590.908 591.687 590.469Z" fill="white"/>
<path d="M618.378 520.089C618.441 519.333 619.071 518.732 619.947 518.666C620.981 518.585 621.964 519.286 622.141 520.224C623.402 526.838 623.758 533.546 623.198 540.157C623.119 541.088 622.207 541.719 621.163 541.566C620.118 541.413 619.334 540.533 619.412 539.602C619.949 533.268 619.607 526.846 618.399 520.512C618.373 520.365 618.366 520.224 618.378 520.089Z" fill="white"/>
<path d="M120.98 168.105C124.013 168.862 127.105 169.476 130.257 169.926C131.919 170.163 133.575 170.346 135.221 170.49L141.452 156.745C148.023 156.781 154.369 155.916 160.346 154.258L172.085 165.635C176.434 164.012 180.585 162.03 184.499 159.72L180.722 144.547C185.672 140.986 190.045 136.735 193.678 131.908L209.789 135.037C212.095 131.283 214.058 127.292 215.644 123.098L203.29 112.297C204.216 108.907 204.852 105.382 205.167 101.734C205.381 99.2471 205.438 96.7744 205.352 94.3213L219.675 87.9973C219.099 83.431 218.109 78.946 216.743 74.5809L200.535 72.289C198.123 66.436 194.876 60.9078 190.919 55.8593L197.974 42.5085C194.723 38.9932 191.178 35.7197 187.364 32.7249L173.501 39.8091C168.111 36.2356 162.198 33.3122 155.886 31.1865L152.994 15.9127C149.96 15.1562 146.865 14.5411 143.717 14.092C142.055 13.8549 140.398 13.6721 138.753 13.5276L132.522 27.2729C125.951 27.2371 119.604 28.1015 113.627 29.7597L101.889 18.3827C97.5401 20.0061 93.3883 21.9882 89.4749 24.298L93.2513 39.4709C88.3014 43.0319 83.9287 47.2829 80.2959 52.1102L64.1846 48.9807C61.8789 52.7353 59.9156 56.7256 58.3296 60.92L70.6835 71.7204C69.7574 75.1108 69.1221 78.6361 68.807 82.284C68.5922 84.7708 68.5387 87.2439 68.6221 89.6965L54.2982 96.0206C54.875 100.587 55.8643 105.072 57.2304 109.437L73.439 111.729C75.8505 117.582 79.0975 123.11 83.0548 128.159L76 141.509C79.2502 145.025 82.7951 148.298 86.6097 151.293L100.473 144.209C105.863 147.782 111.775 150.706 118.087 152.831L120.98 168.105ZM104.426 87.3645C105.883 70.4875 121.642 58.8824 139.626 61.4477C157.611 64.013 171.006 79.7731 169.548 96.6534C168.09 113.53 152.332 125.135 134.347 122.57C116.362 120.005 102.968 104.245 104.426 87.3645Z" fill="#E6E6E6"/>
<path d="M95.0578 130.942C95.0874 130.599 95.2481 130.275 95.5416 130.031C96.2079 129.474 97.3026 129.54 97.9883 130.178C106.956 138.53 118.758 144.102 131.227 145.868C137.198 146.714 143.136 146.686 148.873 145.785C149.797 145.64 150.744 146.201 150.987 147.037C151.229 147.873 150.675 148.669 149.75 148.815C143.642 149.773 137.323 149.803 130.969 148.903C117.696 147.022 105.131 141.09 95.5853 132.199C95.1936 131.84 95.0204 131.376 95.0578 130.942Z" fill="white"/>
<path d="M170.742 134.12C170.775 133.714 170.969 133.334 171.321 133.065C176.967 128.768 181.409 123.47 184.524 117.308C184.93 116.503 185.995 116.221 186.904 116.676C187.813 117.131 188.219 118.152 187.813 118.957C184.496 125.515 179.768 131.159 173.759 135.73C173.027 136.287 171.886 136.143 171.214 135.405C170.863 135.026 170.708 134.558 170.742 134.12Z" fill="white"/>
<path d="M189.21 85.3935C189.273 84.64 189.895 84.0412 190.762 83.976C191.785 83.8966 192.758 84.5965 192.934 85.532C193.808 90.1474 194.06 94.8234 193.675 99.4354C193.598 100.364 192.696 100.993 191.662 100.839C190.628 100.685 189.852 99.8066 189.929 98.8781C190.29 94.5453 190.057 90.1513 189.235 85.8162C189.206 85.6721 189.198 85.5314 189.21 85.3935Z" fill="white"/>
<path d="M422.219 703.16C423.115 703.275 424.011 703.362 424.901 703.431L433.002 715.615C437.657 715.337 442.176 714.546 446.493 713.289L448.977 699.213C454.573 696.655 459.573 693.057 463.695 688.635L478.379 690.463C480.911 686.778 483.024 682.774 484.631 678.498L474.731 667.395C475.08 665.743 475.341 664.055 475.507 662.331C475.919 658.049 475.721 653.824 474.993 649.739L485.211 639.764C483.722 635.317 481.723 631.059 479.265 627.072L464.508 627.322C460.624 622.619 455.867 618.586 450.454 615.477L448.461 601.189C444.141 599.452 439.574 598.156 434.813 597.371L426.324 608.646C419.857 608.448 413.643 609.497 407.945 611.583L395.269 603.775C391.302 605.923 387.61 608.503 384.276 611.465L388.327 625.236C384.361 629.94 381.342 635.467 379.57 641.592L365.811 646.081C365.713 646.812 365.621 647.547 365.549 648.291C365.193 651.99 365.199 655.654 365.535 659.251L379.077 665.194C380.602 671.526 383.427 677.462 387.282 682.69L382.753 696.04C385.914 699.302 389.436 702.244 393.266 704.804L406.17 698.38C411.102 700.775 416.5 702.429 422.219 703.16ZM405.319 652.84C406.373 641.894 416.421 634.192 427.765 635.642C439.105 637.091 447.447 647.139 446.393 658.088C445.339 669.034 435.291 676.736 423.947 675.286C412.603 673.837 404.264 663.789 405.319 652.84Z" fill="#E6E6E6"/>
</svg>
