<svg id="Layer_1" data-name="Layer 1" xmlns="http://www.w3.org/2000/svg" xmlns:xlink="http://www.w3.org/1999/xlink" viewBox="0 0 1684.85 267.94"><defs><style>.cls-1{fill:none;}.cls-2{clip-path:url(#clip-path);}.cls-3{fill:#ffc712;}.cls-4{stroke:#231f20;stroke-miterlimit:10;}</style><clipPath id="clip-path"><rect class="cls-1" width="1684.85" height="267.94"/></clipPath></defs><g class="cls-2"><path class="cls-3" d="M0,182.59c100,18.2,363,63,591.33,62,82.36-.35,178.72-5.17,178.72-5.17,56-2.79,351.09-34.69,438.66-43.92,70.24-7.41,125.52-11.18,153.18-12.91,144.52-9.05,258.74-7.24,323-5.17,25.92.83,47.44,1.82,62.33,2.58L1734.41-29.29,1017.23-96.46l-1161.65,62"/><path class="cls-4" d="M0,184.3c368.48,59,658.92,47.47,861.33,24.12,110.61-12.76,177.9-27.08,317.21-39.62a3518.4,3518.4,0,0,1,704,6.89L1856.26-98.19-91.81-113.69V163.63"/></g></svg>