<svg width="102" height="102" viewBox="0 0 102 102" fill="none" xmlns="http://www.w3.org/2000/svg">
<g clip-path="url(#clip0)">
<path d="M23.4975 83.7529C36.5204 83.7529 46.8032 73.1941 46.8032 60.1712C46.8032 47.1482 36.1075 36.5894 23.0846 36.5894C22.9543 36.5894 22.7578 36.607 22.6275 36.6093C27.7766 32.5089 34.244 30.0382 41.3229 30.0382C44.5798 30.0382 47.2007 27.3974 47.2007 24.1427C47.2007 20.8881 45.1053 18.2473 41.8484 18.2473C18.7325 18.2495 0.467705 37.0553 0.467703 60.1712C0.467703 60.1756 0.467703 60.18 0.467703 60.1866C0.467702 73.203 10.4789 83.7529 23.4975 83.7529Z" fill="#010002" fill-opacity="0.06"/>
<path d="M78.2637 83.7529C91.2866 83.7529 101.587 73.1941 101.587 60.1712C101.587 47.1482 90.9002 36.5894 77.8751 36.5894C77.7448 36.5894 77.5527 36.607 77.4224 36.6093C82.5715 32.5089 89.0411 30.0382 96.12 30.0382C99.3769 30.0382 102 27.3974 102 24.1427C102 20.8881 99.8715 18.2473 96.6146 18.2473C73.4987 18.2495 55.2008 37.0553 55.2008 60.1712C55.2008 60.1756 55.2008 60.18 55.2008 60.1866C55.2008 73.203 65.2451 83.7529 78.2637 83.7529Z" fill="#010002" fill-opacity="0.06"/>
</g>
<defs>
<clipPath id="clip0">
<rect width="102" height="102" fill="white" transform="translate(102 102) rotate(-180)"/>
</clipPath>
</defs>
</svg>
