<svg width="102" height="102" viewBox="0 0 102 102" fill="none" xmlns="http://www.w3.org/2000/svg">
<path d="M78.9703 18.2471C65.9473 18.2471 55.6645 28.8059 55.6645 41.8288C55.6645 54.8518 66.3602 65.4106 79.3832 65.4106C79.5135 65.4106 79.71 65.3929 79.8403 65.3907C74.6911 69.4911 68.2238 71.9618 61.1449 71.9618C57.888 71.9618 55.2671 74.6026 55.2671 77.8573C55.2671 81.1119 57.3625 83.7527 60.6194 83.7527C83.7352 83.7505 102 64.9447 102 41.8288C102 41.8244 102 41.82 102 41.8134C102 28.797 91.9889 18.2471 78.9703 18.2471Z" fill="#010002" fill-opacity="0.06"/>
<path d="M23.7363 18.2471C10.7134 18.2471 0.412902 28.8059 0.412902 41.8288C0.412902 54.8518 11.0998 65.4106 24.1249 65.4106C24.2552 65.4106 24.4473 65.3929 24.5776 65.3907C19.4285 69.4911 12.9589 71.9618 5.87999 71.9618C2.62314 71.9618 0 74.6026 0 77.8573C0 81.1119 2.12854 83.7527 5.38539 83.7527C28.5013 83.7505 46.7992 64.9447 46.7992 41.8288C46.7992 41.8244 46.7992 41.82 46.7992 41.8134C46.7992 28.797 36.7549 18.2471 23.7363 18.2471Z" fill="#010002" fill-opacity="0.06"/>
</svg>
