<svg width="228" height="228" viewBox="0 0 228 228" fill="none" xmlns="http://www.w3.org/2000/svg">
<g filter="url(#filter0_diii_1411_1564)">
<circle cx="107" cy="107" r="100" fill="white"/>
</g>
<path d="M133.79 69.2914L109.291 47.1506C106.114 44.2805 108.164 39.6678 108.164 39.6678L107.651 39.2578L102.526 45.7155C99.6559 49.3032 100.066 54.5308 103.551 57.606L128.152 79.7467C131.33 82.6168 129.279 87.2295 129.279 87.2295L129.792 87.6395L134.917 81.1818C137.787 77.4917 137.275 72.3665 133.79 69.2914Z" fill="#FF1204"/>
<path d="M122.516 83.4374L98.0178 61.2966C94.8402 58.4265 96.8903 53.8138 96.8903 53.8138L96.3778 53.4038L91.2526 59.8615C88.3825 63.4491 88.7925 68.6768 92.2776 71.7519L116.776 93.8927C119.954 96.7628 117.904 101.375 117.904 101.375L118.416 101.786L123.541 95.3278C126.411 91.7402 125.899 86.5125 122.516 83.4374Z" fill="#FF1204"/>
<path d="M111.133 97.5824L86.635 75.5442C83.4574 72.6741 85.5075 68.0614 85.5075 68.0614L84.995 67.6514L79.8698 74.1091C76.9997 77.6967 77.4097 82.9244 80.8948 85.9995L105.393 108.14C108.571 111.01 106.521 115.623 106.521 115.623L107.033 116.033L112.158 109.575C115.029 105.885 114.619 100.658 111.133 97.5824Z" fill="#FF1204"/>
<path d="M39.6056 126.988H27.5922L26.3438 133.233H26.8855C28.7229 129.125 29.3589 127.941 31.0313 127.941H32.3033L29.8771 144.113C29.6416 145.723 29.2882 145.888 27.6864 146.118L27.5686 146.972H33.7167L33.858 146.118C32.4447 145.921 31.9971 145.789 32.2562 144.113L34.6589 127.941H36.1429C37.8154 127.941 37.4621 129.125 37.9567 133.233H38.4749L39.6056 126.988Z" fill="black"/>
<path d="M46.8172 145.133C46.6287 145.133 46.5345 145.001 46.5345 144.705C46.5581 144.278 46.6287 143.884 46.723 143.489L48.2776 135.174C48.3483 134.746 48.3954 134.286 48.3954 133.859C48.3954 132.544 48.0421 131.755 47.0292 131.755C45.0976 131.755 42.8598 135.535 41.6585 138.789L44.1789 124.688H43.8727L40.3629 125.839L40.2922 126.299L41.5878 127.186L38.1016 146.973H40.2922L41.0225 142.898C41.9176 137.869 44.6736 133.826 45.8278 133.826C46.087 133.826 46.1812 134.023 46.1812 134.418C46.1812 134.713 46.1341 135.042 46.087 135.338L44.6501 142.733C44.4852 143.522 44.3909 144.344 44.3674 145.166C44.3674 146.415 44.8621 147.269 45.7572 147.269C46.8643 147.269 47.6887 146.053 48.9608 143.424L48.631 143.062C47.7123 144.541 47.1941 145.133 46.8172 145.133Z" fill="black"/>
<path d="M57.6677 134.647C57.6677 133.069 56.8903 131.787 55.1472 131.787C51.8965 131.787 49.1641 137.013 49.1641 142.009C49.1641 145.165 50.4125 147.268 52.4854 147.268C54.2521 147.268 55.6183 145.855 56.9139 143.16L56.537 142.732C55.5477 144.507 54.6054 145.428 53.4748 145.428C52.1556 145.428 51.3783 143.981 51.3783 141.418C51.3783 141.089 51.4019 140.694 51.4254 140.366C54.629 139.445 57.6677 138.229 57.6677 134.647ZM54.8174 132.707C55.5241 132.707 55.8068 133.431 55.8068 134.351C55.8068 137.145 54.3699 138.689 51.4725 139.676C51.8259 136.224 53.2156 132.675 54.8174 132.707Z" fill="black"/>
<path d="M65.6272 129.848C65.8628 128.237 66.1219 128.073 67.6059 127.843L67.7472 126.988H61.9761L61.8583 127.843C63.1539 128.073 63.5072 128.172 63.2481 129.848L61.1045 144.08C60.8925 145.69 60.6098 145.855 59.1023 146.085L58.9609 146.939H64.7321L64.8734 146.085C63.5543 145.855 63.201 145.756 63.4601 144.08L65.6272 129.848Z" fill="black"/>
<path d="M74.5127 145.132C74.3243 145.132 74.2301 145 74.2301 144.705C74.2536 144.277 74.3243 143.883 74.4185 143.488L75.9732 135.173C76.0439 134.745 76.091 134.285 76.091 133.858C76.091 132.543 75.7376 131.754 74.7247 131.754C72.7932 131.754 70.5554 135.567 69.3305 138.788L70.6732 131.754H70.3669L66.8807 132.971L66.81 133.398L67.9878 134.351L65.75 146.94H67.9407L68.6709 142.864C69.566 137.835 72.3221 133.792 73.4763 133.792C73.7354 133.792 73.8296 133.989 73.8296 134.384C73.8061 134.68 73.7825 135.008 73.7118 135.304L72.2749 142.7C72.11 143.488 72.0158 144.31 71.9923 145.132C71.9923 146.381 72.4869 147.235 73.3821 147.235C74.4892 147.235 75.3136 146.019 76.5856 143.39L76.2794 143.028C75.4314 144.54 74.9132 145.132 74.5127 145.132Z" fill="black"/>
<path d="M85.551 145.133C85.3625 145.133 85.2683 145.001 85.2683 144.705C85.2919 144.278 85.3625 143.884 85.4567 143.489L88.731 124.688H88.4483L84.915 125.839L84.8679 126.299L86.1634 127.186L85.1741 132.741C84.6559 132.051 84.1376 131.788 83.3132 131.788C80.1803 131.788 76.9531 137.178 76.9531 143.029C76.9531 145.659 77.754 147.269 79.1438 147.269C80.7927 147.269 82.7714 143.917 83.9727 140.268C83.6194 141.78 83.1718 144.344 83.1718 145.166C83.1718 146.447 83.643 147.269 84.5145 147.269C85.6216 147.269 86.4461 146.053 87.7181 143.424L87.3648 143.062C86.4696 144.541 85.9514 145.133 85.551 145.133ZM80.0625 145.034C79.4029 145.034 79.1674 144.048 79.1674 142.602C79.1674 138.165 81.146 132.61 83.5016 132.61C84.1612 132.61 84.7265 133.169 84.9621 133.99C83.7843 140.761 81.5229 145.034 80.0625 145.034Z" fill="black"/>
<path d="M102.95 143.029C102.054 144.541 101.536 145.132 101.183 145.132C100.994 145.132 100.9 145.001 100.9 144.705C100.924 144.278 100.994 143.883 101.065 143.489L102.549 134.91L103.279 131.59H102.808L101.159 132.971C100.617 132.149 99.8402 131.722 99.0393 131.788C95.8828 131.788 92.7734 137.178 92.7734 143.029C92.7734 145.658 93.5508 147.269 94.9406 147.269C96.5895 147.269 98.2855 144.212 99.4868 140.629C99.1099 142.108 98.7566 144.343 98.7566 145.165C98.7566 146.447 99.2277 147.269 100.123 147.269C101.206 147.269 102.054 146.052 103.326 143.423L102.95 143.029ZM95.8828 145.034C95.2703 145.034 94.9877 144.146 94.9877 142.798C94.9877 138.033 96.9664 132.642 99.2277 132.642C99.8637 132.642 100.453 133.201 100.665 134.023C99.4162 140.794 97.3433 145.034 95.8828 145.034Z" fill="black"/>
<path d="M111.997 145.132C111.808 145.132 111.714 145 111.714 144.705C111.738 144.277 111.808 143.883 111.903 143.488L113.481 135.173C113.552 134.745 113.599 134.285 113.599 133.858C113.599 132.543 113.245 131.754 112.232 131.754C110.301 131.754 108.063 135.567 106.838 138.788L108.181 131.754H107.875L104.388 132.971L104.341 133.398L105.519 134.351L103.281 146.94H105.472L106.202 142.864C107.097 137.835 109.853 133.792 111.008 133.792C111.267 133.792 111.361 133.989 111.361 134.384C111.337 134.68 111.29 135.008 111.243 135.304L109.83 142.7C109.665 143.488 109.571 144.31 109.547 145.132C109.547 146.381 110.042 147.235 110.937 147.235C112.044 147.235 112.868 146.019 114.14 143.39L113.787 143.028C112.916 144.54 112.397 145.132 111.997 145.132Z" fill="black"/>
<path d="M91.8583 129.684C92.6592 129.684 93.2952 128.764 93.2952 127.647C93.2952 126.628 92.7063 125.839 91.9996 125.839C91.9761 125.839 91.9761 125.839 91.9525 125.839C91.1516 125.839 90.5156 126.726 90.5156 127.844C90.5156 127.877 90.5156 127.877 90.5156 127.91C90.5156 128.929 91.1045 129.717 91.8112 129.717C91.8347 129.684 91.8583 129.684 91.8583 129.684Z" fill="black"/>
<path d="M90.3639 145.132C90.1754 145.132 90.0812 145 90.0812 144.705C90.1047 144.277 90.1754 143.883 90.2696 143.488L92.3425 131.754H92.0363L88.5501 132.971L88.4794 133.398L89.6572 134.351L88.1732 142.7C88.0083 143.488 87.9141 144.31 87.9141 145.132C87.9141 146.381 88.3852 147.235 89.2803 147.235C90.3639 147.235 91.2119 146.019 92.4839 143.39L92.1305 143.028C91.259 144.54 90.7407 145.132 90.3639 145.132Z" fill="black"/>
<path d="M116.68 146.973H125.254V143.324H120.025V138.328H123.982V134.943H120.025V130.571H124.995V126.923H116.703V146.973H116.68ZM125.419 146.973H128.811L131.119 139.643L133.451 146.973H137.197L133.569 136.52L136.773 126.923H133.404L131.426 133.431L129.4 126.923H125.654L129.046 136.652L125.419 146.973ZM137.55 146.973H140.895V139.479H142.238C145.371 139.479 147.114 137.605 147.114 133.694V132.839C147.114 128.928 145.512 126.89 142.143 126.89H137.55V146.973ZM140.895 136.257V130.473H142.002C143.251 130.473 143.863 131.13 143.863 132.938V133.694C143.863 135.436 143.251 136.257 142.002 136.257H140.895ZM147.75 146.973H151.095V139.084H152.108L154.628 146.973H158.138L155.24 138.262C156.56 137.572 157.502 136.192 157.502 133.398V132.675C157.502 128.796 155.759 126.923 152.437 126.923H147.726L147.75 146.973ZM151.071 135.994V130.505H152.32C153.592 130.505 154.251 131.163 154.251 132.839V133.496C154.251 135.271 153.615 135.994 152.32 135.994H151.071ZM158.609 146.973H167.183V143.324H161.93V138.328H165.888V134.943H161.93V130.571H166.901V126.923H158.609V146.973ZM172.695 147.268C175.781 147.268 177.595 144.869 177.595 141.122C177.595 136.981 175.805 135.699 173.166 134.647C171.47 133.957 171.023 133.398 171.023 132.017C171.023 130.801 171.541 130.078 172.507 130.078C173.473 130.078 174.085 130.736 174.179 132.445H177.312C177.171 128.468 175.451 126.627 172.53 126.627C169.609 126.627 167.819 128.928 167.819 132.346C167.819 136.027 169.162 137.539 172.036 138.723C173.685 139.38 174.344 139.906 174.344 141.549C174.344 142.995 173.755 143.784 172.695 143.784C171.282 143.784 170.811 142.831 170.74 140.892H167.537C167.607 145.165 169.374 147.268 172.695 147.268ZM183.06 147.268C186.146 147.268 187.959 144.869 187.959 141.122C187.959 136.981 186.169 135.699 183.531 134.647C181.835 133.957 181.387 133.398 181.387 132.017C181.387 130.801 181.905 130.078 182.871 130.078C183.837 130.078 184.45 130.736 184.544 132.445H187.677C187.535 128.468 185.816 126.627 182.895 126.627C179.974 126.627 178.184 128.928 178.184 132.346C178.184 136.027 179.526 137.539 182.4 138.723C184.049 139.38 184.709 139.906 184.709 141.549C184.709 142.995 184.096 143.784 183.06 143.784C181.646 143.784 181.175 142.831 181.105 140.892H177.877C177.948 145.165 179.738 147.268 183.06 147.268Z" fill="black"/>
<defs>
<filter id="filter0_diii_1411_1564" x="0.193549" y="0.193549" width="227.226" height="227.226" filterUnits="userSpaceOnUse" color-interpolation-filters="sRGB">
<feFlood flood-opacity="0" result="BackgroundImageFix"/>
<feColorMatrix in="SourceAlpha" type="matrix" values="0 0 0 0 0 0 0 0 0 0 0 0 0 0 0 0 0 0 127 0" result="hardAlpha"/>
<feOffset dx="6.80645" dy="6.80645"/>
<feGaussianBlur stdDeviation="6.80645"/>
<feComposite in2="hardAlpha" operator="out"/>
<feColorMatrix type="matrix" values="0 0 0 0 0 0 0 0 0 0 0 0 0 0 0 0 0 0 0.1 0"/>
<feBlend mode="normal" in2="BackgroundImageFix" result="effect1_dropShadow_1411_1564"/>
<feBlend mode="normal" in="SourceGraphic" in2="effect1_dropShadow_1411_1564" result="shape"/>
<feColorMatrix in="SourceAlpha" type="matrix" values="0 0 0 0 0 0 0 0 0 0 0 0 0 0 0 0 0 0 127 0" result="hardAlpha"/>
<feOffset dx="-6.80645" dy="-6.80645"/>
<feGaussianBlur stdDeviation="6.80645"/>
<feComposite in2="hardAlpha" operator="arithmetic" k2="-1" k3="1"/>
<feColorMatrix type="matrix" values="0 0 0 0 0 0 0 0 0 0 0 0 0 0 0 0 0 0 0.1 0"/>
<feBlend mode="normal" in2="shape" result="effect2_innerShadow_1411_1564"/>
<feColorMatrix in="SourceAlpha" type="matrix" values="0 0 0 0 0 0 0 0 0 0 0 0 0 0 0 0 0 0 127 0" result="hardAlpha"/>
<feOffset dx="3.40323" dy="1.70161"/>
<feGaussianBlur stdDeviation="3.40323"/>
<feComposite in2="hardAlpha" operator="arithmetic" k2="-1" k3="1"/>
<feColorMatrix type="matrix" values="0 0 0 0 0 0 0 0 0 0 0 0 0 0 0 0 0 0 0.1 0"/>
<feBlend mode="normal" in2="effect2_innerShadow_1411_1564" result="effect3_innerShadow_1411_1564"/>
<feColorMatrix in="SourceAlpha" type="matrix" values="0 0 0 0 0 0 0 0 0 0 0 0 0 0 0 0 0 0 127 0" result="hardAlpha"/>
<feOffset dy="-3.40323"/>
<feGaussianBlur stdDeviation="3.40323"/>
<feComposite in2="hardAlpha" operator="arithmetic" k2="-1" k3="1"/>
<feColorMatrix type="matrix" values="0 0 0 0 0 0 0 0 0 0 0 0 0 0 0 0 0 0 0.07 0"/>
<feBlend mode="normal" in2="effect3_innerShadow_1411_1564" result="effect4_innerShadow_1411_1564"/>
</filter>
</defs>
</svg>
