<svg width="426" height="426" viewBox="0 0 426 426" fill="none" xmlns="http://www.w3.org/2000/svg">
<g clip-path="url(#clip0_1451_1482)">
<path d="M425.2 0H0V425.2H425.2V0Z" fill="white"/>
<path opacity="0.4" d="M212.057 376.8C196.467 384.47 178.057 372.22 159.697 372.22C227.117 390.6 294.537 366.09 337.437 317.05C380.337 261.89 386.437 188.35 349.697 127.05C300.697 53.5 208.697 28.98 129.057 71.89C80.0567 108.66 43.2467 163.82 55.5067 225.11C61.6367 274.11 92.2767 317.04 135.177 341.56C220.987 384.46 331.307 341.56 349.697 243.5C361.957 188.34 337.437 133.18 300.697 96.4C239.407 47.4 141.337 59.63 98.4367 127.05C79.9967 163.83 67.7567 200.6 73.8867 237.38C61.6367 151.57 129.057 65.77 214.887 71.9C257.787 78.03 300.697 96.41 325.207 133.19C355.857 176.09 355.857 231.25 331.337 274.19C300.667 335.44 233.247 360 171.997 347.7C122.997 335.44 86.1867 298.7 67.7967 249.64C49.4167 188.35 73.9267 133.19 116.797 90.28C178.087 41.28 263.887 47.38 319.047 102.54C392.597 182.22 368.047 310.93 270.047 353.83C214.887 372.22 159.727 366.09 110.697 335.44C30.9967 274.15 30.9967 163.83 98.4067 90.28C135.177 53.51 184.217 41.28 233.247 47.38C300.667 59.64 361.957 108.67 374.247 182.22C386.507 274.15 331.347 347.7 248.247 371.75C233.077 376.27 223.477 377.32 212.057 376.8Z" fill="#FDC705"/>
<path d="M134.189 140.59H123.739C121.933 140.59 120.469 142.054 120.469 143.86V191.54C120.469 193.346 121.933 194.81 123.739 194.81H134.189C135.995 194.81 137.459 193.346 137.459 191.54V143.86C137.459 142.054 135.995 140.59 134.189 140.59Z" fill="white"/>
<path d="M134.192 141.35C134.858 141.35 135.496 141.614 135.967 142.085C136.438 142.556 136.702 143.194 136.702 143.86V191.55C136.702 192.216 136.438 192.854 135.967 193.325C135.496 193.796 134.858 194.06 134.192 194.06H123.742C123.076 194.06 122.438 193.796 121.967 193.325C121.497 192.854 121.232 192.216 121.232 191.55V143.86C121.232 143.194 121.497 142.556 121.967 142.085C122.438 141.614 123.076 141.35 123.742 141.35H134.192ZM134.192 139.83H123.742C122.681 139.83 121.664 140.251 120.914 141.002C120.164 141.752 119.742 142.769 119.742 143.83V191.52C119.742 192.581 120.164 193.598 120.914 194.348C121.664 195.099 122.681 195.52 123.742 195.52H134.192C135.253 195.52 136.27 195.099 137.021 194.348C137.771 193.598 138.192 192.581 138.192 191.52V143.86C138.192 142.799 137.771 141.782 137.021 141.032C136.27 140.281 135.253 139.86 134.192 139.86V139.83Z" fill="#232440"/>
<path d="M123.739 247.45C122.953 247.505 122.176 247.249 121.577 246.736C120.978 246.223 120.605 245.496 120.539 244.71V205.71C120.605 204.924 120.978 204.197 121.577 203.684C122.176 203.171 122.953 202.915 123.739 202.97H134.189C134.975 202.915 135.752 203.171 136.351 203.684C136.95 204.197 137.323 204.924 137.389 205.71V244.71C137.323 245.496 136.95 246.223 136.351 246.736C135.752 247.249 134.975 247.505 134.189 247.45H123.739Z" fill="white"/>
<path d="M134.189 203.68C134.785 203.623 135.38 203.8 135.848 204.173C136.317 204.546 136.622 205.086 136.699 205.68V244.68C136.622 245.274 136.317 245.814 135.848 246.187C135.38 246.56 134.785 246.737 134.189 246.68H123.739C123.143 246.737 122.549 246.56 122.08 246.187C121.612 245.814 121.307 245.274 121.229 244.68V205.68C121.307 205.086 121.612 204.546 122.08 204.173C122.549 203.8 123.143 203.623 123.739 203.68H134.189ZM134.189 202.31H123.739C122.772 202.252 121.821 202.58 121.095 203.22C120.368 203.861 119.924 204.763 119.859 205.73V244.73C119.924 245.697 120.368 246.599 121.095 247.24C121.821 247.88 122.772 248.208 123.739 248.15H134.189C135.157 248.208 136.107 247.88 136.834 247.24C137.561 246.599 138.005 245.697 138.069 244.73V205.73C138.005 204.763 137.561 203.861 136.834 203.22C136.107 202.58 135.157 202.252 134.189 202.31Z" fill="#232440"/>
<path d="M258.008 84.83H138.798C131.26 84.83 125.148 90.9413 125.148 98.48V325.72C125.148 333.259 131.26 339.37 138.798 339.37H258.008C265.547 339.37 271.658 333.259 271.658 325.72V98.48C271.658 90.9413 265.547 84.83 258.008 84.83Z" fill="white"/>
<path d="M257.999 85.61C261.411 85.6127 264.682 86.9698 267.093 89.3831C269.505 91.7964 270.859 95.0684 270.859 98.48V325.72C270.859 329.131 269.504 332.402 267.093 334.813C264.681 337.225 261.41 338.58 257.999 338.58H138.789C135.379 338.58 132.108 337.225 129.696 334.813C127.284 332.402 125.929 329.131 125.929 325.72V98.48C125.929 95.0684 127.284 91.7964 129.695 89.3831C132.107 86.9698 135.378 85.6127 138.789 85.61H257.999ZM257.999 84H138.789C134.963 84.0079 131.296 85.5322 128.591 88.2387C125.886 90.9453 124.365 94.6136 124.359 98.44V325.72C124.365 329.545 125.887 333.213 128.592 335.918C131.297 338.623 134.964 340.145 138.789 340.15H257.999C261.826 340.147 265.494 338.626 268.2 335.921C270.906 333.215 272.427 329.546 272.429 325.72V98.48C272.433 96.5816 272.063 94.7009 271.34 92.9456C270.617 91.1903 269.555 89.5947 268.215 88.25C266.875 86.9053 265.283 85.8378 263.53 85.1085C261.777 84.3793 259.898 84.0026 257.999 84Z" fill="#232440"/>
<path d="M255.94 89.23H140.86C133.581 89.23 127.68 95.1309 127.68 102.41V321.77C127.68 329.049 133.581 334.95 140.86 334.95H255.94C263.219 334.95 269.12 329.049 269.12 321.77V102.41C269.12 95.1309 263.219 89.23 255.94 89.23Z" fill="white"/>
<path d="M255.94 90C257.571 90 259.186 90.3212 260.693 90.9454C262.199 91.5696 263.569 92.4844 264.722 93.6377C265.875 94.791 266.79 96.1602 267.414 97.667C268.038 99.1739 268.36 100.789 268.36 102.42V321.79C268.36 323.421 268.038 325.035 267.414 326.541C266.79 328.048 265.875 329.416 264.721 330.569C263.568 331.721 262.199 332.635 260.692 333.258C259.185 333.881 257.57 334.201 255.94 334.2H140.86C139.229 334.201 137.614 333.881 136.108 333.258C134.601 332.635 133.231 331.721 132.078 330.569C130.925 329.416 130.01 328.048 129.385 326.541C128.761 325.035 128.44 323.421 128.44 321.79V102.41C128.442 99.1177 129.752 95.9612 132.081 93.6342C134.41 91.3071 137.567 90 140.86 90H255.94ZM255.94 88.49H140.86C137.171 88.5084 133.638 89.9819 131.03 92.5903C128.422 95.1987 126.948 98.7312 126.93 102.42V321.79C126.948 325.479 128.422 329.011 131.03 331.62C133.638 334.228 137.171 335.702 140.86 335.72H255.94C259.63 335.704 263.165 334.232 265.776 331.623C268.386 329.014 269.861 325.48 269.88 321.79V102.41C269.861 98.7195 268.386 95.1855 265.776 92.5768C263.165 89.9681 259.63 88.4958 255.94 88.48V88.49Z" fill="#232440"/>
<path d="M230.193 102.56C230.193 103.308 229.896 104.025 229.367 104.554C228.838 105.083 228.121 105.38 227.373 105.38H171.533C170.784 105.38 170.066 105.083 169.536 104.555C169.005 104.026 168.706 103.309 168.703 102.56C168.703 102.188 168.776 101.82 168.919 101.477C169.061 101.134 169.269 100.822 169.532 100.559C169.795 100.296 170.107 100.088 170.45 99.9454C170.793 99.8032 171.161 99.73 171.533 99.73H227.373C228.122 99.7326 228.839 100.032 229.368 100.562C229.896 101.093 230.193 101.811 230.193 102.56Z" fill="#232440"/>
<path d="M265.96 116.04H130.43V301.76H265.96V116.04Z" fill="#232440"/>
<path d="M209.479 318.29C209.479 320.689 208.767 323.034 207.434 325.029C206.102 327.024 204.207 328.579 201.991 329.497C199.774 330.415 197.335 330.655 194.982 330.187C192.629 329.719 190.468 328.564 188.772 326.867C187.075 325.171 185.92 323.009 185.452 320.656C184.984 318.303 185.224 315.865 186.142 313.648C187.06 311.432 188.615 309.537 190.61 308.204C192.604 306.871 194.95 306.16 197.349 306.16C200.566 306.16 203.651 307.438 205.926 309.713C208.201 311.988 209.479 315.073 209.479 318.29Z" fill="white" stroke="#232440" stroke-width="1.57" stroke-miterlimit="10"/>
<path d="M130.83 202C117.37 193.78 95.4203 178.36 87.7103 161.24L78.8203 174.34C88.6003 195.1 118.32 209.5 130.82 214.79L130.83 202Z" fill="white" stroke="#232440" stroke-width="0.34" stroke-miterlimit="10" stroke-linecap="round"/>
<path d="M62.6588 329.08C64.575 331.496 67.1122 333.345 69.9988 334.43C69.9988 334.43 77.0988 335.09 76.5488 339.13L54.6988 338.7C54.6988 338.7 54.3688 332.25 56.4488 328.21L62.6588 329.08Z" fill="#232440"/>
<path d="M85.9335 329.08C87.8442 331.493 90.3742 333.342 93.2535 334.43C93.2535 334.43 100.364 335.09 99.8135 339.13L78.0035 338.7C78.0035 338.7 77.6735 332.25 79.7535 328.21L85.9335 329.08Z" fill="#232440"/>
<path d="M91.3883 222.1C91.3883 222.1 92.1983 236 90.9983 240.63C90.9983 240.63 69.7883 240.32 54.6583 245.08C54.6583 245.08 52.2983 223.63 54.6583 218.16C57.0183 212.69 91.3883 222.1 91.3883 222.1Z" fill="#232440"/>
<path d="M66.4027 232.24C59.7927 232.24 53.0527 224.08 52.7727 223.73V223.67C52.7727 219.75 52.6327 197.54 52.6327 197.32C52.4327 196.27 52.2027 195.13 51.9727 193.97C49.5127 181.47 46.4527 165.97 51.7727 164.51C54.8811 163.627 57.9306 162.548 60.9027 161.28C61.7427 160.94 62.4527 160.65 62.9627 160.47H63.0527L63.1227 160.53L63.4527 160.82L76.5327 160.39L87.6127 161.39L87.6627 161.45C95.6627 171.36 91.9727 197.92 91.9427 198.19L93.7427 221.81V221.86C91.2131 225.345 87.4648 227.751 83.2427 228.6H83.1827C80.8227 226.879 78.6774 224.881 76.7927 222.65C75.8527 224.87 69.9227 230.86 67.1327 232.33C66.8876 232.317 66.6437 232.287 66.4027 232.24Z" fill="white"/>
<path d="M76.5295 160.48L79.0895 160.7L87.5195 161.44C95.5895 171.44 91.7595 198.06 91.7595 198.06L93.5595 221.66C91.0645 225.113 87.3569 227.495 83.1795 228.33C80.7535 226.559 78.5567 224.493 76.6395 222.18C76.2095 224.02 69.8395 230.54 66.9595 232.05H66.3995C59.7995 232.05 52.8895 223.61 52.8895 223.61C52.8895 219.61 52.7495 197.26 52.7495 197.26C50.3895 184.96 46.1095 166.12 51.7495 164.61C55.5552 163.478 59.2972 162.143 62.9595 160.61C63.0969 160.725 63.2271 160.849 63.3495 160.98L63.4795 160.92L76.4795 160.51M76.4795 160.18L63.4795 160.6C63.3979 160.515 63.3111 160.435 63.2195 160.36L63.0695 160.24L62.8995 160.3C62.3795 160.49 61.6595 160.78 60.8195 161.12C57.8551 162.379 54.816 163.454 51.7195 164.34C46.2495 165.8 49.3295 181.43 51.7995 193.99C52.0295 195.14 52.2495 196.27 52.4595 197.34C52.4595 198.28 52.5995 219.8 52.5995 223.66V223.77L52.6695 223.86C52.9595 224.21 59.7495 232.43 66.4295 232.43H67.0095H67.0795H67.1395C69.8495 231.01 75.4995 225.33 76.7595 222.91C78.6186 225.039 80.7118 226.951 82.9995 228.61L83.1095 228.67H83.2295C87.4973 227.816 91.286 225.384 93.8395 221.86L93.8995 221.77V221.66L92.0995 198.09C92.3195 196.56 95.7795 171.14 87.7895 161.25L87.6995 161.14H87.5595L79.1295 160.41L76.5695 160.18H76.4795Z" fill="#232440"/>
<path d="M60.2395 159.23C60.2395 159.23 58.3095 163.54 58.6395 174.23L66.4995 180.77L64.4995 187.07L75.4195 197.9L75.0695 199.9C75.0695 199.9 81.4895 193.1 84.7595 187.18L81.4695 180.64L86.3295 176C86.3295 176 85.7295 160.49 80.8895 156.95C80.8895 156.94 69.1495 149.07 60.2395 159.23Z" fill="white" stroke="#232440" stroke-width="0.33" stroke-miterlimit="10"/>
<path d="M75.8128 196C75.2828 194.79 62.9028 166.31 62.8828 159.86V159.7L80.5128 159.86V160C80.5128 160.21 81.6328 181.2 76.1128 196L75.9728 196.38L75.8128 196Z" fill="white"/>
<path d="M63.0487 159.89L80.3487 160.05C80.3487 160.05 81.5287 181.05 75.9587 195.97C75.9587 195.97 63.0587 166.38 63.0487 159.89ZM62.7188 159.56V159.89C62.7188 166.37 75.1288 194.89 75.6588 196.1L75.9788 196.84L76.2687 196.08C81.7987 181.27 80.6887 160.24 80.6787 160.03V159.73H80.3688L63.0687 159.58L62.7188 159.56Z" fill="#232440"/>
<path d="M79.5797 183.64C78.9997 186.22 76.3097 195.54 75.4297 197.92C74.7384 194.433 73.7344 191.016 72.4297 187.71C72.6497 184.35 73.1797 170.54 73.1797 169.82L76.3297 169.37C76.3297 169.37 79.2197 180.94 79.5797 183.64Z" fill="#232440"/>
<path d="M73.2209 170.51C72.5909 170.26 71.8209 168.77 71.4609 167.68L74.0009 163.54L77.1509 167.94C76.9309 169 76.6309 170.08 76.3209 170.22C75.3666 170.723 74.252 170.827 73.2209 170.51Z" fill="#232440"/>
<path d="M72.8621 163.69C70.1621 163.69 67.1421 162.63 63.8621 160.55C63.8319 160.535 63.8082 160.509 63.7953 160.478C63.7824 160.447 63.7813 160.412 63.7921 160.38C63.7921 160.31 66.0521 153.08 64.9821 150.93C64.8121 150.6 64.5821 150.19 64.2921 149.69C63.312 148.028 62.4466 146.3 61.7021 144.52C61.4186 144.865 61.0447 145.125 60.6221 145.27C60.3784 145.358 60.1211 145.402 59.8621 145.4C59.1188 145.329 58.4146 145.034 57.8431 144.553C57.2715 144.073 56.8596 143.43 56.6621 142.71C56.3626 141.825 56.3626 140.865 56.6621 139.98C56.7775 139.589 56.9833 139.23 57.263 138.933C57.5427 138.636 57.8884 138.409 58.2721 138.27C58.5169 138.186 58.7735 138.143 59.0321 138.14C59.375 138.143 59.7142 138.211 60.0321 138.34C59.6321 135.57 59.4221 130.18 60.4521 126.57C61.0774 124.003 62.5665 121.73 64.6696 120.131C66.7727 118.532 69.3617 117.706 72.0021 117.79C75.2264 117.728 78.3626 118.844 80.8221 120.93C84.4721 124.39 85.9121 134.66 84.9321 141.7C84.4721 145 83.5121 147.19 82.2421 147.85C78.1021 150.02 77.2421 151.62 77.2421 151.64C77.2421 151.66 75.9721 154.77 79.6721 160.22C79.6893 160.245 79.6985 160.275 79.6985 160.305C79.6985 160.335 79.6893 160.365 79.6721 160.39C78.8803 161.448 77.8454 162.301 76.655 162.875C75.4645 163.449 74.1533 163.729 72.8321 163.69H72.8621Z" fill="#EA679F"/>
<path d="M71.9982 117.94C75.1849 117.88 78.2846 118.982 80.7182 121.04C86.0482 126.11 86.4282 145.49 82.1682 147.72C77.9082 149.95 77.0982 151.57 77.0982 151.57C77.0982 151.57 75.7282 154.71 79.5382 160.31C78.7655 161.352 77.7509 162.191 76.5819 162.753C75.413 163.316 74.1247 163.586 72.8282 163.54C70.5282 163.54 67.5782 162.76 63.9182 160.43C63.9182 160.43 66.2082 153.09 65.0882 150.86C63.8188 148.72 62.693 146.499 61.7182 144.21C61.4409 144.638 61.0294 144.961 60.5482 145.13C60.3199 145.209 60.0799 145.25 59.8382 145.25C59.1354 145.171 58.473 144.881 57.9377 144.419C57.4023 143.957 57.0191 143.344 56.8382 142.66C56.2082 140.81 56.8382 138.9 58.3182 138.41C58.547 138.334 58.787 138.297 59.0282 138.3C59.4432 138.303 59.8513 138.406 60.2182 138.6C59.7582 135.69 59.5782 130.16 60.5982 126.6C61.2147 124.067 62.6845 121.823 64.7606 120.246C66.8367 118.669 69.3924 117.855 71.9982 117.94ZM71.9982 117.64C69.3165 117.541 66.683 118.372 64.5437 119.992C62.4043 121.613 60.8904 123.922 60.2582 126.53C59.2582 130.06 59.4182 135.27 59.7882 138.12C59.5328 138.039 59.2662 137.998 58.9982 138C58.7222 138.001 58.4484 138.048 58.1882 138.14C57.782 138.285 57.4155 138.523 57.1185 138.836C56.8214 139.149 56.6021 139.527 56.4782 139.94C56.1635 140.857 56.1635 141.853 56.4782 142.77C56.6847 143.52 57.1152 144.189 57.712 144.687C58.3089 145.186 59.0437 145.49 59.8182 145.56C60.0931 145.557 60.366 145.513 60.6282 145.43C61.0033 145.3 61.3449 145.088 61.6282 144.81C62.3558 146.529 63.1942 148.199 64.1382 149.81C64.4182 150.3 64.6582 150.72 64.8182 151.03C65.6882 152.77 64.2482 158.37 63.6282 160.38C63.6078 160.443 63.6096 160.511 63.6332 160.573C63.6569 160.635 63.701 160.687 63.7582 160.72C67.0482 162.82 70.0982 163.88 72.8282 163.88C74.1823 163.938 75.5297 163.661 76.7509 163.073C77.972 162.485 79.0291 161.605 79.8282 160.51C79.8604 160.461 79.8776 160.404 79.8776 160.345C79.8776 160.286 79.8604 160.229 79.8282 160.18C76.1782 154.81 77.3982 151.76 77.4182 151.73C77.4182 151.73 78.2782 150.16 82.3482 148.03C84.0382 147.14 84.7882 144.13 85.1182 141.77C86.1182 134.68 84.6382 124.35 80.9682 120.86C78.4743 118.723 75.2819 117.577 71.9982 117.64Z" fill="#232440"/>
<path d="M57.5312 141.08L57.6213 140.89C57.7012 140.72 57.8094 140.564 57.9412 140.43C58.1349 140.198 58.3969 140.034 58.6897 139.96C58.9825 139.887 59.2911 139.908 59.5713 140.02C59.8602 140.136 60.1248 140.306 60.3512 140.52C60.5394 140.707 60.7133 140.907 60.8713 141.12C61.1213 141.5 61.2612 141.77 61.2612 141.77L60.7413 141.23C60.5659 141.051 60.3788 140.884 60.1813 140.73C59.9696 140.544 59.7256 140.398 59.4613 140.3C59.3371 140.247 59.2056 140.213 59.0713 140.2C58.9454 140.18 58.8171 140.18 58.6912 140.2C58.4566 140.257 58.2379 140.367 58.0513 140.52C57.8497 140.678 57.6742 140.867 57.5312 141.08Z" fill="#232440"/>
<path d="M58.0971 143C58.0614 142.805 58.0447 142.608 58.0471 142.41C58.0512 142.207 58.0814 142.005 58.1371 141.81C58.2037 141.583 58.3049 141.367 58.4371 141.17C58.5792 140.972 58.7637 140.808 58.9771 140.69C59.1578 140.585 59.359 140.52 59.5671 140.5C59.7097 140.48 59.8545 140.48 59.9971 140.5C59.8639 140.529 59.7334 140.569 59.6071 140.62C59.4312 140.671 59.2654 140.752 59.1171 140.86C58.9454 140.972 58.7989 141.118 58.6871 141.29C58.4616 141.623 58.3021 141.997 58.2171 142.39C58.1622 142.59 58.1221 142.794 58.0971 143Z" fill="#232440"/>
<path d="M59.437 138.34C59.437 138.34 61.977 140.34 62.437 139.49C63.0876 137.682 63.4421 135.781 63.487 133.86C63.547 132.11 67.197 128.95 67.277 123.32C67.277 123.32 79.667 127.32 82.857 124.24C86.047 121.16 87.117 112.33 80.857 111.42C74.597 110.51 73.607 115.27 72.137 114.66C70.667 114.05 56.227 110.86 57.897 118.66C57.897 118.66 49.097 122.88 57.087 139.4C57.1562 139.165 57.2752 138.948 57.436 138.764C57.5968 138.579 57.7956 138.431 58.0187 138.331C58.2419 138.23 58.4841 138.179 58.7289 138.18C58.9737 138.182 59.2152 138.236 59.437 138.34Z" fill="#232440"/>
<path d="M73.9962 140C74.0678 140.648 73.937 141.303 73.6218 141.874C73.3066 142.445 72.8224 142.904 72.2357 143.189C71.649 143.474 70.9885 143.57 70.3449 143.465C69.7012 143.36 69.106 143.058 68.6407 142.601C68.1755 142.144 67.8631 141.554 67.7463 140.912C67.6296 140.27 67.7143 139.608 67.9888 139.017C68.2633 138.425 68.7141 137.933 69.2794 137.608C69.8447 137.282 70.4968 137.14 71.1463 137.2C71.8943 137.197 72.6132 137.49 73.1469 138.014C73.6805 138.538 73.9857 139.252 73.9962 140Z" fill="#F69791"/>
<path d="M85.0662 135.45C84.7616 135.43 84.4557 135.451 84.1562 135.51C83.7807 135.502 83.4079 135.576 83.0642 135.728C82.7205 135.879 82.4143 136.105 82.1669 136.387C81.9196 136.67 81.7373 137.003 81.6328 137.364C81.5282 137.725 81.5041 138.104 81.562 138.476C81.6199 138.847 81.7584 139.201 81.9679 139.512C82.1773 139.824 82.4526 140.086 82.7742 140.28C83.0959 140.474 83.4562 140.595 83.8297 140.635C84.2033 140.675 84.581 140.632 84.9362 140.51C85.0968 138.828 85.1402 137.138 85.0662 135.45Z" fill="#F69791"/>
<path d="M72.5391 129.25C72.5758 129.063 72.6434 128.884 72.7391 128.72C72.8424 128.529 72.9849 128.361 73.1571 128.229C73.3294 128.096 73.5277 128.001 73.7391 127.95C73.9725 127.894 74.2157 127.894 74.4491 127.95C74.637 128.007 74.8156 128.091 74.9791 128.2C75.0923 128.278 75.1993 128.365 75.2991 128.46L75.4191 128.57C75.4191 128.57 75.2091 128.47 74.9091 128.36C74.7401 128.293 74.5663 128.24 74.3891 128.2C74.194 128.165 73.9942 128.165 73.7991 128.2C73.6076 128.237 73.4266 128.315 73.2691 128.43C73.1207 128.528 72.9862 128.646 72.8691 128.78C72.7416 128.924 72.6309 129.081 72.5391 129.25Z" fill="#232440"/>
<path d="M83.0031 128.66C82.9165 128.523 82.816 128.396 82.7031 128.28C82.4945 128.023 82.2058 127.844 81.8831 127.77C81.7116 127.735 81.5347 127.735 81.3631 127.77C81.2075 127.805 81.0539 127.848 80.9031 127.9L80.4531 128.09L80.5531 128C80.6407 127.913 80.738 127.835 80.8431 127.77C81.1588 127.545 81.5498 127.452 81.9331 127.51C82.1213 127.554 82.2979 127.637 82.4514 127.754C82.6048 127.871 82.7316 128.02 82.8231 128.19C82.9083 128.336 82.9691 128.495 83.0031 128.66Z" fill="#232440"/>
<path d="M81.7372 142.11C81.6594 142.202 81.5759 142.289 81.4872 142.37C81.2494 142.584 80.9915 142.775 80.7172 142.94L80.1272 143.21C79.9119 143.313 79.6829 143.383 79.4472 143.42C79.1972 143.47 78.9472 143.54 78.6872 143.57H77.8872C77.6224 143.585 77.3567 143.565 77.0972 143.51L76.3472 143.36C76.1132 143.321 75.8825 143.264 75.6572 143.19L75.0672 142.94C74.3372 142.62 73.8672 142.39 73.8672 142.39L75.1172 142.78L75.7172 142.98C75.9272 143.03 76.1672 143.05 76.3972 143.1L77.1372 143.23C77.3893 143.265 77.6451 143.265 77.8972 143.23H78.6572C78.9072 143.23 79.1472 143.15 79.3872 143.11C79.6163 143.079 79.8411 143.022 80.0572 142.94L80.6372 142.73C80.9189 142.592 81.1927 142.439 81.4572 142.27C81.5544 142.224 81.648 142.17 81.7372 142.11Z" fill="#232440"/>
<path d="M83.9969 145.24C81.5469 148.24 73.6369 154.57 62.3569 143.49L61.2969 144.74C61.3884 144.662 61.4752 144.578 61.5569 144.49C61.635 144.401 61.7085 144.307 61.7769 144.21C62.7517 146.499 63.8775 148.72 65.1469 150.86C65.1979 150.967 65.2413 151.077 65.2769 151.19C65.2769 151.19 65.2769 151.24 65.2769 151.26C65.3141 151.384 65.3408 151.511 65.3569 151.64C65.3616 151.66 65.3616 151.68 65.3569 151.7C65.3569 151.82 65.3569 151.96 65.3569 152.1V152.17C65.3569 152.33 65.3569 152.48 65.3569 152.65V152.72C65.3569 152.89 65.3569 153.07 65.3569 153.25C65.3569 153.44 65.3569 153.63 65.3569 153.83C65.3569 154.23 65.2669 154.64 65.1969 155.06C68.3369 156.48 74.0869 158.77 78.6669 158.82L78.4569 158.44V158.37L78.2769 158.02C78.2751 157.993 78.2751 157.967 78.2769 157.94C78.2169 157.83 78.1669 157.72 78.1169 157.61V157.52L77.9769 157.2V157.12C77.9769 157.01 77.8869 156.91 77.8469 156.8V156.74L77.7269 156.42C77.4572 155.707 77.2693 154.965 77.1669 154.21V153.97C77.1669 153.89 77.1669 153.82 77.1669 153.74C77.1619 153.67 77.1619 153.6 77.1669 153.53V153.28C77.1641 152.945 77.1909 152.61 77.2469 152.28C77.2421 152.24 77.2421 152.2 77.2469 152.16C77.2516 152.13 77.2516 152.1 77.2469 152.07C77.2469 152.07 77.2469 152.02 77.2469 151.99C77.2469 151.99 77.2469 151.99 77.2469 151.93V151.87C77.2469 151.87 78.0569 150.25 82.3169 148.02C82.3972 147.976 82.4741 147.926 82.5469 147.87C83.293 147.166 83.8001 146.247 83.9969 145.24Z" fill="#C84785"/>
<path d="M62.4678 143C62.4692 143.165 62.449 143.33 62.4078 143.49C62.3122 143.854 62.1419 144.195 61.9078 144.49C61.7788 144.645 61.631 144.782 61.4678 144.9C61.3254 145.005 61.1666 145.086 60.9978 145.14C60.6978 145.22 60.5078 145.25 60.5078 145.25C60.5078 145.25 60.6778 145.13 60.9278 144.99C61.1778 144.85 61.1578 144.79 61.2978 144.69C61.4392 144.575 61.5667 144.444 61.6778 144.3C61.7933 144.16 61.9002 144.013 61.9978 143.86C62.0778 143.7 62.1878 143.57 62.2478 143.44C62.3325 143.299 62.4061 143.152 62.4678 143Z" fill="#232440"/>
<path d="M67.0312 174.59L73.8313 163.85L80.4613 172.76" stroke="#232440" stroke-width="0.33" stroke-miterlimit="10"/>
<path d="M63.4062 145.62C63.6929 146.019 64 146.403 64.3263 146.77C65.0246 147.591 65.8053 148.338 66.6563 149C67.096 149.374 67.5678 149.709 68.0662 150C68.4907 150.265 68.9354 150.495 69.3963 150.69C69.7202 150.84 70.0544 150.967 70.3963 151.07L70.7762 151.2L70.3762 151.12C70.0357 151.059 69.7011 150.969 69.3762 150.85C69.1444 150.778 68.9173 150.691 68.6962 150.59C68.4467 150.49 68.2058 150.37 67.9763 150.23C67.4563 149.943 66.9641 149.608 66.5063 149.23C65.6483 148.547 64.885 147.754 64.2362 146.87C63.9247 146.478 63.647 146.059 63.4062 145.62Z" fill="#232440"/>
<path d="M75.3597 135.33C75.4042 135.485 75.4136 135.648 75.3873 135.808C75.3611 135.967 75.2997 136.118 75.2078 136.251C75.1158 136.384 74.9955 136.495 74.8556 136.575C74.7156 136.656 74.5595 136.704 74.3986 136.717C74.2376 136.73 74.0758 136.707 73.9249 136.649C73.774 136.592 73.6376 136.502 73.5258 136.385C73.4139 136.269 73.3293 136.129 73.2781 135.976C73.2269 135.823 73.2104 135.66 73.2297 135.5C73.1852 135.345 73.1758 135.182 73.202 135.022C73.2283 134.863 73.2896 134.712 73.3816 134.579C73.4736 134.446 73.5939 134.336 73.7338 134.255C73.8738 134.174 74.0298 134.126 74.1908 134.113C74.3517 134.1 74.5135 134.123 74.6645 134.181C74.8154 134.238 74.9517 134.328 75.0636 134.445C75.1754 134.561 75.26 134.701 75.3112 134.854C75.3624 135.007 75.379 135.17 75.3597 135.33Z" fill="#232440"/>
<path d="M82.7971 134.5C82.7942 134.707 82.7324 134.909 82.6187 135.083C82.5051 135.256 82.3444 135.393 82.1555 135.479C81.9666 135.564 81.7573 135.593 81.5522 135.564C81.347 135.534 81.1546 135.447 80.9973 135.312C80.84 135.177 80.7245 135 80.6643 134.802C80.604 134.604 80.6016 134.392 80.6572 134.193C80.7128 133.993 80.8241 133.813 80.9782 133.675C81.1323 133.536 81.3227 133.444 81.5271 133.41C81.8396 133.388 82.1483 133.49 82.3861 133.694C82.6238 133.898 82.7715 134.188 82.7971 134.5Z" fill="#232440"/>
<path d="M71.26 239.67C71.26 239.67 71.2 241.08 71.11 243.54C71.11 244.77 71 246.26 70.94 247.98C70.88 249.7 70.75 251.66 70.64 253.79C70.42 258.04 70.17 263 69.9 268.31C69.63 273.62 69.11 279.26 68.71 284.91C68.51 287.73 68.31 290.55 68.11 293.32C68 294.71 67.9 296.09 67.8 297.45C67.7 298.81 67.53 300.16 67.39 301.45C66.85 306.73 66.39 311.66 65.92 315.89L64.47 330L55.34 329.27C55.34 329.27 55.43 323.67 55.55 315.27C55.61 311.08 55.69 306.18 55.76 300.94C55.76 299.63 55.76 298.3 55.82 296.94C55.88 295.58 55.82 294.22 55.76 292.84C55.76 290.09 55.68 287.29 55.63 284.49C55.55 278.89 55.46 273.3 55.38 268.06C55.3 262.82 55 258 54.86 253.79C54.79 251.7 54.72 249.79 54.66 248.09C54.6 246.39 54.5 244.89 54.44 243.66C54.32 241.2 54.25 239.8 54.25 239.8L71.26 239.67Z" fill="#232440"/>
<path d="M91.4009 236.86C91.4009 236.86 91.4009 238.31 91.4609 240.86C91.4609 242.14 91.4609 243.69 91.5109 245.47C91.5609 247.25 91.5109 249.23 91.5109 251.4C91.5109 255.75 91.4109 260.81 91.3509 266.23C91.2709 268.94 91.1909 271.74 91.1109 274.59C91.0309 277.44 90.9709 280.32 90.8009 283.21C90.6309 286.1 90.5209 288.98 90.3809 291.83C90.3109 293.25 90.2409 294.66 90.1709 296.05C90.1009 297.44 89.9709 298.82 89.8709 300.17C89.6809 302.88 89.4809 305.49 89.3009 307.97C89.1209 310.45 88.9809 312.79 88.7209 314.97C87.8309 323.6 87.2309 329.36 87.2309 329.36L78.1009 328.64L78.3509 314.45C78.4209 312.33 78.3509 310.02 78.3509 307.58C78.3509 305.14 78.2909 302.58 78.2609 299.9C78.2609 298.567 78.2409 297.217 78.2009 295.85C78.2009 294.48 78.1009 293.09 78.0509 291.7C77.9509 288.9 77.8409 286.06 77.7409 283.22C77.6409 280.38 77.4609 277.55 77.3109 274.75C77.1609 271.95 77.0009 269.21 76.8509 266.55C76.4509 261.24 76.1509 256.28 75.7709 252.04C75.5909 249.92 75.4209 247.98 75.2709 246.26C75.1209 244.54 74.9709 243.07 74.8509 241.85C74.6009 239.37 74.4609 237.96 74.4609 237.96L91.4009 236.86Z" fill="#232440"/>
<path d="M93.5581 221.66L91.7581 198.06C91.7581 198.06 91.7581 197.87 91.8281 197.53C77.0981 225.08 51.8281 192.29 51.8281 192.29C52.1681 194.02 52.4981 195.7 52.8281 197.29C52.8281 197.29 52.9681 219.67 52.9681 223.64C52.9681 223.64 60.2681 232.56 67.0381 232.06C69.9181 230.55 76.2881 224.06 76.7181 222.19C78.6353 224.503 80.8321 226.568 83.2581 228.34C87.4078 227.484 91.0842 225.1 93.5581 221.66Z" fill="#9CD1E4"/>
<path d="M81.0681 139.83C81.0681 139.83 83.1181 138.83 82.3681 137.68C81.6181 136.53 80.1781 137.08 79.5781 137.41" fill="#EA679F"/>
<path d="M81.0681 139.83C81.3297 139.661 81.5742 139.467 81.7981 139.25C82.0248 139.053 82.2028 138.807 82.3181 138.53C82.3795 138.388 82.3969 138.232 82.3681 138.08C82.3295 137.924 82.2541 137.78 82.1481 137.66C82.0489 137.521 81.9273 137.399 81.7881 137.3C81.6547 137.207 81.5056 137.14 81.3481 137.1C81.0552 137.033 80.751 137.033 80.4581 137.1C80.2414 137.155 80.0278 137.222 79.8181 137.3L79.5781 137.39C79.8293 137.195 80.1093 137.039 80.4081 136.93C80.7245 136.8 81.0701 136.759 81.4081 136.81C81.6046 136.845 81.7919 136.92 81.9581 137.03C82.1282 137.143 82.2799 137.281 82.4081 137.44C82.54 137.606 82.6292 137.802 82.6681 138.01C82.7062 138.217 82.6782 138.43 82.5881 138.62C82.427 138.922 82.1975 139.182 81.9181 139.38C81.6598 139.573 81.3731 139.725 81.0681 139.83Z" fill="#232440"/>
<path d="M51.0564 164.94C51.0564 164.94 50.5264 165.01 50.2564 165.94C49.9864 166.87 58.3464 177.85 58.3464 177.85H58.2664C58.5838 177.675 58.919 177.534 59.2664 177.43C59.6764 177.35 57.2664 174.35 57.2664 174.35L51.0564 164.94Z" fill="white"/>
<path d="M72.3438 134.52C72.3957 134.299 72.4799 134.087 72.5938 133.89C72.8399 133.418 73.2592 133.06 73.7638 132.89C74.04 132.825 74.3275 132.825 74.6038 132.89C74.8323 132.948 75.0512 133.039 75.2538 133.16C75.3982 133.244 75.5324 133.345 75.6538 133.46L75.7938 133.57C75.7938 133.57 75.5438 133.45 75.1838 133.32C74.9797 133.243 74.7687 133.186 74.5538 133.15C74.3155 133.12 74.0736 133.141 73.8438 133.21C73.4056 133.351 73.0192 133.619 72.7338 133.98C72.589 134.149 72.4585 134.329 72.3438 134.52Z" fill="#232440"/>
<path d="M79.8906 133.76C79.9329 133.559 80.0001 133.364 80.0906 133.18C80.2825 132.75 80.6137 132.398 81.0306 132.18C81.2784 132.081 81.5506 132.06 81.8106 132.12C81.926 132.143 82.0372 132.184 82.1406 132.24C82.2271 132.292 82.3105 132.349 82.3906 132.41C82.5144 132.498 82.6226 132.606 82.7106 132.73L82.8206 132.86C82.6569 132.744 82.4829 132.644 82.3006 132.56C82.1338 132.466 81.9505 132.405 81.7606 132.38C81.5539 132.342 81.3405 132.37 81.1506 132.46C80.7833 132.657 80.468 132.938 80.2306 133.28C80.0006 133.55 79.8906 133.76 79.8906 133.76Z" fill="#232440"/>
<path d="M158.189 183.57H111.819C110.599 183.57 109.609 184.559 109.609 185.78V232.15C109.609 233.371 110.599 234.36 111.819 234.36H158.189C159.41 234.36 160.399 233.371 160.399 232.15V185.78C160.399 184.559 159.41 183.57 158.189 183.57Z" fill="#E7402B"/>
<path d="M158.191 184.05C158.419 184.049 158.645 184.092 158.856 184.179C159.067 184.265 159.259 184.392 159.42 184.553C159.582 184.714 159.71 184.905 159.798 185.116C159.886 185.326 159.931 185.552 159.931 185.78V232.16C159.928 232.62 159.743 233.06 159.417 233.384C159.091 233.708 158.65 233.89 158.191 233.89H111.821C111.361 233.89 110.92 233.708 110.594 233.384C110.268 233.06 110.083 232.62 110.081 232.16V185.78C110.081 185.552 110.126 185.326 110.213 185.116C110.301 184.905 110.429 184.714 110.591 184.553C110.753 184.392 110.944 184.265 111.156 184.179C111.367 184.092 111.593 184.049 111.821 184.05H158.191ZM158.191 183.05H111.821C111.11 183.05 110.428 183.332 109.926 183.835C109.423 184.338 109.141 185.019 109.141 185.73V232.11C109.141 232.462 109.21 232.81 109.345 233.136C109.479 233.461 109.677 233.756 109.926 234.005C110.174 234.254 110.47 234.451 110.795 234.586C111.12 234.721 111.469 234.79 111.821 234.79H158.191C158.543 234.79 158.891 234.721 159.216 234.586C159.541 234.451 159.837 234.254 160.086 234.005C160.335 233.756 160.532 233.461 160.667 233.136C160.801 232.81 160.871 232.462 160.871 232.11V185.78C160.871 185.428 160.801 185.08 160.667 184.754C160.532 184.429 160.335 184.134 160.086 183.885C159.837 183.636 159.541 183.439 159.216 183.304C158.891 183.169 158.543 183.1 158.191 183.1V183.05Z" fill="#232440"/>
<path d="M159.928 232.16V221.82C133.148 219.82 117.928 206.76 110.078 196.53V232.16C110.081 232.62 110.265 233.06 110.591 233.384C110.917 233.708 111.358 233.89 111.818 233.89H158.188C158.648 233.89 159.089 233.708 159.415 233.384C159.741 233.06 159.925 232.62 159.928 232.16Z" fill="#B8332D"/>
<path opacity="0.2" d="M156.398 185.67H113.378C112.423 185.67 111.648 186.445 111.648 187.4V187.62C111.648 188.575 112.423 189.35 113.378 189.35H156.398C157.354 189.35 158.128 188.575 158.128 187.62V187.4C158.128 186.445 157.354 185.67 156.398 185.67Z" fill="white"/>
<path d="M129.313 210.41C129.313 211.597 128.961 212.757 128.301 213.743C127.642 214.73 126.705 215.499 125.609 215.953C124.512 216.407 123.306 216.526 122.142 216.295C120.978 216.063 119.909 215.492 119.07 214.653C118.231 213.814 117.659 212.744 117.428 211.581C117.196 210.417 117.315 209.21 117.769 208.114C118.223 207.018 118.992 206.08 119.979 205.421C120.966 204.762 122.126 204.41 123.313 204.41C124.904 204.41 126.43 205.042 127.555 206.167C128.68 207.293 129.313 208.819 129.313 210.41Z" fill="white"/>
<path d="M152.43 197.41C152.43 198.597 152.078 199.757 151.419 200.743C150.759 201.73 149.822 202.499 148.726 202.953C147.629 203.407 146.423 203.526 145.259 203.295C144.095 203.063 143.026 202.492 142.187 201.653C141.348 200.814 140.776 199.744 140.545 198.581C140.313 197.417 140.432 196.21 140.886 195.114C141.341 194.018 142.11 193.081 143.096 192.421C144.083 191.762 145.243 191.41 146.43 191.41C148.021 191.41 149.547 192.042 150.672 193.167C151.798 194.293 152.43 195.819 152.43 197.41Z" fill="white"/>
<path d="M152.43 223.42C152.43 224.607 152.078 225.767 151.419 226.753C150.759 227.74 149.822 228.509 148.726 228.963C147.629 229.417 146.423 229.536 145.259 229.305C144.095 229.073 143.026 228.502 142.187 227.663C141.348 226.824 140.776 225.754 140.545 224.591C140.313 223.427 140.432 222.22 140.886 221.124C141.341 220.028 142.11 219.09 143.096 218.431C144.083 217.772 145.243 217.42 146.43 217.42C148.021 217.42 149.547 218.052 150.672 219.177C151.798 220.303 152.43 221.829 152.43 223.42Z" fill="white"/>
<path d="M123.344 210.41L146.454 197.41" stroke="white" stroke-width="1.73" stroke-miterlimit="10"/>
<path d="M123.344 210.41L146.454 224.24" stroke="white" stroke-width="1.73" stroke-miterlimit="10"/>
<path d="M123.209 229.85C122.997 229.839 122.789 229.799 122.589 229.73C121.159 229.3 108.119 220.52 107.809 218.61C107.499 216.7 110.989 212.41 111.129 212.23C111.164 212.189 111.215 212.164 111.269 212.16C113.44 212.618 115.643 212.916 117.859 213.05C118.167 213.059 118.475 213.035 118.779 212.98C118.988 212.927 119.203 212.896 119.419 212.89C119.799 212.89 119.929 213.05 119.969 213.18C120.109 213.62 119.399 214.26 119.209 214.39C118.809 214.588 118.385 214.732 117.949 214.82C117.099 215.05 115.669 215.44 115.639 215.82C115.869 216.28 120.639 217.53 123.549 218.27C125.309 218.73 126.839 219.12 127.429 219.34C127.529 219.34 128.369 219.75 128.429 220.27C128.439 220.392 128.414 220.514 128.358 220.622C128.301 220.73 128.215 220.819 128.109 220.88C128.093 220.887 128.076 220.89 128.059 220.89C128.041 220.89 128.024 220.887 128.009 220.88C127.919 220.88 118.659 218.6 117.739 218.35C117.952 218.648 118.224 218.9 118.539 219.09C120.259 219.867 122.038 220.509 123.859 221.01C127.659 222.23 129.479 222.85 129.669 223.25C129.675 223.28 129.675 223.31 129.669 223.34C129.745 223.46 129.783 223.599 129.779 223.741C129.775 223.883 129.728 224.02 129.646 224.136C129.563 224.251 129.447 224.338 129.314 224.387C129.181 224.436 129.036 224.444 128.899 224.41C128.792 224.419 128.685 224.419 128.579 224.41C127.759 224.31 124.689 223.26 121.989 222.34C120.329 221.77 118.619 221.19 118.419 221.18C118.264 221.147 118.107 221.127 117.949 221.12H117.829C117.928 221.258 118.042 221.386 118.169 221.5C119.813 222.524 121.538 223.41 123.329 224.15C125.909 225.34 127.059 225.89 127.219 226.15C127.279 226.25 127.549 226.75 127.359 227.08C127.308 227.162 127.235 227.229 127.148 227.271C127.062 227.314 126.965 227.331 126.869 227.32C126.759 227.333 126.648 227.333 126.539 227.32C125.039 226.67 117.799 223.48 117.239 223.14H117.039C116.719 223.14 116.599 223.21 116.579 223.25C116.559 223.29 116.579 223.35 116.759 223.62C117.942 224.675 119.191 225.654 120.499 226.55C122.709 228.18 123.229 228.55 123.319 228.8C123.409 229.05 123.749 229.35 123.619 229.62C123.58 229.694 123.521 229.755 123.448 229.796C123.375 229.837 123.292 229.856 123.209 229.85Z" fill="#EA679F"/>
<path d="M111.271 212.33C113.451 212.801 115.664 213.105 117.891 213.24C118.227 213.25 118.562 213.22 118.891 213.15C119.087 213.1 119.288 213.073 119.491 213.07C120.361 213.07 119.591 213.96 119.181 214.26C118.771 214.56 115.601 215.04 115.541 215.84C115.481 216.64 125.681 218.84 127.441 219.53C127.441 219.53 128.911 220.14 128.091 220.78C128.091 220.78 118.661 218.47 117.811 218.25C117.811 218.25 117.221 218.41 118.481 219.25C119.741 220.09 129.791 222.78 129.561 223.4C129.561 223.4 129.991 224.26 128.961 224.26H128.661C127.281 224.09 118.941 221.03 118.481 221.02C118.322 220.996 118.161 220.989 118.001 221C117.711 221 117.491 221.12 118.101 221.69C119.101 222.69 126.801 225.77 127.101 226.31C127.101 226.31 127.621 227.21 126.891 227.21H126.601C126.601 227.21 117.601 223.21 117.341 223.04C117.248 223.033 117.154 223.033 117.061 223.04C116.681 223.04 116.061 223.14 116.651 223.8C117.421 224.73 123.231 228.67 123.191 228.95C123.191 228.95 123.871 229.74 123.191 229.74C122.997 229.726 122.806 229.689 122.621 229.63C121.091 229.17 108.251 220.39 107.961 218.63C107.671 216.87 111.251 212.38 111.251 212.38M111.251 212.04C111.199 212.042 111.149 212.054 111.102 212.076C111.056 212.099 111.014 212.131 110.981 212.17C110.601 212.64 107.321 216.84 107.621 218.68C107.951 220.68 121.031 229.5 122.521 229.95C122.738 230.02 122.963 230.06 123.191 230.07C123.309 230.084 123.428 230.06 123.532 230.003C123.636 229.946 123.72 229.857 123.771 229.75C123.921 229.43 123.691 229.05 123.501 228.8C123.311 228.55 122.891 228.16 120.601 226.48C119.312 225.583 118.077 224.611 116.901 223.57C116.854 223.519 116.813 223.462 116.781 223.4C116.867 223.385 116.955 223.385 117.041 223.4H117.221C118.131 223.88 123.891 226.4 126.441 227.55H126.501C126.622 227.579 126.746 227.596 126.871 227.6C126.996 227.608 127.122 227.583 127.234 227.527C127.347 227.47 127.442 227.385 127.511 227.28C127.577 227.099 127.599 226.906 127.577 226.715C127.554 226.524 127.487 226.34 127.381 226.18C127.191 225.87 126.381 225.46 123.381 224.09C121.611 223.35 119.9 222.477 118.261 221.48C118.24 221.454 118.217 221.431 118.191 221.41H118.301H118.411C118.671 221.41 120.321 222.02 121.921 222.56C124.09 223.369 126.299 224.063 128.541 224.64C128.654 224.65 128.768 224.65 128.881 224.64C129.054 224.658 129.23 224.631 129.389 224.561C129.549 224.491 129.687 224.38 129.791 224.24C129.855 224.106 129.888 223.959 129.888 223.81C129.888 223.661 129.855 223.514 129.791 223.38C129.783 223.327 129.767 223.277 129.741 223.23C129.531 222.79 128.221 222.31 123.841 220.91C122.036 220.399 120.268 219.764 118.551 219.01L118.181 218.72C120.401 219.28 127.551 221.03 127.891 221.11H127.971C128.047 221.112 128.121 221.087 128.181 221.04C128.308 220.959 128.411 220.844 128.478 220.708C128.545 220.572 128.574 220.421 128.561 220.27C128.481 219.66 127.621 219.27 127.451 219.21C126.841 218.98 125.311 218.58 123.541 218.12C120.891 217.44 116.541 216.31 115.801 215.78C116.491 215.411 117.233 215.148 118.001 215C118.456 214.912 118.897 214.76 119.311 214.55C119.311 214.55 120.311 213.77 120.131 213.15C120.131 212.99 119.931 212.74 119.421 212.74C119.192 212.745 118.964 212.776 118.741 212.83C118.451 212.886 118.156 212.909 117.861 212.9C115.658 212.767 113.469 212.469 111.311 212.01L111.251 212.04Z" fill="#232440"/>
<path d="M111.267 212.33C111.267 212.33 107.697 216.83 107.977 218.58C108.077 219.17 109.577 220.58 111.587 222.12C113.025 219.213 113.66 215.975 113.427 212.74C112.197 212.53 111.267 212.33 111.267 212.33Z" fill="#C84785"/>
<path d="M49.6797 177.47C62.1897 204.02 107.32 220.17 107.32 220.17L112.69 211.38C112.69 211.38 69.9797 189.74 58.5697 164.38" fill="white"/>
<path d="M49.6797 177.47C62.1897 204.02 107.32 220.17 107.32 220.17L112.69 211.38C112.69 211.38 69.9797 189.74 58.5697 164.38" stroke="#232440" stroke-width="0.34" stroke-miterlimit="10" stroke-linecap="round"/>
<path d="M325.498 298.32H287.458C286.459 298.32 285.648 299.13 285.648 300.13V338.17C285.648 339.17 286.459 339.98 287.458 339.98H325.498C326.498 339.98 327.308 339.17 327.308 338.17V300.13C327.308 299.13 326.498 298.32 325.498 298.32Z" fill="#EE3A6E"/>
<path d="M325.497 298.71C325.683 298.71 325.868 298.747 326.04 298.818C326.213 298.889 326.369 298.994 326.501 299.126C326.633 299.258 326.737 299.414 326.809 299.587C326.88 299.759 326.917 299.944 326.917 300.13V338.13C326.917 338.508 326.768 338.87 326.502 339.138C326.236 339.406 325.874 339.557 325.497 339.56H287.497C287.31 339.56 287.124 339.523 286.951 339.451C286.778 339.379 286.621 339.273 286.489 339.141C286.357 339.008 286.253 338.85 286.182 338.676C286.111 338.503 286.076 338.317 286.077 338.13V300.13C286.076 299.943 286.111 299.758 286.182 299.585C286.253 299.412 286.358 299.255 286.49 299.123C286.622 298.991 286.779 298.886 286.952 298.815C287.125 298.744 287.31 298.709 287.497 298.71H325.497ZM325.497 297.93H287.497C286.914 297.933 286.356 298.165 285.944 298.577C285.532 298.989 285.3 299.547 285.297 300.13V338.13C285.297 338.713 285.529 339.273 285.941 339.686C286.354 340.098 286.913 340.33 287.497 340.33H325.497C325.785 340.33 326.071 340.273 326.337 340.162C326.604 340.052 326.846 339.889 327.049 339.685C327.253 339.481 327.414 339.238 327.523 338.971C327.633 338.704 327.688 338.418 327.687 338.13V300.13C327.687 299.548 327.456 298.99 327.046 298.578C326.636 298.166 326.079 297.933 325.497 297.93Z" fill="#232440"/>
<path d="M326.919 338.16V329.69C304.919 328.08 292.509 317.33 286.039 308.94V338.16C286.038 338.347 286.074 338.533 286.144 338.706C286.215 338.88 286.319 339.038 286.451 339.171C286.583 339.303 286.74 339.409 286.913 339.481C287.086 339.553 287.272 339.59 287.459 339.59H325.459C325.649 339.594 325.839 339.56 326.016 339.49C326.193 339.42 326.354 339.315 326.49 339.182C326.626 339.049 326.734 338.89 326.807 338.714C326.881 338.539 326.919 338.35 326.919 338.16Z" fill="#C22E5B"/>
<path opacity="0.2" d="M324.02 300.04H288.74C287.956 300.04 287.32 300.676 287.32 301.46V301.64C287.32 302.424 287.956 303.06 288.74 303.06H324.02C324.805 303.06 325.44 302.424 325.44 301.64V301.46C325.44 300.676 324.805 300.04 324.02 300.04Z" fill="white"/>
<path d="M321.893 316.16C321.893 314.345 321.312 312.578 320.234 311.118C319.155 309.659 317.637 308.583 315.902 308.051C314.167 307.518 312.307 307.556 310.596 308.159C308.884 308.762 307.411 309.898 306.393 311.4C305.376 309.893 303.903 308.753 302.189 308.147C300.475 307.541 298.612 307.502 296.875 308.035C295.137 308.569 293.617 309.646 292.538 311.109C291.459 312.572 290.879 314.342 290.883 316.16C290.883 316.468 290.903 316.775 290.943 317.08C291.623 325.94 306.393 335.13 306.393 335.13C306.393 335.13 320.623 326.26 321.773 317.55C321.853 317.091 321.893 316.626 321.893 316.16Z" fill="white"/>
<path d="M325.498 215.39H287.458C286.459 215.39 285.648 216.2 285.648 217.2V255.24C285.648 256.24 286.459 257.05 287.458 257.05H325.498C326.498 257.05 327.308 256.24 327.308 255.24V217.2C327.308 216.2 326.498 215.39 325.498 215.39Z" fill="#6CA1B6"/>
<path d="M325.497 215.78C325.874 215.783 326.236 215.934 326.502 216.202C326.768 216.47 326.917 216.832 326.917 217.21V255.21C326.917 255.396 326.88 255.581 326.809 255.753C326.737 255.926 326.633 256.082 326.501 256.214C326.369 256.346 326.213 256.451 326.04 256.522C325.868 256.593 325.683 256.63 325.497 256.63H287.497C287.31 256.631 287.125 256.596 286.952 256.525C286.779 256.454 286.622 256.349 286.49 256.217C286.358 256.085 286.253 255.928 286.182 255.755C286.111 255.582 286.076 255.397 286.077 255.21V217.21C286.076 217.023 286.111 216.837 286.182 216.664C286.253 216.49 286.357 216.332 286.489 216.199C286.621 216.067 286.778 215.961 286.951 215.889C287.124 215.817 287.31 215.78 287.497 215.78H325.497ZM325.497 215.01H287.497C286.913 215.01 286.354 215.242 285.941 215.654C285.529 216.067 285.297 216.627 285.297 217.21V255.21C285.3 255.793 285.532 256.351 285.944 256.763C286.356 257.175 286.914 257.407 287.497 257.41H325.497C326.079 257.407 326.636 257.174 327.046 256.762C327.456 256.35 327.687 255.792 327.687 255.21V217.21C327.688 216.922 327.633 216.636 327.523 216.369C327.414 216.102 327.253 215.859 327.049 215.655C326.846 215.451 326.604 215.288 326.337 215.178C326.071 215.067 325.785 215.01 325.497 215.01Z" fill="#232440"/>
<path d="M326.92 255.24V246.77C305 245.15 292.51 234.41 286 226V255.22C285.999 255.407 286.035 255.592 286.105 255.765C286.176 255.938 286.281 256.095 286.413 256.227C286.545 256.359 286.702 256.464 286.875 256.535C287.048 256.605 287.233 256.641 287.42 256.64H325.42C325.611 256.651 325.803 256.623 325.983 256.557C326.164 256.492 326.329 256.391 326.469 256.26C326.609 256.13 326.721 255.972 326.799 255.796C326.876 255.621 326.918 255.432 326.92 255.24Z" fill="#588DA0"/>
<path opacity="0.2" d="M324.02 217.11H288.74C287.956 217.11 287.32 217.746 287.32 218.53V218.71C287.32 219.494 287.956 220.13 288.74 220.13H324.02C324.805 220.13 325.44 219.494 325.44 218.71V218.53C325.44 217.746 324.805 217.11 324.02 217.11Z" fill="white"/>
<path d="M321.79 236.87C321.79 230.87 314.89 226.02 306.39 226.02C297.89 226.02 291 230.88 291 236.87C291 242.09 296.25 246.46 303.24 247.48C302.098 248.884 300.709 250.067 299.14 250.97C299.14 250.97 305.97 251.91 311.02 247.21C317.25 245.83 321.79 241.72 321.79 236.87Z" fill="white"/>
<path d="M276.693 298.59H239.173C238.184 298.59 237.383 299.391 237.383 300.38V337.9C237.383 338.889 238.184 339.69 239.173 339.69H276.693C277.681 339.69 278.483 338.889 278.483 337.9V300.38C278.483 299.391 277.681 298.59 276.693 298.59Z" fill="#23B3D8"/>
<path d="M276.692 299C277.063 299 277.42 299.148 277.682 299.41C277.945 299.673 278.092 300.029 278.092 300.4V337.93C278.094 338.114 278.058 338.297 277.988 338.467C277.918 338.638 277.815 338.793 277.685 338.923C277.555 339.053 277.4 339.156 277.23 339.226C277.059 339.296 276.876 339.331 276.692 339.33H239.162C238.791 339.33 238.435 339.183 238.172 338.92C237.91 338.657 237.762 338.301 237.762 337.93V300.38C237.762 300.009 237.91 299.653 238.172 299.39C238.435 299.127 238.791 298.98 239.162 298.98H276.692M276.692 298.21H239.162C238.587 298.213 238.037 298.442 237.631 298.848C237.224 299.255 236.995 299.805 236.992 300.38V337.91C236.992 338.486 237.221 339.037 237.628 339.444C238.035 339.851 238.587 340.08 239.162 340.08H276.692C276.977 340.08 277.259 340.024 277.523 339.915C277.786 339.806 278.025 339.646 278.227 339.444C278.428 339.243 278.588 339.004 278.697 338.74C278.806 338.477 278.862 338.195 278.862 337.91V300.38C278.862 300.095 278.806 299.813 278.697 299.55C278.588 299.286 278.428 299.047 278.227 298.846C278.025 298.644 277.786 298.484 277.523 298.375C277.259 298.266 276.977 298.21 276.692 298.21Z" fill="#232440"/>
<path d="M278.088 337.91V329.55C256.428 327.96 244.138 317.36 237.758 309.08V337.91C237.758 338.281 237.905 338.637 238.168 338.9C238.43 339.163 238.787 339.31 239.158 339.31H276.688C276.872 339.311 277.055 339.276 277.225 339.206C277.396 339.136 277.55 339.033 277.681 338.903C277.811 338.773 277.914 338.618 277.984 338.447C278.054 338.277 278.089 338.094 278.088 337.91Z" fill="#0F95B1"/>
<path d="M247.32 329.75V308.53L268.54 319.14L247.32 329.75Z" fill="white"/>
<path opacity="0.2" d="M275.251 300.29H240.431C239.658 300.29 239.031 300.917 239.031 301.69V301.87C239.031 302.643 239.658 303.27 240.431 303.27H275.251C276.024 303.27 276.651 302.643 276.651 301.87V301.69C276.651 300.917 276.024 300.29 275.251 300.29Z" fill="white"/>
<path d="M374.833 298.59H337.313C336.325 298.59 335.523 299.391 335.523 300.38V337.9C335.523 338.889 336.325 339.69 337.313 339.69H374.833C375.822 339.69 376.623 338.889 376.623 337.9V300.38C376.623 299.391 375.822 298.59 374.833 298.59Z" fill="#55316A"/>
<path d="M374.833 299C375.204 299 375.56 299.148 375.823 299.41C376.085 299.673 376.233 300.029 376.233 300.4V337.93C376.233 338.301 376.085 338.657 375.823 338.92C375.56 339.183 375.204 339.33 374.833 339.33H337.303C336.931 339.33 336.575 339.183 336.313 338.92C336.05 338.657 335.903 338.301 335.903 337.93V300.38C335.903 300.009 336.05 299.653 336.313 299.39C336.575 299.127 336.931 298.98 337.303 298.98H374.833M374.833 298.21H337.303C336.728 298.213 336.178 298.442 335.771 298.848C335.365 299.255 335.135 299.805 335.133 300.38V337.91C335.133 338.486 335.361 339.037 335.768 339.444C336.175 339.851 336.727 340.08 337.303 340.08H374.833C375.408 340.08 375.96 339.851 376.367 339.444C376.774 339.037 377.003 338.486 377.003 337.91V300.38C377.003 299.804 376.774 299.253 376.367 298.846C375.96 298.439 375.408 298.21 374.833 298.21Z" fill="#232440"/>
<path d="M376.228 337.91V329.55C354.568 327.96 342.228 317.36 335.898 309.08V337.91C335.898 338.281 336.046 338.637 336.309 338.9C336.571 339.163 336.927 339.31 337.298 339.31H374.828C375.2 339.31 375.556 339.163 375.818 338.9C376.081 338.637 376.228 338.281 376.228 337.91Z" fill="#442757"/>
<path opacity="0.2" d="M373.392 300.29H338.572C337.799 300.29 337.172 300.917 337.172 301.69V301.87C337.172 302.643 337.799 303.27 338.572 303.27H373.392C374.165 303.27 374.792 302.643 374.792 301.87V301.69C374.792 300.917 374.165 300.29 373.392 300.29Z" fill="white"/>
<path d="M356.058 305.55L360.928 315.41L371.798 316.99L363.928 324.66L365.788 335.49L356.058 330.37L346.338 335.49L348.198 324.66L340.328 316.99L351.198 315.41L356.058 305.55Z" fill="white"/>
<path d="M311.829 257.21H349.359C349.594 257.21 349.827 257.256 350.044 257.346C350.261 257.436 350.459 257.568 350.625 257.734C350.791 257.901 350.923 258.098 351.013 258.315C351.103 258.532 351.149 258.765 351.149 259V296.53C351.149 297.002 350.962 297.455 350.628 297.789C350.294 298.122 349.841 298.31 349.369 298.31H311.829C311.594 298.31 311.361 298.264 311.144 298.174C310.927 298.084 310.73 297.952 310.563 297.786C310.397 297.62 310.265 297.422 310.175 297.205C310.085 296.988 310.039 296.755 310.039 296.52V259C310.039 258.525 310.228 258.07 310.563 257.734C310.899 257.399 311.354 257.21 311.829 257.21Z" fill="#4A469D"/>
<path d="M349.356 257.6C349.728 257.6 350.084 257.747 350.346 258.01C350.609 258.273 350.756 258.629 350.756 259V296.53C350.756 296.901 350.609 297.257 350.346 297.52C350.084 297.783 349.728 297.93 349.356 297.93H311.826C311.455 297.93 311.099 297.783 310.836 297.52C310.574 297.257 310.426 296.901 310.426 296.53V259C310.425 258.816 310.46 258.633 310.53 258.463C310.6 258.292 310.703 258.137 310.833 258.007C310.964 257.877 311.118 257.774 311.289 257.704C311.459 257.634 311.642 257.599 311.826 257.6H349.356ZM349.356 256.83H311.826C311.541 256.83 311.259 256.886 310.996 256.995C310.733 257.104 310.493 257.264 310.292 257.466C310.09 257.667 309.93 257.906 309.821 258.17C309.712 258.433 309.656 258.715 309.656 259V296.53C309.656 297.106 309.885 297.657 310.292 298.064C310.699 298.471 311.251 298.7 311.826 298.7H349.356C349.93 298.697 350.479 298.468 350.884 298.061C351.289 297.654 351.516 297.104 351.516 296.53V259C351.516 258.426 351.289 257.876 350.884 257.469C350.479 257.062 349.93 256.833 349.356 256.83Z" fill="#232440"/>
<path d="M350.76 296.53V288.16C329.09 286.57 316.81 275.97 310.43 267.7V296.53C310.43 296.901 310.577 297.257 310.84 297.52C311.102 297.783 311.458 297.93 311.83 297.93H349.36C349.731 297.93 350.087 297.783 350.35 297.52C350.612 297.257 350.76 296.901 350.76 296.53Z" fill="#413C83"/>
<path opacity="0.2" d="M347.908 258.91H313.087C312.314 258.91 311.688 259.537 311.688 260.31V260.49C311.688 261.263 312.314 261.89 313.087 261.89H347.908C348.681 261.89 349.307 261.263 349.307 260.49V260.31C349.307 259.537 348.681 258.91 347.908 258.91Z" fill="white"/>
<path d="M316.266 284.47C316.267 283.361 316.381 282.256 316.606 281.17C316.844 280.034 317.178 278.919 317.606 277.84C318.042 276.729 318.567 275.656 319.176 274.63C319.792 273.576 320.49 272.573 321.266 271.63C322.046 270.709 322.902 269.856 323.826 269.08C324.753 268.31 325.759 267.64 326.826 267.08C327.877 266.523 328.987 266.087 330.136 265.78C331.31 265.466 332.521 265.308 333.736 265.31C334.651 265.31 335.565 265.391 336.466 265.55C337.362 265.708 338.24 265.956 339.086 266.29C339.909 266.624 340.688 267.057 341.406 267.58C342.12 268.106 342.748 268.74 343.266 269.46C343.809 270.23 344.227 271.08 344.506 271.98C344.82 273.017 344.972 274.097 344.956 275.18C344.956 275.42 344.956 275.67 344.956 275.93C344.947 276.188 344.924 276.445 344.886 276.7C344.782 277.412 344.607 278.112 344.366 278.79C344.098 279.561 343.763 280.307 343.366 281.02C342.947 281.776 342.465 282.495 341.926 283.17C341.395 283.841 340.787 284.449 340.116 284.98C339.466 285.494 338.75 285.918 337.986 286.24C337.229 286.556 336.416 286.716 335.596 286.71C335.382 286.711 335.169 286.677 334.966 286.61C334.745 286.532 334.548 286.398 334.396 286.22C334.203 285.994 334.063 285.727 333.986 285.44C333.871 285.02 333.817 284.585 333.826 284.15C333.829 283.909 333.846 283.669 333.876 283.43C333.876 283.18 333.956 282.9 334.016 282.6C333.687 283.281 333.281 283.922 332.806 284.51C332.385 285.028 331.901 285.491 331.366 285.89C330.889 286.251 330.36 286.538 329.796 286.74C329.276 286.924 328.728 287.019 328.176 287.02C327.569 287.024 326.966 286.919 326.396 286.71C325.843 286.512 325.339 286.198 324.916 285.79C324.482 285.353 324.142 284.833 323.916 284.26C323.652 283.582 323.523 282.858 323.536 282.13C323.545 281.246 323.677 280.368 323.926 279.52C324.198 278.568 324.566 277.647 325.026 276.77C325.516 275.852 326.096 274.984 326.756 274.18C327.422 273.364 328.184 272.632 329.026 272C329.858 271.366 330.777 270.858 331.756 270.49C332.75 270.117 333.804 269.927 334.866 269.93C335.041 269.928 335.215 269.944 335.386 269.98C335.492 270.008 335.593 270.052 335.686 270.11C335.741 270.15 335.783 270.206 335.806 270.27C335.813 270.316 335.813 270.364 335.806 270.41V270.51C335.801 270.53 335.801 270.55 335.806 270.57V270.63C336.023 270.722 336.252 270.779 336.486 270.8L337.186 270.85C337.405 270.867 337.622 270.901 337.836 270.95C338.037 271 338.22 271.103 338.366 271.25C338.544 271.434 338.672 271.662 338.736 271.91C338.839 272.295 338.887 272.692 338.876 273.09C338.871 273.519 338.831 273.947 338.756 274.37C338.676 274.84 338.566 275.37 338.446 275.86C338.326 276.35 338.166 276.86 338.006 277.43L337.546 278.99L337.126 280.41C336.996 280.85 336.906 281.24 336.836 281.58C336.718 281.932 336.651 282.299 336.636 282.67C336.629 282.85 336.667 283.028 336.746 283.19C336.775 283.255 336.823 283.309 336.884 283.344C336.945 283.38 337.016 283.396 337.086 283.39C337.46 283.387 337.824 283.276 338.136 283.07C338.513 282.834 338.851 282.541 339.136 282.2C339.486 281.805 339.791 281.372 340.046 280.91C340.33 280.397 340.571 279.862 340.766 279.31C340.976 278.734 341.14 278.142 341.256 277.54C341.375 276.941 341.435 276.331 341.436 275.72C341.47 274.493 341.266 273.27 340.836 272.12C340.482 271.207 339.917 270.392 339.186 269.74C338.479 269.129 337.646 268.682 336.746 268.43C335.77 268.153 334.76 268.015 333.746 268.02C332.456 268.014 331.178 268.266 329.986 268.76C328.808 269.259 327.713 269.934 326.736 270.76C325.709 271.59 324.789 272.544 323.996 273.6C323.224 274.654 322.554 275.779 321.996 276.96C321.468 278.094 321.049 279.276 320.746 280.49C320.474 281.58 320.33 282.697 320.316 283.82C320.306 284.599 320.456 285.371 320.756 286.09C321.067 286.785 321.562 287.383 322.186 287.82C322.969 288.355 323.849 288.732 324.776 288.93C326.06 289.213 327.372 289.344 328.686 289.32C330.698 289.346 332.708 289.172 334.686 288.8C336.238 288.513 337.752 288.047 339.196 287.41C339.38 287.32 339.581 287.272 339.786 287.27C339.931 287.262 340.075 287.301 340.196 287.38C340.311 287.457 340.407 287.56 340.476 287.68C340.555 287.806 340.612 287.945 340.646 288.09C340.678 288.248 340.694 288.409 340.696 288.57C340.697 288.809 340.656 289.045 340.576 289.27C340.533 289.451 340.422 289.608 340.266 289.71C339.311 290.273 338.307 290.748 337.266 291.13C335.088 291.934 332.822 292.474 330.516 292.74C329.464 292.867 328.406 292.933 327.346 292.94C325.714 292.964 324.086 292.748 322.516 292.3C321.259 291.945 320.083 291.347 319.056 290.54C318.156 289.826 317.44 288.907 316.966 287.86C316.492 286.793 316.253 285.637 316.266 284.47ZM335.696 273C335.469 272.941 335.239 272.897 335.006 272.87C334.778 272.834 334.547 272.817 334.316 272.82C333.7 272.822 333.094 272.98 332.556 273.28C331.953 273.609 331.401 274.024 330.916 274.51C330.377 275.032 329.898 275.613 329.486 276.24C329.057 276.874 328.682 277.543 328.366 278.24C328.059 278.883 327.811 279.552 327.626 280.24C327.465 280.834 327.378 281.445 327.366 282.06C327.332 282.64 327.486 283.215 327.806 283.7C327.979 283.898 328.195 284.052 328.438 284.151C328.682 284.25 328.944 284.291 329.206 284.27C329.623 284.268 330.035 284.18 330.416 284.01C330.801 283.828 331.157 283.592 331.476 283.31C331.805 283.007 332.103 282.672 332.366 282.31C332.62 281.961 332.854 281.597 333.066 281.22C333.259 280.875 333.429 280.517 333.576 280.15C333.691 279.866 333.778 279.571 333.836 279.27L335.696 273Z" fill="white"/>
<path d="M302.162 257.21H264.642C263.653 257.21 262.852 258.011 262.852 259V296.52C262.852 297.509 263.653 298.31 264.642 298.31H302.162C303.15 298.31 303.952 297.509 303.952 296.52V259C303.952 258.011 303.15 257.21 302.162 257.21Z" fill="#EDAF42"/>
<path d="M302.159 257.6C302.343 257.599 302.527 257.634 302.698 257.704C302.869 257.773 303.024 257.876 303.155 258.007C303.286 258.137 303.39 258.291 303.461 258.462C303.532 258.632 303.569 258.815 303.569 259V296.53C303.566 296.902 303.416 297.258 303.152 297.521C302.888 297.783 302.531 297.93 302.159 297.93H264.639C264.267 297.93 263.909 297.783 263.645 297.521C263.381 297.258 263.231 296.902 263.229 296.53V259C263.229 258.815 263.265 258.632 263.336 258.462C263.407 258.291 263.511 258.137 263.642 258.007C263.773 257.876 263.929 257.773 264.1 257.704C264.271 257.634 264.454 257.599 264.639 257.6H302.159ZM302.159 256.83H264.639C264.354 256.83 264.072 256.886 263.808 256.995C263.545 257.104 263.306 257.264 263.104 257.466C262.903 257.667 262.743 257.906 262.634 258.17C262.525 258.433 262.469 258.715 262.469 259V296.53C262.469 297.106 262.697 297.657 263.104 298.064C263.511 298.471 264.063 298.7 264.639 298.7H302.159C302.734 298.7 303.286 298.471 303.693 298.064C304.1 297.657 304.329 297.106 304.329 296.53V259C304.329 258.715 304.273 258.433 304.164 258.17C304.055 257.906 303.895 257.667 303.693 257.466C303.492 257.264 303.252 257.104 302.989 256.995C302.726 256.886 302.444 256.83 302.159 256.83Z" fill="#232440"/>
<path d="M303.567 296.53V288.16C281.897 286.57 269.617 275.97 263.227 267.7V296.53C263.229 296.902 263.379 297.258 263.643 297.521C263.907 297.783 264.264 297.93 264.637 297.93H302.157C302.529 297.93 302.886 297.783 303.15 297.521C303.414 297.258 303.564 296.902 303.567 296.53Z" fill="#D29139"/>
<path opacity="0.2" d="M300.71 258.91H265.9C265.127 258.91 264.5 259.537 264.5 260.31V260.49C264.5 261.263 265.127 261.89 265.9 261.89H300.71C301.483 261.89 302.11 261.263 302.11 260.49V260.31C302.11 259.537 301.483 258.91 300.71 258.91Z" fill="white"/>
<path d="M296.11 280.61V274.92H293.2C292.991 274.175 292.695 273.457 292.32 272.78L294.38 270.72L290.38 266.72L288.32 268.77C287.645 268.399 286.93 268.104 286.19 267.89V265H280.49V267.91C279.75 268.124 279.036 268.419 278.36 268.79L276.3 266.74L272.3 270.74L274.36 272.8C273.985 273.477 273.69 274.195 273.48 274.94H270.57V280.63H273.48C273.688 281.372 273.984 282.087 274.36 282.76L272.3 284.82L276.3 288.82L278.36 286.76C279.034 287.134 279.749 287.43 280.49 287.64V290.56H286.19V287.64C286.932 287.43 287.647 287.134 288.32 286.76L290.38 288.82L294.38 284.82L292.32 282.76C292.697 282.087 292.992 281.372 293.2 280.63L296.11 280.61ZM283.31 283.68C282.139 283.682 280.993 283.336 280.019 282.687C279.044 282.038 278.283 281.114 277.834 280.032C277.384 278.951 277.266 277.76 277.493 276.611C277.72 275.462 278.283 274.406 279.111 273.577C279.938 272.749 280.993 272.184 282.142 271.954C283.29 271.725 284.481 271.842 285.563 272.29C286.646 272.737 287.571 273.496 288.222 274.47C288.873 275.444 289.22 276.589 289.22 277.76C289.222 278.537 289.07 279.307 288.773 280.025C288.477 280.743 288.042 281.396 287.493 281.945C286.944 282.495 286.292 282.932 285.574 283.229C284.857 283.527 284.087 283.68 283.31 283.68Z" fill="white"/>
<path d="M252.519 207.19C252.456 207.199 252.392 207.199 252.329 207.19C252.24 207.153 252.165 207.09 252.111 207.01C252.058 206.93 252.029 206.836 252.029 206.74V194.37H214.459C211.497 194.367 208.658 193.19 206.564 191.095C204.469 189.001 203.292 186.162 203.289 183.2V149.2C203.286 147.731 203.573 146.276 204.133 144.918C204.693 143.56 205.516 142.325 206.553 141.285C207.59 140.245 208.823 139.419 210.179 138.856C211.536 138.292 212.99 138.001 214.459 138H314.539C317.502 138.003 320.342 139.18 322.438 141.274C324.534 143.368 325.714 146.207 325.719 149.17V183.17C325.714 186.133 324.534 188.972 322.438 191.066C320.342 193.16 317.502 194.337 314.539 194.34H265.269L252.869 207C252.782 207.106 252.656 207.175 252.519 207.19Z" fill="white"/>
<path d="M314.537 138.52C317.372 138.52 320.091 139.646 322.096 141.651C324.101 143.656 325.227 146.375 325.227 149.21V183.21C325.227 186.045 324.101 188.764 322.096 190.769C320.091 192.774 317.372 193.9 314.537 193.9H265.067L252.517 206.7V193.89H214.457C211.623 193.887 208.907 192.76 206.904 190.755C204.902 188.751 203.777 186.033 203.777 183.2V149.2C203.777 146.367 204.902 143.649 206.904 141.645C208.907 139.64 211.623 138.513 214.457 138.51H314.537M314.537 137.51H214.457C211.365 137.513 208.401 138.742 206.215 140.928C204.029 143.114 202.8 146.078 202.797 149.17V183.17C202.8 186.262 204.029 189.226 206.215 191.412C208.401 193.598 211.365 194.827 214.457 194.83H251.547V206.7C251.55 206.892 251.608 207.079 251.715 207.238C251.821 207.398 251.971 207.523 252.147 207.6C252.264 207.648 252.39 207.672 252.517 207.67C252.776 207.666 253.023 207.562 253.207 207.38L265.467 194.86H314.537C317.628 194.857 320.593 193.628 322.779 191.442C324.965 189.256 326.194 186.292 326.197 183.2V149.2C326.194 146.108 324.965 143.144 322.779 140.958C320.593 138.772 317.628 137.543 314.537 137.54V137.51Z" fill="#232440"/>
<path d="M232.843 143.38H211.633V168.16H232.843V143.38Z" fill="#798EBE"/>
<path d="M315.918 144.03H240.938V147.92H315.918V144.03Z" fill="#798EBE"/>
<path d="M315.918 151.88H240.938V155.77H315.918V151.88Z" fill="#798EBE"/>
<path d="M315.918 159.73H240.938V163.62H315.918V159.73Z" fill="#798EBE"/>
<path d="M315.918 167.59H240.938V171.48H315.918V167.59Z" fill="#798EBE"/>
<path d="M315.917 175.44H210.977V179.33H315.917V175.44Z" fill="#798EBE"/>
<path d="M315.917 183.3H210.977V187.19H315.917V183.3Z" fill="#798EBE"/>
</g>
<defs>
<clipPath id="clip0_1451_1482">
<rect width="425.2" height="425.2" fill="white"/>
</clipPath>
</defs>
</svg>
