<svg width="425" height="340" viewBox="0 0 425 340" fill="none" xmlns="http://www.w3.org/2000/svg">
<g clip-path="url(#clip0_1451_1640)">
<path opacity="0.4" d="M219.518 325.712C203.928 333.382 185.518 321.132 167.158 321.132C234.578 339.512 301.998 315.002 344.898 265.962C387.798 210.802 393.898 137.262 357.158 75.9619C308.158 2.41191 216.158 -22.1081 136.518 20.8019C87.5176 57.5719 50.7076 112.732 62.9676 174.022C69.0976 223.022 99.7376 265.952 142.638 290.472C228.448 333.372 338.768 290.472 357.158 192.412C369.418 137.252 344.898 82.0919 308.158 45.3119C246.868 -3.68808 148.798 8.54192 105.898 75.9619C87.4576 112.742 75.2176 149.512 81.3476 186.292C69.0976 100.482 136.518 14.6819 222.348 20.8119C265.248 26.9419 308.158 45.3219 332.668 82.1019C363.318 125.002 363.318 180.162 338.798 223.102C308.128 284.352 240.708 308.912 179.458 296.612C130.458 284.352 93.6476 247.612 75.2576 198.552C56.8776 137.262 81.3876 82.1019 124.258 39.1919C185.548 -9.80809 271.348 -3.70808 326.508 51.4519C400.058 131.132 375.508 259.842 277.508 302.742C222.348 321.132 167.188 315.002 118.158 284.352C38.4576 223.062 38.4576 112.742 105.868 39.1919C142.638 2.42191 191.678 -9.80808 240.708 -3.70808C308.128 8.55192 369.418 57.5819 381.708 131.132C393.968 223.062 338.808 296.612 255.708 320.662C240.538 325.182 230.938 326.232 219.518 325.712Z" fill="#FDC705"/>
<path d="M364.022 248.884H253.969V138.836H364.022V248.884ZM255.668 247.185H362.323V140.535H255.668V247.185Z" fill="#D83D0E"/>
<path d="M361.109 201.607C373.042 189.674 373.042 170.327 361.109 158.394C349.176 146.461 329.829 146.461 317.896 158.394C305.963 170.327 305.963 189.674 317.896 201.607C329.829 213.54 349.176 213.54 361.109 201.607Z" fill="#44C9D8"/>
<path d="M287.115 40.2781H224.047V107.16H287.115V40.2781Z" fill="white"/>
<path d="M115.255 247.188C152.36 247.188 182.44 217.108 182.44 180.003C182.44 142.898 152.36 112.818 115.255 112.818C78.15 112.818 48.0703 142.898 48.0703 180.003C48.0703 217.108 78.15 247.188 115.255 247.188Z" fill="white"/>
<path d="M253.295 270.317H177.094L180.994 258.437L189.801 231.606L194.355 217.744H236.054L253.295 270.317Z" fill="url(#paint0_linear_1451_1640)"/>
<path d="M253.295 270.317H177.094L180.994 258.437H242.2L233.612 231.606H189.801L194.355 217.744H236.054L253.295 270.317Z" fill="url(#paint1_linear_1451_1640)"/>
<path d="M336.886 67.8012V213.206C336.888 216.585 335.549 219.827 333.161 222.219C330.774 224.61 327.534 225.955 324.155 225.958H107.275C106.67 225.959 106.065 225.915 105.466 225.827C105.428 225.832 105.39 225.824 105.357 225.805C105.052 225.763 104.748 225.696 104.442 225.631C104.136 225.566 103.83 225.48 103.547 225.392H103.526C103.309 225.327 103.114 225.26 102.895 225.174C102.619 225.083 102.349 224.974 102.088 224.847C101.917 224.776 101.75 224.696 101.588 224.608C101.368 224.498 101.129 224.367 100.911 224.237C100.628 224.084 100.366 223.91 100.104 223.734C99.7784 223.517 99.4712 223.277 99.1668 223.039C98.4321 222.43 97.7737 221.734 97.2059 220.967C96.9878 220.705 96.791 220.422 96.5956 220.139C96.3762 219.789 96.1596 219.42 95.9628 219.049C95.0257 217.244 94.5399 215.239 94.547 213.206V67.8012C94.5473 64.4252 95.8886 61.1876 98.2758 58.8004C100.663 56.4132 103.901 55.0719 107.277 55.0715H324.155C327.53 55.0745 330.766 56.4166 333.153 58.8032C335.54 61.1898 336.882 64.4258 336.886 67.8012Z" fill="url(#paint2_linear_1451_1640)"/>
<path d="M336.884 125.174V213.208C336.887 216.587 335.547 219.829 333.159 222.22C330.772 224.612 327.532 225.957 324.153 225.96H107.273C106.668 225.961 106.063 225.917 105.464 225.828C105.426 225.834 105.388 225.826 105.355 225.807C105.051 225.765 104.746 225.698 104.44 225.633C104.134 225.568 103.829 225.482 103.545 225.394H103.524C103.308 225.329 103.112 225.262 102.893 225.176C102.617 225.085 102.347 224.976 102.086 224.849C101.915 224.778 101.748 224.698 101.586 224.609C101.367 224.5 101.127 224.369 100.909 224.238C100.626 224.086 100.364 223.911 100.102 223.736C99.7766 223.519 99.4693 223.279 99.1649 223.041C98.4303 222.432 97.7719 221.736 97.204 220.969C96.986 220.707 96.7892 220.424 96.5938 220.141C96.3744 219.791 96.1577 219.422 95.9609 219.051C97.0697 216.761 98.477 214.628 100.146 212.708C100.146 212.708 100.125 212.708 100.146 212.687C100.798 211.909 101.491 211.168 102.223 210.465C103.261 209.428 104.352 208.446 105.492 207.523C110.46 203.447 116.587 200.019 123.017 197.188C128.314 194.882 133.744 192.896 139.278 191.241C143.809 189.867 148.084 188.755 151.832 187.884H151.855C159.527 186.096 164.824 185.336 164.824 185.336C175.852 185.141 186.242 184.618 195.993 183.767H196.014C210.968 182.482 224.503 180.477 236.712 177.948C255.673 174.025 271.499 168.816 284.686 162.973C297.915 157.154 308.488 150.702 316.924 144.294C319.059 142.682 321.064 141.068 322.918 139.455C326.125 136.723 329.174 133.812 332.05 130.735V130.714C332.235 130.543 332.41 130.361 332.573 130.17C334.16 128.443 335.597 126.788 336.884 125.174Z" fill="url(#paint3_linear_1451_1640)"/>
<path d="M321.958 65.2768H109.351C108.756 65.2757 108.167 65.3919 107.617 65.6187C107.068 65.8456 106.568 66.1786 106.147 66.5988C105.726 67.019 105.393 67.518 105.165 68.0674C104.937 68.6168 104.82 69.2056 104.82 69.8003V196.348H326.488V69.8003C326.486 68.6 326.008 67.4494 325.159 66.6013C324.309 65.7531 323.158 65.2768 321.958 65.2768Z" fill="#A7D9EA"/>
<path d="M127.924 88.7072L151.349 65.2768H109.348C108.716 65.2778 108.09 65.4126 107.513 65.6722C106.936 65.9318 106.421 66.3104 106 66.7832L127.924 88.7072Z" fill="#FED11C"/>
<path d="M287.115 65.2768H224.047V107.171H287.115V65.2768Z" fill="#44C9D8"/>
<path d="M321.958 65.2768H312.693C310.887 68.3415 309.811 71.7808 309.548 75.3282C309.285 78.8756 309.842 82.436 311.176 85.7336C312.509 89.0312 314.584 91.9775 317.24 94.3444C319.895 96.7112 323.06 98.4351 326.489 99.3825V69.7918C326.485 68.5929 326.005 67.4445 325.156 66.5983C324.307 65.752 323.157 65.2768 321.958 65.2768Z" fill="white"/>
<path d="M143.873 97.9364H147.455V105.047C145.521 106.462 142.566 107.454 140.031 107.454C134.489 107.454 130.281 103.376 130.281 97.9902C130.281 92.6313 134.568 88.5792 140.267 88.5792C142.985 88.5792 145.756 89.6255 147.612 91.299L145.285 94.2524C143.926 92.9782 142.044 92.1867 140.267 92.1867C137.025 92.1867 134.516 94.7225 134.516 97.9916C134.516 101.312 137.052 103.847 140.293 103.847C141.39 103.847 142.699 103.455 143.873 102.828V97.9364Z" fill="white"/>
<path d="M162.308 107.172L159.407 101.944H155.197V107.172H151.07V88.8758H159.017C163.801 88.8758 166.521 91.1751 166.521 95.2272C166.521 98.0504 165.319 100.089 163.096 101.135L166.987 107.172H162.308ZM155.197 98.4935H159.02C161.294 98.4935 162.601 97.4486 162.601 95.356C162.601 93.3173 161.294 92.2979 159.02 92.2979H155.197V98.4935Z" fill="white"/>
<path d="M182.077 103.619H173.608L172.166 107.172H167.906L175.848 88.8758H180.108L187.927 107.172H183.509L182.077 103.619ZM180.743 100.299L177.868 93.1884L174.967 100.299H180.743Z" fill="white"/>
<path d="M204.919 95.2272C204.919 99.4888 202.253 101.945 197.599 101.945H193.97V107.172H189.836V88.8758H197.599C202.253 88.8758 204.919 91.1737 204.919 95.2272ZM200.998 95.3575C200.998 93.3187 199.69 92.2993 197.391 92.2993H193.97V98.4949H197.395C199.69 98.4949 200.998 97.45 200.998 95.3575Z" fill="white"/>
<path d="M211.69 88.8758V96.5085H219.976V88.8758H224.106V107.172H219.976V99.9518H211.69V107.172H207.562V88.8758H211.69Z" fill="white"/>
<path d="M232.263 88.8758V107.172H228.133V88.8758H232.263Z" fill="white"/>
<path d="M244.81 92.1896C241.673 92.1896 239.243 94.6729 239.243 97.9152C239.243 101.157 241.673 103.692 244.81 103.692C246.458 103.692 248.261 102.855 249.568 101.523L251.999 104.163C250.065 106.176 247.267 107.451 244.601 107.451C239.138 107.451 235.008 103.345 235.008 97.9647C235.008 92.6313 239.216 88.5792 244.757 88.5792C247.398 88.5792 250.168 89.7558 251.978 91.6388L249.571 94.5922C248.314 93.1056 246.509 92.1896 244.81 92.1896Z" fill="white"/>
<path d="M148.977 129.399C148.977 134.779 144.977 138.548 139.201 138.548H131.594V120.242H139.357C145.03 120.242 148.977 123.98 148.977 129.399ZM144.768 129.425C144.768 126.053 142.415 123.727 139.279 123.727H135.724V135.062H139.461C142.52 135.062 144.768 132.764 144.768 129.418V129.425Z" fill="white"/>
<path d="M165.628 120.242V123.667H155.827V127.64H164.636V131.065H155.827V135.117H165.916V138.54H151.695V120.242H165.628Z" fill="white"/>
<path d="M175.507 123.452C174.121 123.452 173.181 123.974 173.181 124.994C173.181 128.445 182.93 126.537 182.905 133.205C182.905 136.813 179.79 138.774 175.742 138.774C172.736 138.774 169.729 137.623 167.672 135.846L169.318 132.473C171.2 134.172 173.867 135.244 175.802 135.244C177.5 135.244 178.52 134.59 178.52 133.415C178.52 129.885 168.769 131.951 168.769 125.363C168.769 122.018 171.619 119.899 175.848 119.899C178.409 119.899 180.972 120.711 182.801 121.913L181.207 125.338C179.27 124.16 176.977 123.452 175.507 123.452Z" fill="white"/>
<path d="M189.942 120.242V138.54H185.812V120.242H189.942Z" fill="white"/>
<path d="M206.273 129.311H209.855V136.421C207.92 137.837 204.966 138.828 202.43 138.828C196.889 138.828 192.68 134.75 192.68 129.366C192.68 124.007 196.967 119.955 202.665 119.955C205.384 119.955 208.156 121.001 210.011 122.673L207.685 125.628C206.325 124.354 204.444 123.563 202.665 123.563C199.425 123.563 196.914 126.098 196.914 129.367C196.914 132.688 199.45 135.223 202.692 135.223C203.79 135.223 205.099 134.831 206.273 134.202V129.311Z" fill="white"/>
<path d="M230.042 120.242V138.54H226.278L217.416 126.778V138.54H213.469V120.242H217.233L226.121 132.059V120.242H230.042Z" fill="white"/>
<path d="M268.181 282.863V283.059H161.898C161.941 281.643 162.051 280.335 162.203 279.094C162.618 275.475 163.467 272.582 164.536 270.223C168.285 261.852 174.671 260.567 174.671 260.567H255.406C255.406 260.567 266.525 262.811 268.027 280.51C268.093 281.249 268.139 282.035 268.181 282.863Z" fill="url(#paint4_linear_1451_1640)"/>
<path d="M237.075 210.746C237.076 211.232 236.98 211.714 236.794 212.164C236.608 212.614 236.335 213.022 235.991 213.367C235.647 213.711 235.238 213.984 234.789 214.17C234.339 214.356 233.857 214.451 233.37 214.451H198.058C197.384 214.452 196.723 214.267 196.146 213.918C195.57 213.568 195.1 213.067 194.789 212.469C194.499 211.941 194.349 211.349 194.352 210.747C194.356 209.768 194.748 208.83 195.443 208.14C196.138 207.45 197.079 207.063 198.058 207.066H233.37C234.166 207.058 234.941 207.319 235.57 207.806C236.036 208.142 236.416 208.583 236.678 209.094C236.939 209.606 237.076 210.172 237.075 210.746Z" fill="url(#paint5_linear_1451_1640)"/>
<path style="mix-blend-mode:multiply" d="M235.985 209.483C235.985 209.969 235.89 210.451 235.704 210.901C235.517 211.351 235.245 211.759 234.9 212.103C234.556 212.447 234.148 212.72 233.698 212.906C233.249 213.092 232.767 213.188 232.28 213.188H196.968C196.183 213.193 195.417 212.941 194.789 212.469C194.499 211.941 194.349 211.349 194.352 210.747C194.356 209.768 194.748 208.83 195.443 208.14C196.138 207.45 197.079 207.063 198.058 207.066H233.37C234.166 207.058 234.941 207.319 235.57 207.806C235.843 208.323 235.985 208.899 235.985 209.483Z" fill="url(#paint6_linear_1451_1640)"/>
<path d="M191.16 233.066L183.711 256.681H191.16L196.789 233.066H191.16Z" fill="url(#paint7_linear_1451_1640)"/>
<path d="M268.178 282.861V283.056H222.25C237.531 283.056 242.496 276.779 243.589 270.327C244.201 266.775 243.613 263.18 242.937 260.558H255.396C255.396 260.558 266.514 262.802 268.016 280.501C268.09 281.247 268.135 282.033 268.178 282.861Z" fill="url(#paint8_linear_1451_1640)"/>
<path opacity="0.5" d="M237.08 262.402H175.51C175.51 262.402 167.487 264.718 164.945 278.887C164.945 278.887 169.626 265.673 176.98 264.445L237.08 262.402Z" fill="white"/>
<g style="mix-blend-mode:multiply" opacity="0.8">
<path d="M216.645 148.803C216.645 148.803 140.426 157.515 104.828 184.246V196.344H326.489V119.881C304.065 129.384 264.776 143.3 216.645 148.803Z" fill="#F2F2F2"/>
</g>
<path d="M205.088 196.342C202.295 179.958 188.038 167.478 170.857 167.478C153.676 167.478 139.425 179.954 136.625 196.338L205.088 196.342Z" fill="#F6538C"/>
<path d="M270.963 154.268H115.836V76.6129H270.963V154.268ZM116.685 153.418H270.114V77.4623H116.685V153.418Z" fill="white"/>
<path d="M272.964 77.5682C273.259 76.2201 272.406 74.8877 271.058 74.5923C269.71 74.2969 268.377 75.1503 268.082 76.4984C267.786 77.8465 268.64 79.1789 269.988 79.4743C271.336 79.7697 272.668 78.9163 272.964 77.5682Z" fill="white"/>
<path d="M118.035 78.8155C119.011 77.8396 119.011 76.2574 118.035 75.2815C117.059 74.3056 115.477 74.3056 114.501 75.2815C113.525 76.2574 113.525 77.8396 114.501 78.8155C115.477 79.7914 117.059 79.7914 118.035 78.8155Z" fill="white"/>
<path d="M272.174 155.777C273.222 154.878 273.342 153.301 272.444 152.253C271.545 151.206 269.967 151.085 268.92 151.984C267.873 152.883 267.752 154.46 268.651 155.508C269.549 156.555 271.127 156.676 272.174 155.777Z" fill="white"/>
<path d="M118.696 154.413C119.013 153.069 118.181 151.723 116.838 151.406C115.495 151.089 114.149 151.921 113.832 153.265C113.515 154.608 114.347 155.954 115.69 156.271C117.033 156.588 118.379 155.756 118.696 154.413Z" fill="white"/>
<g style="mix-blend-mode:multiply">
<path d="M326.185 217.574C325.549 217.264 324.861 217.072 324.156 217.007C322.262 216.724 319.885 216.921 317.704 217.225L318.054 218.641V218.662L318.425 220.255L318.511 220.667L318.62 221.103C319.719 222.543 320.717 224.057 321.606 225.634H305.041C305.02 225.589 304.997 225.546 304.976 225.502C304.389 224.37 303.886 223.322 303.45 222.342L303.079 222.734L300.596 225.219L300.529 225.634H284.576L285.49 221.143L285.578 220.663L285.795 219.618L285.97 218.725C285.554 218.57 285.337 218.463 285.337 218.463C283.049 214.756 285.184 205.252 287.845 196.862C289.085 192.897 290.458 189.145 291.506 186.399V186.377C291.854 183.805 292.268 183.413 292.292 183.413C291.332 176.22 285.121 168.94 285.121 168.94C284.117 167.807 283.461 166.498 283.637 164.976C283.752 164.317 283.997 163.688 284.356 163.124C284.452 162.955 284.561 162.795 284.683 162.644C284.733 162.551 284.792 162.463 284.859 162.382C282.026 160.345 279.384 158.054 276.967 155.538C276.357 154.928 275.769 154.319 275.2 153.686C275.092 153.576 274.526 153.097 274.526 152.922C274.591 152.181 274.679 151.528 274.788 150.874C274.417 150.676 274.069 150.526 273.677 150.308C269.79 147.965 266.61 144.614 264.474 140.61C264.41 140.499 264.344 140.369 264.278 140.239C264.278 140.239 259.221 129.491 259.2 129.491C259.179 129.405 258.676 129.341 258.612 129.317C258.091 129.166 257.589 128.954 257.117 128.687C255.832 127.966 254.437 126.9 253.825 125.549C253.542 124.983 253.456 124.35 253.368 123.717C253.282 122.998 253.215 122.214 253.651 121.581C253.802 121.339 253.986 121.12 254.196 120.928C254.325 120.821 254.464 120.726 254.611 120.645C254.72 120.579 255.003 120.512 255.09 120.426C255.09 120.426 256.463 118.836 257.225 118.878C257.225 118.878 257.075 117.55 256.725 116.655C256.725 116.655 254.699 112.164 255.788 110.923C255.788 110.923 257.204 108.374 258.643 112.363C258.643 112.363 260.386 117.459 261.979 119.859C261.979 119.859 264.048 121.885 263.003 127.271C263.003 127.271 266.314 131.019 269.3 134.18C270.698 135.64 272.005 136.971 272.898 137.754C274.359 139.039 275.231 140.806 276.8 142.027C277.171 142.354 277.628 142.593 278.043 142.876C278.826 141.938 279.438 141.589 279.438 141.589C279.937 142.266 286.517 146.014 286.517 146.014C287.837 146.773 289.111 147.611 290.332 148.521C290.332 147.693 290.311 146.604 290.223 145.535C290.199 145.295 290.178 145.078 290.157 144.858C290.136 144.881 290.114 144.881 290.114 144.902C289.024 145.49 287.869 145.535 286.93 144.642C286.147 143.879 285.755 142.592 285.428 141.589C285.407 141.502 285.187 141.393 285.145 141.329C284.665 140.869 284.055 140.564 283.597 140.107C283.116 139.628 283.378 139.062 283.771 138.581C284.396 137.79 284.713 136.8 284.665 135.793C284.665 135.793 283.771 131.97 283.771 130.343C283.771 130.212 283.793 130.103 283.793 130.015C283.302 129.283 282.906 128.492 282.615 127.66C281.874 125.591 282.113 123.28 285.428 121.95C285.733 121.816 286.045 121.699 286.364 121.601C289.242 120.535 298.135 117.853 302.691 122.387C302.952 122.635 303.193 122.905 303.41 123.194C304.076 124.625 304.531 126.144 304.761 127.706C305.024 129.412 304.995 131.151 304.675 132.848C304.5 133.676 304.629 134.657 304.87 135.486C305.153 136.467 305.677 137.295 306.33 138.102C306.374 138.179 306.425 138.252 306.484 138.319C307.355 139.388 308.51 140.239 309.732 140.914C310.566 141.395 311.441 141.803 312.345 142.133C313.502 142.57 314.658 142.898 315.769 143.376C316.117 143.552 316.467 143.705 316.793 143.9L316.924 143.966C317.606 144.298 318.268 144.669 318.906 145.078C320.475 146.08 321.957 147.343 322.917 148.957C323.048 149.175 323.155 149.392 323.266 149.611C323.911 150.928 324.176 152.4 324.029 153.859C323.974 154.667 323.79 155.462 323.484 156.212C323.308 156.606 323.134 157.018 322.917 157.413C322.286 158.678 321.527 159.875 320.652 160.986C319.692 162.205 318.514 163.274 317.295 164.255C317.207 164.335 317.112 164.408 317.012 164.473L319.126 163.972L319.147 164.255L320.369 163.972L320.695 167.459V167.482L321.892 179.884H320.631L320.652 180.124H318.929C318.908 180.342 318.885 180.561 318.864 180.732C318.783 181.222 318.659 181.704 318.493 182.172C316.967 185.594 313.719 184.089 311.06 181.956C310.886 181.823 310.712 181.65 310.536 181.497V182.958C311.496 184.571 311.538 185.399 311.538 185.399V185.42C311.737 185.682 311.955 185.923 312.171 186.182C312.695 186.88 313.219 187.579 313.719 188.275C313.719 188.275 313.719 188.299 313.764 188.341C315.314 190.52 316.733 192.789 318.012 195.137C322.958 204.096 325.116 212.467 325.858 215.911C326.097 216.986 326.185 217.574 326.185 217.574Z" fill="#E6E6E6"/>
</g>
<path d="M327.175 176.375C327.094 176.895 326.963 177.406 326.784 177.901C325.194 181.565 321.77 179.951 318.98 177.684C317.975 176.864 317.022 175.983 316.126 175.047C315.297 174.174 314.773 173.542 314.773 173.542L315.797 171.69L316.954 169.749L319.808 168.377L326.522 171.625C326.907 172.302 327.152 173.051 327.241 173.825C327.365 174.672 327.342 175.535 327.175 176.375Z" fill="url(#paint9_linear_1451_1640)"/>
<path d="M327.174 176.374L319.175 176.091L318.979 177.684C317.975 176.864 317.022 175.983 316.125 175.046L316.646 172.474L327.241 173.824C327.364 174.672 327.342 175.534 327.174 176.374Z" fill="url(#paint10_linear_1451_1640)"/>
<path d="M290.888 139.191L287.336 146.886C287.336 146.886 286.072 146.71 284.153 146.012C282.584 145.446 281.073 144.731 279.641 143.877C276.305 141.848 272.535 138.536 269.744 133.129C269.744 133.129 264.425 121.644 264.404 121.644C264.383 121.556 263.859 121.49 263.792 121.469C263.239 121.303 262.706 121.076 262.202 120.792C260.852 120.03 259.39 118.875 258.738 117.435C258.455 116.826 258.344 116.149 258.256 115.476C258.171 114.711 258.105 113.883 258.564 113.21C258.716 112.95 258.907 112.714 259.13 112.511C259.284 112.403 259.413 112.294 259.567 112.206C259.696 112.141 259.979 112.075 260.067 111.967C260.067 111.967 261.527 110.268 262.333 110.311C262.333 110.311 262.158 108.895 261.787 107.956C261.787 107.956 259.652 103.161 260.809 101.833C260.809 101.833 262.311 99.1072 263.816 103.356C263.816 103.356 265.647 108.806 267.325 111.378C267.325 111.378 269.504 113.536 268.392 119.27C268.392 119.27 275.848 127.878 278.813 130.473C280.36 131.845 281.275 133.742 282.91 135.049C284.196 136.076 285.722 136.881 287.182 137.598C288.383 138.205 289.621 138.736 290.888 139.191Z" fill="url(#paint11_linear_1451_1640)"/>
<path d="M284.153 138.892V146.018C282.584 145.452 281.073 144.737 279.641 143.883C281.253 139.042 283.759 136.537 283.759 136.537L284.153 138.892Z" fill="url(#paint12_linear_1451_1640)"/>
<path d="M307.381 148.524L303.417 150.072L297.793 150.485L294.829 147.914L294.762 147.848L294.305 147.455L295.636 145.713L297.141 143.73C297.141 143.73 297.162 143.011 297.162 141.988C297.162 141.093 297.141 139.937 297.053 138.782C296.987 137.909 296.856 137.042 296.659 136.188C296.597 135.853 296.502 135.524 296.376 135.207L298.862 132.068L303.55 129.104L307.034 138.039L307.381 148.524Z" fill="url(#paint13_linear_1451_1640)"/>
<path style="mix-blend-mode:multiply" d="M306.163 141.108L302.24 146.886L294.828 147.909L294.719 147.931L294.761 147.843L295.635 145.708L297.14 143.726C297.14 143.726 297.161 143.006 297.161 141.983L298.577 142.416L298.951 137.121C298.643 137.84 297.662 138.452 297.053 138.777C296.988 137.904 296.856 137.037 296.66 136.183L297.029 135.334L300.453 133.961L303.243 136.011L306.163 141.108Z" fill="url(#paint14_linear_1451_1640)"/>
<path d="M344.354 261.099L342.785 270.019L339.843 266.423C336.071 256.178 328.092 247.417 328.092 247.417C320.376 238.087 315.557 230.152 312.574 224.18C311.395 221.882 310.346 219.518 309.434 217.101C308.279 214.006 307.953 212.306 307.953 212.306L309.761 203.914L323.645 205.657L324.976 211.237L326.326 216.882L326.718 218.581L326.938 219.476C332.67 227.06 334.849 236.106 334.849 236.106C338.274 249.003 344.354 261.099 344.354 261.099Z" fill="url(#paint15_linear_1451_1640)"/>
<path d="M349.956 264.054C349.956 264.054 349.673 266.946 348.04 266.454L347.863 266.277L347.849 266.26L347.689 266.119C347.893 268.448 347.691 270.796 347.092 273.056C347.094 273.12 347.089 273.185 347.076 273.247C346.915 273.79 346.726 274.333 346.51 274.891C346.51 274.91 346.493 274.925 346.48 274.952C345.05 278.545 342.269 282.072 336.891 282.9L336.906 282.888C337.112 282.394 341.526 272.144 338.704 263.609C338.704 263.609 338.513 259.522 342.952 258.148C342.953 258.151 347.121 260.962 349.956 264.054Z" fill="url(#paint16_linear_1451_1640)"/>
<path d="M347.092 273.065C347.094 273.129 347.089 273.193 347.076 273.256C346.915 273.798 346.726 274.342 346.51 274.9C346.51 274.918 346.493 274.934 346.48 274.961C345.05 278.554 342.269 282.081 336.891 282.909L336.906 282.897C344.069 279.289 345.571 264.034 345.571 264.034L347.695 266.125C347.897 268.456 347.693 270.804 347.092 273.065Z" fill="url(#paint17_linear_1451_1640)"/>
<path style="mix-blend-mode:multiply" d="M326.33 216.878C325.76 216.889 325.193 216.941 324.631 217.03C317.002 219.951 313.994 219.494 313.994 219.494C312.751 220.78 312.513 222.654 312.578 224.18C311.398 221.882 310.35 219.518 309.438 217.101L311.878 215.271L315.302 212.675L322.037 211.39L324.979 211.237L326.33 216.878Z" fill="url(#paint18_linear_1451_1640)"/>
<path d="M321.03 210.504L315.711 215.933L310.566 221.207L308.41 223.403L307.953 223.86C307.953 223.86 306.6 232.907 299.537 243.681C299.537 243.681 290.382 259.461 292.758 271.842L292.868 274.022L291.123 275.939L285.996 278.227L278.039 279.926C278.039 279.926 284.099 274.934 285.887 270.007C285.887 270.007 285.996 248.865 288.808 235.7L292.056 219.503L294.017 209.695L295.631 201.653L300.862 203.898L309.385 210.022L314.856 210.567L321.03 210.504Z" fill="url(#paint19_linear_1451_1640)"/>
<path d="M293.189 271.881C292.229 269.94 290.138 272.023 289.178 272.856C288.636 273.328 288.09 273.79 287.541 274.243C286.577 275.038 285.593 275.808 284.561 276.508C282.873 277.641 281.065 278.574 279.25 279.447C278.906 279.614 278.56 279.771 278.209 279.919L271.391 283.91C272.942 284.802 274.62 285.453 276.367 285.842C284.89 287.738 290.831 281.721 290.831 281.721V285.378H294.371C294.871 283.262 295.046 281.081 294.888 278.912C294.756 276.976 294.365 275.066 293.725 273.235C293.574 272.773 293.395 272.321 293.189 271.881Z" fill="url(#paint20_linear_1451_1640)"/>
<path d="M290.831 279.911V281.714C290.831 281.714 284.885 287.731 276.367 285.835C284.446 286.39 290.831 279.911 290.831 279.911Z" fill="url(#paint21_linear_1451_1640)"/>
<path d="M315.712 215.941L310.567 221.215C305.816 221.718 298.383 221.892 292.062 219.516L294.023 209.708L315.712 215.941Z" fill="url(#paint22_linear_1451_1640)"/>
<path d="M314.555 161.8L328.771 158.477L330.37 175.449H313.844L310.289 164.235L314.555 161.8Z" fill="url(#paint23_linear_1451_1640)"/>
<path d="M329.075 175.719H312.552L309 164.32L313.25 161.857L317.219 160.918L319.071 160.482L327.461 158.477L328.683 171.579L329.075 175.719Z" fill="url(#paint24_linear_1451_1640)"/>
<path style="mix-blend-mode:multiply" opacity="0.4" d="M329.074 175.724H314.273L314.776 168.029L316.52 163.756L317.218 160.925L319.07 160.489L319.485 160.663C319.485 160.663 318.612 173.417 328.688 171.586L329.074 175.724Z" fill="url(#paint25_linear_1451_1640)"/>
<path d="M334.892 215.698C330.729 213.563 319.484 216.658 319.484 216.658C312.944 218.663 307.342 219.12 302.919 218.923C295.902 218.619 291.912 216.658 291.912 216.658C288.36 210.816 294.942 191.57 298.409 182.415C299.542 179.406 300.347 177.489 300.347 177.489L301.416 172.868L310.485 168.247L316.148 177.489C316.934 178.318 317.674 179.144 318.371 179.994C318.981 180.713 319.57 181.455 320.136 182.196C320.703 182.936 321.248 183.679 321.772 184.42C321.772 184.42 321.772 184.441 321.814 184.486C332.342 199.437 334.892 215.698 334.892 215.698Z" fill="url(#paint26_linear_1451_1640)"/>
<path d="M318.42 180.05C308.961 186.152 299.327 180.05 299.327 180.05C298.738 172.121 291.674 163.768 291.674 163.768C290.629 162.567 289.931 161.151 290.127 159.539C290.214 158.863 290.52 158.186 290.891 157.556C291.37 156.707 292.003 155.901 292.46 155.161C292.722 154.745 292.984 154.333 293.222 153.918C294.51 151.869 295.75 149.776 297.015 147.688L309.855 148.974L319.031 151.633C318.35 159.887 318.42 180.05 318.42 180.05Z" fill="url(#paint27_linear_1451_1640)"/>
<path style="mix-blend-mode:multiply" d="M301.218 156.834C301.218 156.834 296.901 162.436 290.883 157.574C291.361 156.725 291.994 155.919 292.452 155.179C292.713 154.762 292.975 154.35 293.213 153.935L296.57 154.655L301.218 156.834Z" fill="url(#paint28_linear_1451_1640)"/>
<path d="M303.449 147.281C303.449 147.281 303.131 146.972 302.579 146.47C302.557 146.385 302.541 146.304 302.516 146.213L302.278 146.196C300.451 144.545 296.756 141.374 293.141 139.283C293.141 139.283 286.204 135.286 285.679 134.572C285.679 134.572 281.324 137.151 280.524 146.661C280.511 146.828 281.125 147.369 281.232 147.479C281.842 148.152 282.468 148.816 283.1 149.471C285.748 152.229 288.58 154.779 291.693 157.003C293.058 157.977 294.356 159.058 296.127 159.041C297.849 159.015 299.504 158.375 300.794 157.236C302.085 156.097 302.925 154.534 303.164 152.829C303.255 152.093 303.274 151.348 303.219 150.608C303.189 150.186 303.149 149.764 303.1 149.341C303.078 149.121 302.817 148.173 302.935 148.017C303.119 147.781 303.291 147.535 303.449 147.281Z" fill="url(#paint29_linear_1451_1640)"/>
<path style="mix-blend-mode:multiply" d="M334.895 215.7C330.733 213.564 319.487 216.659 319.487 216.659C312.947 218.664 307.345 219.122 302.922 218.925C308.393 217.289 313.93 214.977 313.93 214.977C321.434 211.034 329.079 210.359 329.079 210.359C329.886 201.421 322.323 185.582 321.82 184.486C332.345 199.439 334.895 215.7 334.895 215.7Z" fill="url(#paint30_linear_1451_1640)"/>
<path style="mix-blend-mode:multiply" d="M320.136 182.202C311.198 188.676 298.406 182.421 298.406 182.421L299.583 181.136L307.298 181.593L314.775 181.003L318.371 180C318.985 180.719 319.57 181.461 320.136 182.202Z" fill="url(#paint31_linear_1451_1640)"/>
<path style="mix-blend-mode:multiply" d="M299.538 144.416C299.538 144.416 298.123 154.769 304.558 156.745L318.585 161.7L318.594 161.417L319.615 159.043L309.512 146.885L299.538 144.416Z" fill="url(#paint32_linear_1451_1640)"/>
<path d="M332.626 147.662C332.558 148.529 332.36 149.382 332.039 150.19C331.288 152.011 330.29 153.72 329.074 155.269C328.05 156.576 326.809 157.732 325.522 158.779C324.365 159.716 323.079 160.718 321.706 161.327C320.944 161.653 319.963 161.806 319.158 161.61C318.373 161.415 317.719 160.912 317.044 160.5C315.19 159.344 312.989 158.603 310.942 157.926C309.829 157.58 308.739 157.251 307.627 156.924C305.469 156.291 303.18 155.529 301.539 153.894C301.298 153.655 301.082 153.416 300.864 153.154C299.919 151.933 299.256 150.519 298.923 149.012C298.618 147.725 298.402 146.113 298.552 144.785C298.552 144.785 298.618 144.219 298.706 143.301C298.859 142.037 299.054 140.118 299.25 138.092C299.404 136.262 299.556 134.364 299.621 132.817C299.664 131.982 299.664 131.145 299.621 130.309L298.356 132.664L296.243 134.561L293.669 130.921L291.992 124.448C291.992 124.448 289.878 122.224 289.019 119.695C288.257 117.472 288.498 115.01 291.992 113.591C291.992 113.591 292.34 113.44 292.973 113.221C296.002 112.088 305.375 109.211 310.17 114.049C310.44 114.32 310.687 114.612 310.91 114.922C311.607 116.452 312.084 118.073 312.326 119.736C312.611 121.558 312.582 123.416 312.238 125.228C312.064 126.123 312.195 127.147 312.455 128.04C312.738 129.088 313.305 129.981 313.981 130.831C314.033 130.916 314.092 130.996 314.157 131.071C315.071 132.204 316.271 133.118 317.555 133.838C318.438 134.353 319.364 134.792 320.323 135.147C321.521 135.605 322.742 135.952 323.919 136.475C324.29 136.65 324.64 136.825 324.986 137.02C325.751 137.4 326.494 137.822 327.211 138.285C329.084 139.484 330.851 141.075 331.808 143.124C332.484 144.535 332.767 146.103 332.626 147.662Z" fill="url(#paint33_linear_1451_1640)"/>
<path style="mix-blend-mode:multiply" d="M299.227 179.214C299.227 179.214 307.382 182.241 318.422 178.74L317.986 179.993L315.398 181.163L311.548 182.154L307.053 182.358L304.561 182.173L302.081 181.338L300.957 180.826L300.208 180.543L299.409 179.808L299.227 179.214Z" fill="url(#paint34_linear_1451_1640)"/>
<path d="M299.227 179.214C299.227 179.214 298.788 179.555 298.414 182.405C298.414 182.405 312.148 187.584 319.483 181.355C319.483 181.355 319.438 180.457 318.422 178.74C318.422 178.74 308.597 183.003 299.227 179.214Z" fill="url(#paint35_linear_1451_1640)"/>
<path opacity="0.4" d="M324.859 159.776L326.902 159.367L327.891 169.959L326.221 160.286L324.859 159.776Z" fill="white"/>
<path d="M308.412 223.4L307.955 223.857C307.955 223.857 307.322 222.658 305.664 222.355C306.169 222.33 306.675 222.41 307.148 222.589C307.621 222.769 308.051 223.045 308.412 223.4Z" fill="url(#paint36_linear_1451_1640)"/>
<path d="M326.935 219.462C326.935 219.462 325.519 218.808 322.75 218.96C324.024 218.529 325.38 218.395 326.714 218.568L326.935 219.462Z" fill="url(#paint37_linear_1451_1640)"/>
<path d="M312.33 119.744C310.216 118.763 302.171 115.798 289.027 119.7C288.265 117.477 288.506 115.015 292 113.597C292 113.597 292.348 113.445 292.981 113.226C296.621 114.666 303.443 116.584 310.178 114.054C310.448 114.325 310.695 114.617 310.918 114.928C311.614 116.458 312.089 118.08 312.33 119.744Z" fill="url(#paint38_linear_1451_1640)"/>
<path d="M317.569 133.847C313.056 134.654 304.097 136.377 299.258 138.094C299.412 136.264 299.564 134.367 299.629 132.819C302.354 133.299 310.44 134.367 313.992 130.837C314.044 130.922 314.102 131.003 314.168 131.078C315.078 132.213 316.277 133.128 317.569 133.847Z" fill="url(#paint39_linear_1451_1640)"/>
<path d="M300.084 133.659C300.042 133.681 300.084 133.964 300.084 134.183C300.099 134.27 300.106 134.357 300.106 134.445C300.057 134.656 299.984 134.86 299.889 135.054C299.585 135.62 299.124 136.081 298.712 136.559C298.211 137.175 297.606 137.699 296.924 138.107C295.792 138.742 294.571 138.783 293.593 137.833C292.762 137.028 292.337 135.647 291.999 134.577C291.977 134.489 291.758 134.359 291.694 134.294C291.192 133.814 290.562 133.487 290.08 133.008C289.578 132.484 289.839 131.876 290.254 131.373C290.919 130.524 291.252 129.463 291.192 128.387C291.192 128.387 290.123 123.678 290.276 122.218L290.516 120.845C290.516 120.845 292.041 122.98 295.551 123.94L295.66 124.747L296.662 132.18C296.662 132.18 296.706 125.292 299.279 124.9C299.279 124.9 301.72 124.355 301.415 129.825C301.415 129.828 301.066 132.81 300.084 133.659Z" fill="url(#paint40_linear_1451_1640)"/>
<path d="M295.658 124.745C292.387 124.462 290.644 121.631 290.644 121.631L290.273 122.218L290.514 120.845C290.514 120.845 292.039 122.98 295.549 123.94L295.658 124.745Z" fill="url(#paint41_linear_1451_1640)"/>
<path d="M300.084 134.179C298.819 134.55 298.209 133.829 298.102 133.676C298.974 134.309 300.084 133.655 300.084 133.655C300.041 133.676 300.084 133.959 300.084 134.179Z" fill="url(#paint42_linear_1451_1640)"/>
<path d="M332.623 147.666C332.123 147.274 323.927 140.976 311.527 147.688C311.527 147.688 306.035 151.699 300.869 153.159C299.924 151.939 299.261 150.525 298.928 149.018C298.623 147.731 298.407 146.118 298.557 144.79C298.557 144.79 298.623 144.224 298.711 143.306C300.433 144.507 304.268 146.009 310.677 142.631C310.677 142.631 317.434 138.597 324.997 137.029C325.762 137.408 326.504 137.83 327.221 138.293C329.094 139.492 330.861 141.084 331.818 143.132C332.489 144.544 332.767 146.11 332.623 147.666Z" fill="url(#paint43_linear_1451_1640)"/>
<g style="mix-blend-mode:multiply">
<path d="M216.74 119.591L216.304 119.527H216.283C216.042 119.503 215.78 119.482 215.563 119.461C215.091 119.432 214.617 119.446 214.148 119.503C212.491 119.656 210.891 120.201 209.7 120.702L209.396 120.157L201.918 120.855L188.142 122.169C187.996 122.136 187.843 122.151 187.706 122.212L143.088 146.778L141.975 147.386C139.531 146.047 137.192 144.524 134.978 142.832C131.815 140.473 129.549 138.424 129.549 138.424C128.857 137.689 128.028 137.096 127.107 136.68C125.718 136.042 124.181 135.793 122.662 135.959H121.309C120.24 135.959 119.259 135.959 118.345 135.983C117.08 134.957 115.25 134.107 112.591 133.738C112.524 133.388 112.461 133.04 112.417 132.69C113.136 132.56 113.985 132.321 114.421 131.798C116.36 129.336 114.791 125.002 114.791 125.002L110.89 117.045L110.324 115.913L114.421 112.315L109.932 113.077L109.475 113.165C113.051 108.235 112.289 104.188 112.289 104.188C111.417 106.128 109.891 107.632 108.539 108.678C107.682 109.353 106.762 109.944 105.792 110.442C107.144 109.049 108.016 107.371 108.539 106.083C108.795 105.482 109.006 104.863 109.17 104.231C108.975 104.444 108.764 104.641 108.539 104.821C107.842 105.342 106.882 105.845 105.88 106.302C102.851 107.602 99.1447 108.436 99.1447 108.436C96.66 109.331 95.2852 110.814 94.5447 112.274V129.122C94.9929 129.284 95.4518 129.415 95.9181 129.513C95.7666 131.934 97.576 132.696 99.5808 133.046C99.6233 133.068 99.6898 133.068 99.7323 133.089H99.7776C100.933 133.264 103.047 133.526 103.613 132.282C103.699 132.762 103.766 133.264 103.83 133.765C103.922 134.495 103.973 135.229 103.983 135.965C102.873 137.122 100.43 139.929 100.43 142.336V142.4L99.9517 142.859L99.5808 143.207L99.4944 143.295C97.4656 145.474 95.9549 147.916 94.5391 150.445V200.272L99.5808 197.491L101.15 196.619L101.87 196.227C102.521 196.519 103.19 196.767 103.875 196.967C104.266 197.087 104.667 197.175 105.073 197.229C105.444 197.274 105.771 197.274 106.142 197.296L105.925 200.631L105.488 207.191L104.986 214.775L104.661 219.942L104.42 223.494C104.42 223.494 104.092 224.039 103.525 225.065H103.547C103.83 225.153 104.137 225.24 104.441 225.303C104.746 225.367 105.052 225.436 105.356 225.479C105.389 225.498 105.427 225.505 105.465 225.5C106.064 225.588 106.669 225.632 107.274 225.632H123.037C123.624 224.346 124.039 222.973 124.453 221.642C124.477 221.587 124.491 221.528 124.495 221.468C124.624 221.032 124.736 220.596 124.843 220.161C125.169 218.786 125.41 217.413 125.628 215.997C125.888 214.101 126.217 212.247 126.609 210.395L131.139 217.37L133.626 221.163L133.821 221.468L136.546 225.632H152.174C152.153 224.978 152.13 224.629 152.13 224.629C150.91 216.498 146.326 205.557 142.22 196.859C141.413 195.16 140.606 193.546 139.865 192.063C139.649 191.672 139.452 191.28 139.278 190.909C138.884 190.167 138.537 189.47 138.187 188.815C139.238 188.063 140.237 187.241 141.175 186.353C139.476 184.26 137.882 181.731 136.503 179.073C136.241 178.593 136.003 178.07 135.762 177.569L165.755 161.069L166.694 160.545C168.786 160.915 170.55 160.915 172.055 160.61H172.076C178.703 159.388 180.097 153.156 180.097 153.156L199.41 142.52L212.436 125.474L212.11 124.907C213.754 123.799 215.954 121.924 216.74 119.591ZM100.539 170.181L100.321 170.29L100.277 170.335L99.5808 170.705L99.1008 170.967C98.4043 169.834 97.9682 169.092 97.9682 169.092C98.3802 168.743 98.8177 168.351 99.2538 167.96L99.5157 167.698L99.5808 167.652L100.476 167.174L100.647 167.086C100.713 167.61 100.822 168.155 100.888 168.679C100.933 169.092 100.975 169.507 101.021 169.921L100.539 170.181Z" fill="#E6E6E6"/>
</g>
<path d="M208.917 115.958C207.823 119.27 204.074 121.738 202.661 122.536C202.339 122.742 202.136 122.855 202.136 122.855L200.832 120.526L199.85 118.79L199.508 118.198C199.508 118.198 202.776 116.188 206.222 115.844C206.715 115.783 207.212 115.768 207.708 115.801L208.437 115.866H208.459C208.621 115.89 208.759 115.936 208.917 115.958Z" fill="url(#paint44_linear_1451_1640)"/>
<path d="M208.919 115.951C207.825 119.262 204.076 121.73 202.663 122.529L202 120.861L208.919 115.951Z" fill="url(#paint45_linear_1451_1640)"/>
<path opacity="0.5" d="M208.437 115.866C208.048 115.913 204.074 116.484 199.85 118.79L199.508 118.198C199.508 118.198 202.776 116.188 206.222 115.844C206.715 115.783 207.212 115.768 207.708 115.801L208.437 115.866Z" fill="white"/>
<path d="M204.463 122.193L190.921 140.324L180.849 138.885L181.262 132.743L178.34 134.432L178.408 134.274L179.778 130.687L174.773 128.108L178.772 118.721L201.29 116.553L202.776 119.199L204.463 122.193Z" fill="url(#paint46_linear_1451_1640)"/>
<path style="mix-blend-mode:multiply" d="M204.467 122.188L190.925 140.319L180.853 138.881L181.266 132.739L178.344 134.428L178.412 134.269L202.779 119.195L204.467 122.188Z" fill="url(#paint47_linear_1451_1640)"/>
<path d="M180.266 119.966L201.452 116.831L202.003 117.813L182.692 123.927L180.266 119.966Z" fill="white"/>
<path d="M79.8442 200.574L61.5532 210.895L57.7617 213.019L55.4963 214.275L52.0248 216.237C50.9516 216.857 48.236 214.136 45.6536 210.007C45.3534 209.503 45.0363 209.002 44.7375 208.45C43.8044 206.817 43.0033 205.113 42.342 203.353C41.9932 202.45 41.7251 201.517 41.5406 200.567C41.2914 199.309 41.3834 198.443 41.862 198.168L45.3322 196.227L47.5975 194.953L47.8948 194.796L51.6623 192.672L69.6814 182.512L79.8442 200.574Z" fill="url(#paint48_linear_1451_1640)"/>
<path d="M61.5559 210.891L57.7643 213.015L55.499 214.271L52.0274 216.233C50.9542 216.853 48.2387 214.132 45.6562 210.003L52.9874 205.8C49.7409 201.715 48.3718 196.872 47.8904 194.795L51.6579 192.671L52.7311 194.865L56.2126 203.081L61.5559 210.891Z" fill="url(#paint49_linear_1451_1640)"/>
<path d="M82.635 266.193C82.635 266.193 79.121 266.631 77.4531 279.352C77.4531 279.352 77.4531 284.438 80.5977 284.789L87.7249 284.256L96.6049 284.789C96.6049 284.789 92.533 276.546 90.1275 267.95L88.648 267.07L82.635 266.193Z" fill="url(#paint50_linear_1451_1640)"/>
<path d="M93.3683 260.983L91.3352 265.482L90.1686 268.086C85.3548 271.144 82.4297 266.281 82.4297 266.281L82.7256 264.133L82.9535 262.603L82.8615 261.212L86.3331 259.315L86.8824 258.929L89.6674 256.971L91.7231 259.185L93.3683 260.983Z" fill="url(#paint51_linear_1451_1640)"/>
<path d="M77.4434 279.346C77.4434 279.346 78.4345 282.85 81.143 282.85C81.143 282.85 91.7914 278.699 95.6905 282.85C95.6905 282.85 99.4623 286.241 96.5952 287.296C94.2988 288.145 91.3978 288.11 88.9937 288.076C87.5977 288.06 86.1932 288.005 84.8029 287.892C83.2979 287.769 81.7843 287.709 80.3006 287.406C79.7088 287.29 79.0688 287.147 78.5803 286.783C77.544 286 76.904 284.66 76.8389 283.428C76.8231 282.815 76.8706 282.202 76.9805 281.599C77.0399 281.233 77.1121 280.865 77.1886 280.504C77.2551 280.225 77.5256 279.616 77.4434 279.346Z" fill="url(#paint52_linear_1451_1640)"/>
<path d="M93.3615 260.974L91.3284 265.474C87.0328 266.568 84.1785 265.222 82.7188 264.124L82.9467 262.594L82.8547 261.204L86.3263 259.306L86.8756 258.92L90.8031 258.713L91.7163 259.169L93.3615 260.974Z" fill="url(#paint53_linear_1451_1640)"/>
<path d="M133.509 268.825C133.509 268.825 130.677 269.816 132.399 280.116C132.399 280.116 133.632 281.719 138.384 280.116L151.585 283.816C151.585 283.816 157.749 285.175 159.475 281.409C159.576 281.192 159.278 280.511 159.217 280.317C158.95 279.418 158.523 278.575 157.957 277.827C156.188 275.578 153.144 275.506 150.689 274.446C148.684 273.582 146.866 272.268 145.192 270.892C143.704 269.655 142.315 268.304 141.037 266.851L133.509 268.825Z" fill="url(#paint54_linear_1451_1640)"/>
<path d="M141.801 267.698C139.61 271.379 133.513 268.817 133.513 268.817L133.331 266.989L132.849 262.446L132.781 261.738L134.698 259.158L141.161 259.958L141.276 261.214L141.688 266.326L141.801 267.698Z" fill="url(#paint55_linear_1451_1640)"/>
<path d="M132.117 278.15C132.117 278.15 133.086 279.549 136.79 278.806C136.79 278.806 139.301 277.622 144.807 280.535C144.807 280.535 151.037 283.434 155.725 282.078C155.725 282.078 158.348 281.565 159.226 280.309C159.226 280.309 161.707 281.397 160.227 283.247C160.227 283.247 158.624 285.164 153.873 285.229C151.099 285.263 148.237 284.459 145.672 283.477C144.141 282.893 142.699 282.091 141.121 281.647C140.253 281.402 138.204 280.76 137.532 281.693C137.202 282.142 135.212 282.011 134.655 281.994C133.917 281.977 132.868 282.027 132.301 281.469C131.568 280.747 131.836 279 132.117 278.15Z" fill="url(#paint56_linear_1451_1640)"/>
<path d="M141.686 266.319C138.147 268.034 135.063 267.552 133.333 266.982L132.852 262.438L141.279 261.206L141.686 266.319Z" fill="url(#paint57_linear_1451_1640)"/>
<path d="M142.573 264.395C142.573 264.395 138.052 268.501 131.838 264.807C131.838 264.807 127.774 240.188 127.59 231.761L120.007 219.888L115.28 212.464L110.484 204.951L110.576 204.447L111.374 200.482L112.789 193.47L113.409 190.477L118.455 187.12L120.296 185.911L123.884 183.013C123.884 183.013 124.386 183.926 125.23 185.521C126.167 187.283 127.495 189.885 129.043 192.991C133.77 202.651 140.28 217.29 141.785 227.612C141.799 227.605 142.941 245.214 142.573 264.395Z" fill="url(#paint58_linear_1451_1640)"/>
<path style="mix-blend-mode:multiply" opacity="0.3" d="M120.015 219.899L110.492 204.962L110.584 204.458L110.788 204.049L118.669 198.779C118.669 198.779 118.281 209.735 120.015 219.899Z" fill="url(#paint59_linear_1451_1640)"/>
<path d="M122.23 189.992C121.228 191.661 120.475 193.488 119.811 195.314C119.491 196.227 119.172 197.142 118.898 198.077C117.938 201.002 117.162 203.995 116.476 206.985C116.042 208.811 115.652 210.638 115.289 212.465C114.899 214.448 114.559 216.414 114.285 218.425C114.013 220.453 113.601 222.459 113.052 224.431C112.458 226.413 111.862 228.473 110.812 230.255C110.197 231.28 109.396 232.218 108.78 233.245C107.022 236.192 105.491 239.3 103.825 242.267C102.021 245.511 100.379 248.844 98.6173 252.089C97.2015 254.689 95.8763 257.34 94.5114 259.966C93.9451 261.039 93.3703 262.111 92.821 263.21C84.6672 266.224 81.5156 260.173 81.5156 260.173C83.3888 241.309 92.2504 226.396 92.2504 226.396L93.8078 202.097L94.1745 196.342L96.1396 195.776H100.529L109.732 194.502L112.814 193.474L113.434 193.27L118.868 190.917L122.23 189.992Z" fill="url(#paint60_linear_1451_1640)"/>
<path style="mix-blend-mode:multiply" opacity="0.3" d="M129.058 192.99C125.846 195.017 122.442 196.725 118.897 198.087C116.45 199.062 113.939 199.866 111.381 200.494C105.641 201.955 99.7071 202.502 93.7969 202.115L94.1636 196.36L96.1287 195.794H100.518L109.721 194.519L112.803 193.491L113.423 190.498L118.469 187.141L125.251 185.543C126.182 187.282 127.506 189.884 129.058 192.99Z" fill="url(#paint61_linear_1451_1640)"/>
<path d="M107.002 134.607C107.002 134.607 113.536 130.909 118.35 135.966C118.35 135.966 128.712 145.594 136.113 147.562L128.467 155.333L116.991 162.364L110.485 157.304L107.002 148.667L106.508 140.031L107.002 134.607Z" fill="url(#paint62_linear_1451_1640)"/>
<path style="mix-blend-mode:multiply" d="M113.669 140.319L121.307 154.936V169.395L114.645 166.05L112.219 144.66L113.669 140.319Z" fill="url(#paint63_linear_1451_1640)"/>
<path d="M130.429 186.913C130.429 186.913 117.12 200.843 92.9296 198.493C92.5045 198.434 92.0846 198.342 91.6738 198.218C90.5768 197.879 89.5148 197.436 88.5024 196.894C88.5024 196.894 89.0022 193.237 89.2301 187.666C89.4595 182.368 89.4595 175.379 88.5689 168.14C88.4103 166.841 88.2036 165.537 88.0026 164.237C87.4298 160.884 86.6063 157.578 85.5391 154.347L87.1347 141.124L93.0811 135.46C93.0811 135.46 94.9302 133.195 111.212 133.337C111.212 133.337 113.496 138.085 116.146 149.872C116.489 151.308 116.809 152.838 117.127 154.505C117.426 155.92 117.694 157.428 117.997 159.027C119.085 163.067 120.389 167.046 121.903 170.947C122.952 173.62 124.187 176.468 125.584 179.192C127.001 182.003 128.649 184.698 130.429 186.913Z" fill="url(#paint64_linear_1451_1640)"/>
<path style="mix-blend-mode:multiply" d="M106.932 134.962L107.978 140.328C107.978 140.328 102.95 137.984 101.087 137.646C101.087 137.646 97.9383 142.286 97.9383 147.33C97.9383 147.33 91.5996 145.828 89.2734 142.037L92.8569 141.139L99.6528 138.473V134.962H106.932Z" fill="url(#paint65_linear_1451_1640)"/>
<path d="M92.3506 132.77C92.3506 132.77 88.038 136.887 88.1031 140.197C88.1031 140.197 87.718 143.224 99.0955 146.184C99.0955 146.184 99.5585 139.432 102.799 137.859C102.799 137.859 104.463 137.249 109.454 140.169C109.454 140.169 110.748 131.011 98.0733 130.735L92.3506 132.77Z" fill="url(#paint66_linear_1451_1640)"/>
<path d="M102.701 135.551C102.633 137.835 98.312 137.448 95.1448 136.854C93.2717 136.511 91.7851 136.1 91.7851 136.1V133.338C91.7744 132.558 91.721 131.78 91.6251 131.006C91.3985 129.065 90.9865 127.101 90.8492 126.393L90.7812 126.119L93.6355 125L95.4846 121.575L96.6994 120.845L100.947 123.906C100.705 124.717 100.544 125.55 100.468 126.393C100.272 128.236 100.442 130.099 100.969 131.876H100.992C101.192 132.571 101.444 133.251 101.745 133.909C101.748 133.932 101.755 133.955 101.767 133.977C102.027 134.53 102.34 135.058 102.701 135.551Z" fill="url(#paint67_linear_1451_1640)"/>
<path d="M100.972 131.87C97.843 132.568 94.5738 132.264 91.6274 131.001C91.4009 129.059 90.9889 127.096 90.8516 126.388H100.471C100.274 128.23 100.445 130.093 100.972 131.87Z" fill="url(#paint68_linear_1451_1640)"/>
<path d="M102.631 108.215L98.3838 112.029L96.0775 119.178V124.591L94.4804 126.302L91.3515 127.762L86.76 127.009L85.3215 126.805C85.3215 126.805 80.0235 126.509 77.8077 122.853C76.8733 121.279 76.5066 119.063 77.3745 115.957C77.4775 115.762 77.5914 115.573 77.7157 115.391C78.265 114.473 79.4968 112.831 81.0953 112.831C81.0953 112.831 80.2288 106.506 86.7585 104.087C86.7585 104.087 90.6181 103.195 93.747 101.803C95.1855 101.162 96.4881 100.408 97.1719 99.607C97.0799 100.042 96.1228 103.652 93.6762 106.209C93.6762 106.209 98.4971 103.877 100.416 99.5631C100.416 99.5631 101.214 103.877 97.4905 109.107L97.9718 109.008L102.631 108.215Z" fill="url(#paint69_linear_1451_1640)"/>
<path d="M102.636 128.938C102.069 129.646 100.785 129.852 99.9639 129.99C97.1323 130.493 94.2766 129.828 91.5596 129.031V128.711C91.5596 130.858 88.8186 130.514 87.4268 130.286C85.2804 129.92 83.2473 129.166 83.4073 126.495C83.4073 126.495 83.5673 122.293 86.7642 124.211C86.7642 124.211 88.34 125.422 90.257 125.422C90.257 125.422 88.5439 123.48 86.9709 118.96C86.9001 118.777 86.8293 118.572 86.7642 118.365C86.7642 118.365 95.1473 116.859 98.3881 112.039L98.9544 113.251L103.018 121.701C103.018 121.701 104.645 126.312 102.636 128.938Z" fill="url(#paint70_linear_1451_1640)"/>
<path d="M102.705 135.544C102.637 137.828 98.3156 137.441 95.1484 136.847C102.911 137.763 101.951 134.45 101.767 133.97C102.028 134.524 102.342 135.051 102.705 135.544Z" fill="url(#paint71_linear_1451_1640)"/>
<path d="M98.9601 113.251C95.3313 117.565 89.1173 118.685 86.9723 118.96C86.9015 118.777 86.8308 118.572 86.7656 118.365C86.7656 118.365 95.1487 116.859 98.3895 112.039L98.9601 113.251Z" fill="url(#paint72_linear_1451_1640)"/>
<path style="mix-blend-mode:multiply" d="M125.565 179.199L124.194 180.066C119.921 189.773 111.426 188.449 111.426 188.449L91.6714 198.218C90.5744 197.879 89.5125 197.436 88.5 196.894C88.5 196.894 88.9998 193.237 89.2277 187.666L121.889 170.953C122.938 173.627 124.169 176.482 125.565 179.199Z" fill="url(#paint73_linear_1451_1640)"/>
<path d="M190.925 140.326L69.2731 208.863L61.0047 213.521C59.7942 214.206 56.0734 209.912 52.7377 203.953C51.7801 202.273 50.912 200.544 50.1369 198.773C49.974 198.381 49.8155 198.019 49.6994 197.675C49.3506 196.834 49.0537 195.972 48.8102 195.095V195.024C48.3317 193.359 48.3076 192.217 48.8343 191.921L178.775 118.723C179.209 118.496 179.942 118.865 180.852 119.707C181.584 120.37 182.43 121.351 183.32 122.539H183.343C184.713 124.37 185.958 126.293 187.066 128.294C190.43 134.253 192.137 139.642 190.925 140.326Z" fill="url(#paint74_linear_1451_1640)"/>
<path style="mix-blend-mode:multiply" d="M117.112 154.511C116.06 153.621 115.011 153.255 114.258 153.668L88.5663 168.145C88.4078 166.845 88.201 165.541 88 164.242L113.966 149.603C114.562 149.281 115.315 149.397 116.137 149.878C116.474 151.314 116.794 152.844 117.112 154.511Z" fill="url(#paint75_linear_1451_1640)"/>
<path d="M125.744 169.553L125.036 169.965L124.852 170.055L122.892 166.562C122.871 166.538 122.871 166.538 122.871 166.517L116.751 155.643L115.833 154.028C114.647 152.865 113.389 152.339 112.544 152.794L90.7817 165.053L85.621 167.955L61.4105 181.611C60.5213 182.113 60.3387 183.576 60.8172 185.292L67.599 197.326C67.6698 197.418 67.7604 197.509 67.8284 197.601H67.7378L69.7199 201.116L69.012 201.53L68.8294 201.622L67.4348 199.154L66.3828 197.281C65.595 196.858 64.898 196.284 64.3313 195.592C63.8534 195.055 63.4392 194.465 63.0967 193.833L58.4726 185.585C56.9152 182.842 56.7581 179.988 58.0847 179.235L82.9536 165.235L95.216 158.318L112.254 148.725C113.603 147.972 115.935 149.595 117.484 152.333L117.665 152.677L122.119 160.577C123.078 162.289 123.489 164.026 123.353 165.282L125.744 169.553Z" fill="url(#paint76_linear_1451_1640)"/>
<path style="mix-blend-mode:multiply" d="M127.143 171.606L126.252 172.107L125.043 169.963L124.288 168.616C124.267 168.591 124.267 168.591 124.267 168.569L117.232 156.076C117.073 155.916 116.911 155.78 116.753 155.641L115.836 154.025C114.649 152.863 113.392 152.336 112.547 152.792L90.7844 165.05L85.6238 167.953L61.4132 181.608C60.5241 182.111 60.3415 183.574 60.82 185.29L67.6018 197.324C67.6726 197.416 67.7632 197.507 67.8311 197.599H67.7405L69.7227 201.114L69.0148 201.528L67.7858 199.332C67.6679 199.278 67.5535 199.216 67.4432 199.148C66.4167 198.53 65.3421 197.388 64.4997 195.881L64.3397 195.585L59.8629 187.638C58.3055 184.897 58.1498 182.043 59.4736 181.289L84.3453 167.289L96.6077 160.368L113.643 150.778C114.671 150.211 116.293 151.028 117.662 152.675C118.121 153.204 118.526 153.777 118.873 154.385L123.511 162.632C124.47 164.343 124.88 166.078 124.744 167.334L127.143 171.606Z" fill="url(#paint77_linear_1451_1640)"/>
<path d="M97.5401 185.477C96.879 188.354 94.2739 190.157 92.5593 191.047C91.5202 190.069 90.6078 188.965 89.8438 187.76L92.698 184.496H94.3206C94.3206 184.496 94.935 186.162 97.5401 185.477Z" fill="url(#paint78_linear_1451_1640)"/>
<path style="mix-blend-mode:multiply" d="M69.2697 208.864L61.0013 213.522C59.7908 214.208 56.07 209.913 52.7344 203.954L56.5939 201.782L68.9738 207.978L69.2697 208.864Z" fill="url(#paint79_linear_1451_1640)"/>
<path d="M54.6492 194.615L49.6938 197.673C49.3451 196.832 49.0481 195.971 48.8047 195.093V195.023L52.9389 192.671L54.6492 194.615Z" fill="white"/>
<path d="M190.926 140.329L112.87 184.314H112.845L102.388 190.207L63.931 211.877C62.0791 210.371 59.2716 206.535 56.5985 201.784C53.9084 197.011 52.1004 192.626 51.7578 190.275L82.0181 173.237L87.9986 169.859L178.777 118.725C179.987 118.064 183.711 122.334 187.068 128.296C187.16 128.451 187.243 128.61 187.318 128.774H187.34C190.515 134.554 192.114 139.666 190.926 140.329Z" fill="url(#paint80_linear_1451_1640)"/>
<path d="M190.925 140.324L162.13 156.54L155.962 160.036L63.9341 211.873C62.0822 210.367 59.2746 206.531 56.6016 201.78L186.819 129.066L187.321 128.77H187.343C190.514 134.549 192.113 139.662 190.925 140.324Z" fill="url(#paint81_linear_1451_1640)"/>
<path style="mix-blend-mode:multiply" opacity="0.5" d="M112.846 184.303L102.389 190.196L94.5096 189.28L89.1408 182.519L82.5473 174.644L82.0234 173.229L88.0039 169.85C88.0789 169.916 88.164 169.97 88.2559 170.009C88.5306 170.238 88.7344 170.575 88.9411 170.859C90.1531 172.525 91.1342 174.398 92.1621 176.178C93.3939 178.35 94.4005 180.588 96.2482 182.324C96.3898 182.481 97.5507 183.281 97.5507 183.417V184.493C97.5507 184.493 100.019 184.446 105.019 183.219C105.019 183.219 106.618 183.539 105.727 184.841L105.223 185.524L112.846 184.303Z" fill="url(#paint82_linear_1451_1640)"/>
<path d="M112.777 187.351C112.32 189.567 111.043 191.44 109.055 192.557C106.2 194.177 102.933 194.614 99.7109 194.248C98.584 194.127 97.4692 193.913 96.378 193.606C96.378 193.606 94.7555 193.128 92.6969 191.166C92.6446 191.133 92.597 191.093 92.5553 191.048C91.5162 190.071 90.6039 188.967 89.8398 187.762C89.6334 187.477 89.4443 187.179 89.2734 186.871L91.1466 184.497H94.3251C94.3251 184.497 94.9395 186.163 97.5447 185.478C97.7938 185.41 98.068 185.319 98.3672 185.204C99.3565 184.778 100.298 184.249 101.176 183.626C101.176 183.626 103.916 181.644 104.921 183.012C104.921 183.012 105.771 184.265 103.461 186.573C103.461 186.573 108.734 185.957 112.869 184.307C112.986 184.266 112.799 187.213 112.777 187.351Z" fill="url(#paint83_linear_1451_1640)"/>
<path style="mix-blend-mode:multiply" opacity="0.5" d="M162.56 149.097V154.806L162.128 156.54L155.961 160.036C153.564 152.454 162.56 149.097 162.56 149.097Z" fill="url(#paint84_linear_1451_1640)"/>
<path d="M156.92 159.483C156.92 159.483 155.363 152.208 163.682 148.551C163.682 148.551 170.45 144.304 170.86 151.629C170.86 151.624 168.663 161.676 156.92 159.483Z" fill="url(#paint85_linear_1451_1640)"/>
<path d="M98.368 185.202C97.4081 187.988 94.4164 190.136 92.7047 191.164C92.6524 191.132 92.6048 191.092 92.5631 191.047C91.524 190.069 90.6117 188.965 89.8476 187.76C89.6412 187.475 89.4521 187.178 89.2812 186.87L91.1544 184.496H94.3258C94.3258 184.496 94.9403 186.162 97.5454 185.477C97.7946 185.409 98.0688 185.317 98.368 185.202Z" fill="url(#paint86_linear_1451_1640)"/>
<path opacity="0.5" d="M178.854 123.039C178.789 122.918 178.7 122.812 178.594 122.726C178.487 122.64 178.364 122.575 178.233 122.537C178.101 122.498 177.963 122.486 177.827 122.501C177.691 122.516 177.559 122.558 177.438 122.624L55.7487 191.243C55.5104 191.383 55.3375 191.613 55.2679 191.88C55.1984 192.148 55.2379 192.432 55.3777 192.67C55.4427 192.79 55.5306 192.896 55.6365 192.982C55.7425 193.068 55.8643 193.132 55.995 193.171C56.1257 193.209 56.2628 193.222 56.3984 193.207C56.534 193.193 56.6653 193.152 56.785 193.087L178.485 124.465C178.723 124.325 178.895 124.096 178.965 123.828C179.034 123.561 178.994 123.277 178.854 123.039Z" fill="white"/>
<path opacity="0.9" d="M111.847 149.867C111.762 149.717 111.521 149.693 111.31 149.812L58.8316 179.403C58.6178 179.524 58.5144 179.744 58.6008 179.895C58.6843 180.045 58.9264 180.071 59.1402 179.951L111.616 150.36C111.827 150.241 111.933 150.022 111.847 149.867Z" fill="white"/>
<path opacity="0.5" d="M48.4433 199.857L42.3482 203.351C41.9995 202.448 41.7313 201.515 41.5469 200.565L47.5075 197.185L48.4433 199.857Z" fill="white"/>
<path style="mix-blend-mode:multiply" d="M95.2135 158.327C94.5523 160.634 93.2511 163.168 90.7848 165.062L85.6241 167.965L82.3125 166.045L82.951 165.245L90.7848 155.242L95.9228 152.527C96.0171 154.486 95.7773 156.448 95.2135 158.327Z" fill="url(#paint87_linear_1451_1640)"/>
<path d="M86.8789 167.359C84.9831 169.114 83.2926 170.485 82.3341 171.239C81.806 171.626 81.5101 171.857 81.5101 171.857L72.4488 173.316L69.6172 166.901C72.4623 163.992 75.0036 160.801 77.2017 157.377C80.6719 151.987 82.7489 145.934 87.1337 141.116L93.8263 147.398C99.5335 153.474 92.4289 162.129 86.8789 167.359Z" fill="url(#paint88_linear_1451_1640)"/>
<path style="mix-blend-mode:multiply" d="M86.8785 167.366C84.9827 169.121 83.2922 170.492 82.3337 171.246L78.1089 167.959L77.7422 164.302C77.7422 164.302 83.6108 163.234 86.8785 167.366Z" fill="url(#paint89_linear_1451_1640)"/>
<path d="M69.6189 166.915C69.6189 166.915 79.18 160.061 85.5327 168.578C85.5327 168.578 94.5657 183.849 96.6951 185.427C96.1253 186.681 95.2356 187.763 94.1153 188.564C92.9949 189.366 91.6835 189.858 90.3125 189.993C90.3125 189.993 83.0919 184.038 77.6367 180.43C77.6367 180.426 63.0792 173.024 69.6189 166.915Z" fill="url(#paint90_linear_1451_1640)"/>
<path d="M97.4919 109.109L97.9718 109.012C90.5487 112.583 82.0113 119.348 77.8077 122.858C76.8733 121.283 76.5066 119.067 77.3745 115.961C77.4775 115.766 77.5914 115.577 77.7157 115.395C85.8 114.414 91.3274 106.215 93.7485 101.803C95.1869 101.162 96.4895 100.408 97.1733 99.607C97.0813 100.042 96.1242 103.652 93.6777 106.209C93.6777 106.209 98.4985 103.877 100.417 99.5631C100.417 99.5645 101.215 103.879 97.4919 109.109Z" fill="url(#paint91_linear_1451_1640)"/>
<path d="M295.582 83.1754V95.0031C295.579 95.2369 295.56 95.4702 295.523 95.7011C295.16 97.7725 293.228 99.4148 290.765 99.773C290.43 99.8205 290.093 99.8441 289.755 99.8438H287.475C284.501 99.8438 282.042 97.9891 281.69 95.5963C281.664 95.3996 281.65 95.2015 281.648 95.0031V83.1754H295.582Z" fill="url(#paint92_linear_1451_1640)"/>
<path style="mix-blend-mode:multiply" d="M295.579 83.1754V95.0031C295.577 95.2369 295.557 95.4702 295.521 95.7011C295.157 97.7725 293.226 99.4148 290.762 99.773C291.602 97.948 291.328 95.5963 291.328 95.5963H281.689C281.664 95.3996 281.65 95.2015 281.648 95.0031V83.2518L281.876 83.1754H295.579Z" fill="url(#paint93_linear_1451_1640)"/>
<path d="M307.848 58.8454C307.819 58.9106 307.795 58.9757 307.767 59.0337C306.763 61.3684 305.379 63.5332 304.188 65.7801C302.914 68.187 301.601 70.5741 300.457 73.0489C299.535 75.0495 298.509 77.0274 298.285 79.2389C298.134 80.8105 298.462 82.5477 297.693 83.9847C297.549 84.2592 297.354 84.5041 297.119 84.7068C296.694 85.0598 296.172 85.2747 295.622 85.3227C295.611 85.3227 295.592 85.3227 295.581 85.3227C294.535 85.4337 293.483 85.4866 292.431 85.4813C291.932 85.4813 291.44 85.4699 291.005 85.4572C290.893 85.4572 290.788 85.4459 290.682 85.4459C290.647 85.4459 290.606 85.4459 290.57 85.4459H290.195H287.051H286.459C286.425 85.4487 286.392 85.4487 286.358 85.4459C284.816 85.5095 283.271 85.4622 281.736 85.3043C281.706 85.3043 281.676 85.3043 281.654 85.2915C280.78 85.1811 280.096 84.7578 279.671 83.9663C279.502 83.6417 279.376 83.2961 279.296 82.9385C279.026 81.7421 279.197 80.4339 279.08 79.2248C278.85 77.0203 277.848 75.0665 276.926 73.0886C276.926 73.0716 276.908 73.0546 276.902 73.0362L276.533 72.2433C276.275 71.6983 276.004 71.1588 275.735 70.6194C275.629 70.407 275.517 70.1947 275.413 69.9851L275.219 69.6156C274.936 69.0634 274.644 68.5127 274.356 67.9676C274.304 67.867 274.252 67.7679 274.198 67.6745C274.004 67.3106 273.811 66.9411 273.612 66.5772C273.576 66.5064 273.541 66.4356 273.5 66.3663L273.448 66.2601C273.354 66.0959 273.265 65.926 273.177 65.7617C272.819 65.0864 272.438 64.4181 272.063 63.7484C271.921 63.5021 271.78 63.2557 271.647 63.0094C271.581 62.9046 271.523 62.7984 271.464 62.688C271.404 62.5775 271.352 62.4869 271.294 62.3878C271.152 62.1174 270.995 61.8484 270.854 61.578C270.76 61.4081 270.673 61.2438 270.59 61.0739C270.568 61.0432 270.55 61.0093 270.538 60.9734C270.454 60.8318 270.379 60.6747 270.303 60.5218C270.02 59.971 269.756 59.4075 269.516 58.8327C265.61 49.5577 268.383 43.1043 269.95 40.5516C270.995 38.5284 272.573 36.7148 274.545 35.214C276.526 33.7126 278.758 32.5737 281.137 31.85C281.42 31.7565 281.712 31.6744 282.006 31.5909C282.217 31.5328 282.431 31.4805 282.639 31.4281C283.691 31.1681 284.759 30.9789 285.836 30.8618C285.907 30.849 285.978 30.8433 286.047 30.8377C286.147 30.8264 286.248 30.8207 286.347 30.8079C286.676 30.7796 287.004 30.7556 287.338 30.7386C287.79 30.714 288.242 30.7022 288.694 30.7032C288.893 30.7032 289.087 30.7032 289.281 30.7145C289.544 30.7145 289.803 30.7258 290.055 30.7442C290.471 30.7612 290.882 30.791 291.293 30.8377C291.346 30.8375 291.399 30.8437 291.451 30.8561C291.985 30.9028 292.513 30.9793 293.035 31.067C293.246 31.1024 293.46 31.1435 293.663 31.1846C294.229 31.295 294.784 31.4182 295.329 31.5654C295.329 31.5654 295.346 31.5654 295.353 31.5654C296.67 31.9247 297.954 32.3984 299.189 32.9812C303.12 34.8402 306.171 37.7214 307.737 41.142C309.315 44.0147 311.492 50.1919 307.848 58.8454Z" fill="url(#paint94_linear_1451_1640)"/>
<path d="M303.835 56.3572C302.826 58.7556 301.394 60.9798 300.173 63.2848C298.899 65.6917 297.587 68.0773 296.448 70.5536C295.528 72.5542 294.501 74.5321 294.278 76.7492C294.126 78.3151 294.448 80.0523 293.68 81.4894C293.246 82.3049 292.524 82.7268 291.609 82.8273C291.409 82.85 291.21 82.8741 291.004 82.8854C290.863 82.9038 290.721 82.9151 290.57 82.9208C289.849 82.9732 289.121 82.9916 288.423 82.9916C287.918 82.9916 287.432 82.9803 286.998 82.9732C286.927 82.9732 286.856 82.9619 286.792 82.9619C286.753 82.959 286.714 82.959 286.675 82.9619C286.639 82.9619 286.598 82.9619 286.563 82.9619H286.182H283.038H282.545C282.48 82.9619 282.416 82.9619 282.345 82.9619C281.442 82.9916 280.363 83.0029 279.288 82.9491C279.018 81.7527 279.189 80.4445 279.072 79.2354C278.842 77.0126 277.822 75.0418 276.894 73.0469C275.762 70.5649 274.448 68.1708 273.169 65.7724C271.943 63.4717 270.517 61.2488 269.508 58.8434C265.602 49.5683 268.375 43.115 269.943 40.5623C272.102 36.3856 276.508 33.0938 282.005 31.5973C283.426 31.2089 284.879 30.9478 286.346 30.8172C287.115 30.7478 287.904 30.7124 288.694 30.7124C290.148 30.7104 291.601 30.8321 293.035 31.0763C293.815 31.2108 294.584 31.375 295.328 31.5747C296.654 31.9314 297.946 32.4052 299.188 32.9905C301.184 34.5861 302.744 36.5159 303.73 38.6538C305.298 41.5194 307.482 47.7051 303.835 56.3572Z" fill="url(#paint95_linear_1451_1640)"/>
<path d="M298.002 88.1987C298.006 88.7065 297.812 89.1956 297.46 89.5618C297.108 89.9279 296.627 90.1419 296.119 90.1582H281.158C280.818 90.1568 280.483 90.0641 280.19 89.8898C279.897 89.7155 279.656 89.466 279.492 89.1671C279.323 88.8709 279.234 88.5356 279.234 88.1944C279.235 87.6766 279.438 87.1796 279.801 86.8098C279.978 86.6293 280.19 86.4863 280.424 86.389C280.657 86.2917 280.908 86.2422 281.161 86.2434H296.077C296.338 86.244 296.595 86.298 296.834 86.402C297.183 86.5553 297.479 86.8069 297.687 87.1261C297.894 87.4452 298.004 87.818 298.002 88.1987Z" fill="url(#paint96_linear_1451_1640)"/>
<path opacity="0.7" d="M301.45 55.2476C301.324 54.815 301.139 54.4022 300.898 54.0215C300.412 53.277 299.743 52.6698 298.956 52.2584C298.168 51.847 297.287 51.6452 296.399 51.6724C295.51 51.6996 294.644 51.9548 293.883 52.4135C293.121 52.8723 292.491 53.5191 292.052 54.2919L292.039 54.3089C291.206 55.7751 290.709 57.4083 290.585 59.0901C289.918 58.5789 289.294 58.014 288.719 57.4011L288.672 57.343L288.642 57.4011C288.066 58.0142 287.44 58.5791 286.771 59.0901C286.653 57.4069 286.156 55.7722 285.315 54.3089L285.304 54.2919C284.966 53.6738 284.501 53.1342 283.94 52.7084C283.379 52.2826 282.734 51.9803 282.048 51.8213C281.862 51.7696 281.673 51.7322 281.481 51.7095C281.259 51.6821 281.036 51.6689 280.813 51.6698C280.625 51.6698 280.438 51.6811 280.255 51.6981C280.092 51.715 279.929 51.7405 279.768 51.7746C279.682 51.793 279.598 51.81 279.51 51.8341C278.695 52.0337 277.944 52.4355 277.325 53.0024C276.706 53.5694 276.241 54.2831 275.971 55.0777C275.957 55.1138 275.947 55.1513 275.941 55.1895C275.917 55.2603 275.894 55.3311 275.876 55.4062C275.784 55.7729 275.736 56.1494 275.734 56.5275V56.5445C275.734 56.6507 275.734 56.7498 275.746 56.8503C275.794 57.4967 275.974 58.1265 276.274 58.7014C276.573 59.2763 276.987 59.7843 277.489 60.1945C277.555 60.2576 277.628 60.314 277.705 60.363C277.792 60.4372 277.884 60.5045 277.981 60.564C278.022 60.5923 278.065 60.6174 278.11 60.639C278.245 60.7232 278.383 60.7997 278.526 60.8684C278.745 60.9737 278.971 61.0636 279.202 61.1374C279.284 61.1671 279.366 61.1912 279.454 61.2139H279.489L279.566 61.2365C279.587 61.238 279.609 61.2418 279.629 61.2478C279.66 61.2489 279.69 61.2551 279.718 61.2663H279.76H279.818V61.279C279.959 61.3073 280.116 61.337 280.223 61.3484C280.656 61.4291 281.096 61.4722 281.538 61.4772C283.258 61.4585 284.932 60.9152 286.336 59.9198V85.4442C286.369 85.447 286.403 85.447 286.437 85.4442C286.468 85.4412 286.499 85.4412 286.53 85.4442H286.771V59.5984C287.445 59.1113 288.074 58.5635 288.648 57.9617C289.239 58.5639 289.883 59.1117 290.572 59.5984V85.4442C290.608 85.4442 290.649 85.4442 290.684 85.4442C290.79 85.4442 290.895 85.4442 291.007 85.4555V59.941C292.412 60.9384 294.089 61.4819 295.812 61.4984C295.976 61.4984 296.146 61.4984 296.316 61.4758C296.585 61.4522 296.855 61.4168 297.126 61.3696C297.221 61.3583 297.378 61.3285 297.525 61.3002V61.2875L297.619 61.2762C297.647 61.2652 297.676 61.2589 297.706 61.2578C297.733 61.2517 297.761 61.2479 297.789 61.2464L297.854 61.2238H297.895C299.795 60.7084 301.198 59.2062 301.532 57.3869C301.586 57.107 301.614 56.8225 301.614 56.5374C301.618 56.102 301.563 55.6681 301.45 55.2476ZM283.486 60.816C283.474 60.8183 283.462 60.8183 283.451 60.816C283.372 60.8413 283.291 60.8607 283.21 60.8741C282.668 61.0013 282.113 61.0664 281.556 61.068C281.069 61.0694 280.583 61.0182 280.106 60.9151C280.024 60.8981 279.948 60.8797 279.871 60.8571C279.673 60.8047 279.485 60.7452 279.315 60.6815C278.936 60.5427 278.571 60.3697 278.223 60.1647C278.082 60.0838 277.945 59.9955 277.813 59.9C277.742 59.8476 277.701 59.8122 277.684 59.8009C277.653 59.7768 277.626 59.7492 277.602 59.7188C276.773 58.97 276.265 57.9294 276.186 56.8149C276.186 56.7158 276.173 56.6153 276.173 56.5162V56.5091C276.173 56.1259 276.227 55.7445 276.333 55.3764C276.35 55.3026 276.372 55.2299 276.397 55.1584C276.408 55.12 276.421 55.0826 276.438 55.0466C276.686 54.3909 277.082 53.8012 277.594 53.3232C278.107 52.8451 278.723 52.4916 279.394 52.29L279.653 52.2192C279.816 52.1788 279.98 52.1476 280.146 52.1257C280.366 52.0952 280.587 52.0796 280.809 52.079C280.998 52.079 281.187 52.0903 281.375 52.113C281.569 52.134 281.761 52.1695 281.95 52.2192C282.581 52.3672 283.174 52.6477 283.689 53.0421C284.204 53.4366 284.629 53.9359 284.936 54.5071L285.007 54.636C285.277 55.1173 286.281 57.0599 286.35 59.4059C285.481 60.0327 284.513 60.5094 283.486 60.816ZM299.677 59.8122C298.955 60.3493 298.128 60.7272 297.249 60.9208C297.025 60.9675 296.798 61.0086 296.574 61.0326C296.321 61.061 296.067 61.0747 295.812 61.0737C295.251 61.0723 294.692 61.0073 294.146 60.8797C294.066 60.8657 293.988 60.8464 293.911 60.8217C293.899 60.8247 293.887 60.8247 293.875 60.8217C292.846 60.5202 291.876 60.0458 291.007 59.4186C291.072 57.0726 292.074 55.1301 292.35 54.6487L292.416 54.5199C292.821 53.78 293.419 53.1637 294.146 52.7362C294.873 52.3087 295.702 52.086 296.546 52.0917C299.104 52.0917 301.187 54.0852 301.187 56.5332C301.187 56.9054 301.139 57.2761 301.045 57.6361C300.812 58.4796 300.336 59.2362 299.677 59.8122Z" fill="white"/>
<path style="mix-blend-mode:multiply" d="M298.003 88.2015C298.007 88.7093 297.812 89.1985 297.46 89.5646C297.108 89.9307 296.627 90.1448 296.12 90.161H281.159C280.818 90.1596 280.483 90.0669 280.19 89.8926C279.897 89.7184 279.656 89.4688 279.492 89.1699H293.084C293.36 88.7318 293.507 88.2245 293.507 87.7067C293.507 87.1888 293.36 86.6815 293.084 86.2434H296.076C296.336 86.244 296.594 86.298 296.833 86.402C297.182 86.5552 297.479 86.8072 297.687 87.127C297.895 87.4467 298.004 87.8202 298.003 88.2015Z" fill="url(#paint97_linear_1451_1640)"/>
<path d="M298.003 92.8981C298.006 93.4131 297.806 93.9085 297.445 94.2758C297.084 94.6432 296.592 94.8524 296.077 94.8576H281.158C280.818 94.8562 280.483 94.7635 280.19 94.5892C279.897 94.415 279.656 94.1654 279.492 93.8665C279.323 93.5703 279.234 93.235 279.234 92.8939C279.235 92.3761 279.438 91.8791 279.801 91.5092C279.978 91.3287 280.19 91.1857 280.424 91.0884C280.657 90.9911 280.908 90.9416 281.161 90.9429H296.077C296.332 90.9447 296.584 90.9968 296.819 91.096C297.053 91.1953 297.266 91.3399 297.445 91.5215C297.624 91.7031 297.765 91.9181 297.861 92.1543C297.956 92.3905 298.005 92.6433 298.003 92.8981Z" fill="url(#paint98_linear_1451_1640)"/>
<path style="mix-blend-mode:multiply" d="M298.003 92.9009C298.006 93.4159 297.806 93.9113 297.445 94.2787C297.084 94.646 296.592 94.8552 296.077 94.8604H281.159C280.818 94.859 280.483 94.7663 280.19 94.5921C279.897 94.4178 279.656 94.1682 279.492 93.8693H293.084C293.36 93.4313 293.507 92.924 293.507 92.4061C293.507 91.8882 293.36 91.3809 293.084 90.9428H296.076C296.331 90.9445 296.583 90.9965 296.818 91.0959C297.053 91.1953 297.267 91.3401 297.446 91.522C297.625 91.7039 297.766 91.9193 297.861 92.1559C297.957 92.3926 298.005 92.6457 298.003 92.9009Z" fill="url(#paint99_linear_1451_1640)"/>
<path d="M291.028 86.5586H281.64C281.64 86.5586 279.832 86.5289 279.734 88.2066C280.066 87.8492 280.467 87.5624 280.912 87.3634C281.357 87.1644 281.838 87.0573 282.325 87.0485L291.028 86.5586Z" fill="white"/>
<path d="M291.028 91.2488H281.64C281.64 91.2488 279.832 91.219 279.734 92.8968C280.066 92.5394 280.467 92.2526 280.912 92.0536C281.357 91.8546 281.838 91.7474 282.325 91.7386L291.028 91.2488Z" fill="white"/>
<path d="M283.251 36.1585C283.656 35.9602 284.068 35.7677 284.492 35.5921C286.478 34.7603 288.578 34.2306 290.721 34.0206C287.467 33.0918 284.004 33.2087 280.82 34.3547C281.735 34.8001 282.56 35.4118 283.251 36.1585Z" fill="white"/>
<path d="M281.629 37.049C280.768 36.238 279.711 35.6644 278.562 35.384C273.749 38.0387 270.492 43.0917 270.492 48.8924C270.491 51.6421 271.236 54.3406 272.65 56.6992C270.665 49.4417 274.389 41.4069 281.629 37.049Z" fill="white"/>
<path d="M271.389 164.382H261.734V174.036H271.389V164.382Z" fill="#313351"/>
<path d="M261.74 164.382H252.086V174.036H261.74V164.382Z" fill="#44C9D8"/>
<path d="M252.084 164.382H242.43V174.036H252.084V164.382Z" fill="#FED11C"/>
<path d="M242.428 164.382H232.773V174.036H242.428V164.382Z" fill="#F6538C"/>
<path d="M76.0355 83.2755L67.2395 92.0714C66.926 92.3849 66.926 92.8932 67.2395 93.2067L69.394 95.3612C69.7075 95.6747 70.2158 95.6747 70.5293 95.3612L79.3252 86.5652C79.6387 86.2517 79.6387 85.7434 79.3252 85.4299L77.1708 83.2755C76.8573 82.962 76.349 82.962 76.0355 83.2755Z" fill="#FED11C"/>
<path d="M70.875 95.0264L75.3731 99.5301C75.697 99.8539 76.1362 100.036 76.5942 100.036C77.0522 100.036 77.4914 99.8539 77.8154 99.5301L83.4786 93.8669C83.6389 93.7066 83.7661 93.5163 83.8528 93.3069C83.9395 93.0975 83.9842 92.8731 83.9842 92.6464C83.9842 92.4198 83.9395 92.1953 83.8528 91.9859C83.7661 91.7765 83.6389 91.5862 83.4786 91.426L78.9749 86.9293L70.875 95.0264Z" fill="#FCB21F"/>
<path d="M65.9592 81.0132C66.4109 80.793 66.9259 80.7401 67.4129 80.8639C67.8999 80.9876 68.3272 81.28 68.6189 81.6891C68.9107 82.0982 69.0479 82.5974 69.0063 83.0981C68.9647 83.5989 68.7468 84.0686 68.3916 84.4239C68.0363 84.7792 67.5665 84.997 67.0658 85.0386C66.5651 85.0802 66.0658 84.943 65.6568 84.6513C65.2477 84.3595 64.9553 83.9322 64.8315 83.4452C64.7078 82.9583 64.7607 82.4432 64.9809 81.9916L57.4062 74.4155L60.9458 88.8682L68.4822 90.822L74.7854 84.5188L72.8316 76.9824L58.3789 73.4428L65.9592 81.0132Z" fill="#313351"/>
<path d="M35.5311 87.112C36.7564 87.112 37.7497 86.1187 37.7497 84.8934C37.7497 83.6681 36.7564 82.6748 35.5311 82.6748C34.3058 82.6748 33.3125 83.6681 33.3125 84.8934C33.3125 86.1187 34.3058 87.112 35.5311 87.112Z" fill="white"/>
<path d="M68.8514 53.7804C70.0767 53.7804 71.07 52.7871 71.07 51.5618C71.07 50.3365 70.0767 49.3432 68.8514 49.3432C67.6261 49.3432 66.6328 50.3365 66.6328 51.5618C66.6328 52.7871 67.6261 53.7804 68.8514 53.7804Z" fill="white"/>
<path d="M50.459 69.344L35.2188 84.5843L35.8435 85.209L51.0838 69.9687L50.459 69.344Z" fill="white"/>
<path d="M68.5427 51.2456L53.1953 66.593L53.82 67.2177L69.1674 51.8703L68.5427 51.2456Z" fill="white"/>
<path d="M55.0332 69.0616L53.0129 71.082C52.7955 71.2989 52.5009 71.4207 52.1938 71.4207C51.8867 71.4207 51.5921 71.2989 51.3747 71.082L49.3544 69.063C49.1374 68.8456 49.0156 68.5511 49.0156 68.244C49.0156 67.9369 49.1374 67.6423 49.3544 67.4249L51.3747 65.4116C51.5921 65.1947 51.8867 65.0729 52.1938 65.0729C52.5009 65.0729 52.7955 65.1947 53.0129 65.4116L55.0332 67.4306C55.248 67.6477 55.3685 67.9407 55.3685 68.2461C55.3685 68.5515 55.248 68.8445 55.0332 69.0616ZM49.8754 67.9445C49.7967 68.024 49.7526 68.1314 49.7526 68.2432C49.7526 68.3551 49.7967 68.4625 49.8754 68.542L51.8944 70.5624C51.9739 70.641 52.0812 70.6852 52.1931 70.6852C52.305 70.6852 52.4123 70.641 52.4918 70.5624L54.5108 68.542C54.5895 68.4625 54.6336 68.3551 54.6336 68.2432C54.6336 68.1314 54.5895 68.024 54.5108 67.9445L52.4918 65.9241C52.4123 65.8455 52.305 65.8013 52.1931 65.8013C52.0812 65.8013 51.9739 65.8455 51.8944 65.9241L49.8754 67.9445Z" fill="white"/>
<path d="M55.0304 102.374L53.0114 104.393C52.7941 104.61 52.4995 104.732 52.1924 104.732C51.8853 104.732 51.5907 104.61 51.3733 104.393L49.3544 102.374C49.1375 102.156 49.0156 101.862 49.0156 101.555C49.0156 101.248 49.1375 100.953 49.3544 100.736L51.3733 98.7154C51.5907 98.4985 51.8853 98.3766 52.1924 98.3766C52.4995 98.3766 52.7941 98.4985 53.0114 98.7154L55.0304 100.736C55.1381 100.843 55.2236 100.971 55.282 101.111C55.3403 101.252 55.3703 101.403 55.3703 101.555C55.3703 101.707 55.3403 101.858 55.282 101.998C55.2236 102.139 55.1381 102.266 55.0304 102.374ZM49.874 101.255C49.7953 101.335 49.7512 101.442 49.7512 101.554C49.7512 101.666 49.7953 101.773 49.874 101.853L51.8944 103.873C51.9739 103.952 52.0812 103.996 52.1931 103.996C52.305 103.996 52.4123 103.952 52.4918 103.873L54.5094 101.853C54.5881 101.773 54.6322 101.666 54.6322 101.554C54.6322 101.442 54.5881 101.335 54.5094 101.255L52.4904 99.2378C52.4109 99.1592 52.3035 99.115 52.1917 99.115C52.0798 99.115 51.9725 99.1592 51.8929 99.2378L49.874 101.255Z" fill="white"/>
<path d="M50.3889 69.5591C43.0266 78.415 43.0266 91.3627 50.3889 100.22L51.0133 99.5943C43.9922 91.0866 43.9894 78.6925 51.0133 70.1849L50.3889 69.5591Z" fill="white"/>
<path d="M53.5156 66.4311L54.1414 67.0569C62.6491 60.0345 75.0432 60.0373 83.5508 67.0569L84.1766 66.4311C75.3193 59.0717 62.3758 59.0703 53.5156 66.4311Z" fill="white"/>
<path d="M88.3529 69.063L86.3325 71.082C86.1153 71.2988 85.821 71.4206 85.5141 71.4206C85.2073 71.4206 84.9129 71.2988 84.6958 71.082L82.6825 69.0616C82.4656 68.8442 82.3438 68.5496 82.3438 68.2425C82.3438 67.9354 82.4656 67.6409 82.6825 67.4235L84.6944 65.4116C84.9118 65.1947 85.2063 65.0729 85.5134 65.0729C85.8205 65.0729 86.1151 65.1947 86.3325 65.4116L88.3529 67.432C88.5676 67.6491 88.6881 67.9421 88.6881 68.2475C88.6881 68.5529 88.5676 68.8459 88.3529 69.063ZM83.195 67.9445C83.1163 68.024 83.0722 68.1314 83.0722 68.2432C83.0722 68.3551 83.1163 68.4625 83.195 68.542L85.2154 70.5624C85.2949 70.641 85.4023 70.6852 85.5141 70.6852C85.626 70.6852 85.7334 70.641 85.8129 70.5624L87.8318 68.542C87.9105 68.4625 87.9546 68.3551 87.9546 68.2432C87.9546 68.1314 87.9105 68.024 87.8318 67.9445L85.8129 65.9241C85.7334 65.8455 85.626 65.8013 85.5141 65.8013C85.4023 65.8013 85.2949 65.8455 85.2154 65.9241L83.195 67.9445Z" fill="white"/>
</g>
<defs>
<linearGradient id="paint0_linear_1451_1640" x1="271.048" y1="244.954" x2="175.957" y2="243.592" gradientUnits="userSpaceOnUse">
<stop offset="0.15" stop-color="#191736"/>
<stop offset="0.69" stop-color="#2A2E4F"/>
</linearGradient>
<linearGradient id="paint1_linear_1451_1640" x1="244.652" y1="244.03" x2="159.917" y2="244.03" gradientUnits="userSpaceOnUse">
<stop offset="0.31" stop-color="#03000A"/>
<stop offset="1" stop-color="#2A2E4F"/>
</linearGradient>
<linearGradient id="paint2_linear_1451_1640" x1="359.487" y1="251.97" x2="118.269" y2="64.9709" gradientUnits="userSpaceOnUse">
<stop stop-color="#313351"/>
<stop offset="0.59" stop-color="#4B5C8A"/>
</linearGradient>
<linearGradient id="paint3_linear_1451_1640" x1="221.626" y1="180.032" x2="109.527" y2="10.8857" gradientUnits="userSpaceOnUse">
<stop stop-color="#313351"/>
<stop offset="0.59" stop-color="#4B5C8A"/>
</linearGradient>
<linearGradient id="paint4_linear_1451_1640" x1="261.602" y1="304.634" x2="124.212" y2="218.677" gradientUnits="userSpaceOnUse">
<stop stop-color="#313351"/>
<stop offset="0.59" stop-color="#4B5C8A"/>
</linearGradient>
<linearGradient id="paint5_linear_1451_1640" x1="216.931" y1="234.689" x2="214.371" y2="184.356" gradientUnits="userSpaceOnUse">
<stop offset="0.31" stop-color="#03000A"/>
<stop offset="0.69" stop-color="#2A2E4F"/>
</linearGradient>
<linearGradient id="paint6_linear_1451_1640" x1="223.723" y1="233.27" x2="207.649" y2="189.769" gradientUnits="userSpaceOnUse">
<stop offset="0.15" stop-color="#191736"/>
<stop offset="0.69" stop-color="#2A2E4F"/>
</linearGradient>
<linearGradient id="paint7_linear_1451_1640" x1="211.334" y1="249.539" x2="189.175" y2="244.636" gradientUnits="userSpaceOnUse">
<stop stop-color="#191736"/>
<stop offset="0.69" stop-color="#3D4C77"/>
</linearGradient>
<linearGradient id="paint8_linear_1451_1640" x1="237.384" y1="270.601" x2="181.01" y2="235.332" gradientUnits="userSpaceOnUse">
<stop stop-color="#313351"/>
<stop offset="0.59" stop-color="#4B5C8A"/>
</linearGradient>
<linearGradient id="paint9_linear_1451_1640" x1="341.317" y1="174.223" x2="309.154" y2="174.223" gradientUnits="userSpaceOnUse">
<stop offset="0.4" stop-color="#F8E8D8"/>
<stop offset="1" stop-color="#EFCAA6"/>
</linearGradient>
<linearGradient id="paint10_linear_1451_1640" x1="331.682" y1="181.559" x2="323.031" y2="175.702" gradientUnits="userSpaceOnUse">
<stop offset="0.29" stop-color="#F8E8D8"/>
<stop offset="1" stop-color="#E2BB93"/>
</linearGradient>
<linearGradient id="paint11_linear_1451_1640" x1="277.269" y1="105.815" x2="271.276" y2="151.859" gradientUnits="userSpaceOnUse">
<stop offset="0.4" stop-color="#F8E8D8"/>
<stop offset="1" stop-color="#EFCAA6"/>
</linearGradient>
<linearGradient id="paint12_linear_1451_1640" x1="269.349" y1="135.668" x2="280.858" y2="140.094" gradientUnits="userSpaceOnUse">
<stop offset="0.29" stop-color="#F8E8D8"/>
<stop offset="1" stop-color="#E2BB93"/>
</linearGradient>
<linearGradient id="paint13_linear_1451_1640" x1="287.499" y1="139.794" x2="300.578" y2="139.794" gradientUnits="userSpaceOnUse">
<stop offset="0.29" stop-color="#F8E8D8"/>
<stop offset="1" stop-color="#E2BB93"/>
</linearGradient>
<linearGradient id="paint14_linear_1451_1640" x1="288.765" y1="140.945" x2="300.209" y2="140.945" gradientUnits="userSpaceOnUse">
<stop offset="0.29" stop-color="#F8E8D8"/>
<stop offset="1" stop-color="#E2BB93"/>
</linearGradient>
<linearGradient id="paint15_linear_1451_1640" x1="297.864" y1="247.847" x2="346.439" y2="229.232" gradientUnits="userSpaceOnUse">
<stop offset="0.4" stop-color="#F8E8D8"/>
<stop offset="0.91" stop-color="#EFCAA6"/>
</linearGradient>
<linearGradient id="paint16_linear_1451_1640" x1="339.738" y1="270.506" x2="352.722" y2="272" gradientUnits="userSpaceOnUse">
<stop stop-color="#7F6F98"/>
<stop offset="1" stop-color="#3B2B6C"/>
</linearGradient>
<linearGradient id="paint17_linear_1451_1640" x1="319.744" y1="267.117" x2="361.326" y2="279.415" gradientUnits="userSpaceOnUse">
<stop stop-color="#7F6F98"/>
<stop offset="0.65" stop-color="#372864"/>
</linearGradient>
<linearGradient id="paint18_linear_1451_1640" x1="303.372" y1="247.444" x2="317.393" y2="218.017" gradientUnits="userSpaceOnUse">
<stop offset="0.29" stop-color="#F8E8D8"/>
<stop offset="1" stop-color="#E2BB93"/>
</linearGradient>
<linearGradient id="paint19_linear_1451_1640" x1="270.169" y1="235.06" x2="310.42" y2="248.899" gradientUnits="userSpaceOnUse">
<stop offset="0.56" stop-color="#F8E8D8"/>
<stop offset="1" stop-color="#EFCAA6"/>
</linearGradient>
<linearGradient id="paint20_linear_1451_1640" x1="279.53" y1="274.289" x2="293.721" y2="292.654" gradientUnits="userSpaceOnUse">
<stop stop-color="#7F6F98"/>
<stop offset="1" stop-color="#3B2B6C"/>
</linearGradient>
<linearGradient id="paint21_linear_1451_1640" x1="278.073" y1="276.259" x2="289.605" y2="290.062" gradientUnits="userSpaceOnUse">
<stop stop-color="#7F6F98"/>
<stop offset="0.65" stop-color="#372864"/>
</linearGradient>
<linearGradient id="paint22_linear_1451_1640" x1="291.449" y1="240.984" x2="302.486" y2="217.823" gradientUnits="userSpaceOnUse">
<stop offset="0.29" stop-color="#F8E8D8"/>
<stop offset="1" stop-color="#E2BB93"/>
</linearGradient>
<linearGradient id="paint23_linear_1451_1640" x1="336.783" y1="165.888" x2="326.429" y2="167.431" gradientUnits="userSpaceOnUse">
<stop offset="0.43" stop-color="#386BB2"/>
<stop offset="0.8" stop-color="#27305B"/>
</linearGradient>
<linearGradient id="paint24_linear_1451_1640" x1="318.218" y1="157.867" x2="319.512" y2="177.078" gradientUnits="userSpaceOnUse">
<stop offset="0.27" stop-color="#386BB2"/>
<stop offset="0.84" stop-color="#374580"/>
</linearGradient>
<linearGradient id="paint25_linear_1451_1640" x1="340.228" y1="162.356" x2="322.29" y2="168.623" gradientUnits="userSpaceOnUse">
<stop offset="0.27" stop-color="#386BB2"/>
<stop offset="0.59" stop-color="#374580"/>
</linearGradient>
<linearGradient id="paint26_linear_1451_1640" x1="267.187" y1="176.31" x2="342.362" y2="211.992" gradientUnits="userSpaceOnUse">
<stop offset="0.29" stop-color="#89CEDA"/>
<stop offset="0.92" stop-color="#0096A1"/>
</linearGradient>
<linearGradient id="paint27_linear_1451_1640" x1="278.268" y1="155.842" x2="319.569" y2="169.492" gradientUnits="userSpaceOnUse">
<stop offset="0.28" stop-color="#89CEDA"/>
<stop offset="1" stop-color="#0096A1"/>
</linearGradient>
<linearGradient id="paint28_linear_1451_1640" x1="292.191" y1="164.58" x2="296.07" y2="157.168" gradientUnits="userSpaceOnUse">
<stop offset="0.28" stop-color="#89CEDA"/>
<stop offset="1" stop-color="#0086B2"/>
</linearGradient>
<linearGradient id="paint29_linear_1451_1640" x1="297.76" y1="135.983" x2="285.053" y2="162.221" gradientUnits="userSpaceOnUse">
<stop offset="0.28" stop-color="#89CEDA"/>
<stop offset="1" stop-color="#0096A1"/>
</linearGradient>
<linearGradient id="paint30_linear_1451_1640" x1="306.82" y1="199.074" x2="349.354" y2="219.262" gradientUnits="userSpaceOnUse">
<stop offset="0.28" stop-color="#89CEDA"/>
<stop offset="1" stop-color="#0086B2"/>
</linearGradient>
<linearGradient id="paint31_linear_1451_1640" x1="301.864" y1="196.465" x2="309.673" y2="181.543" gradientUnits="userSpaceOnUse">
<stop offset="0.28" stop-color="#89CEDA"/>
<stop offset="1" stop-color="#0086B2"/>
</linearGradient>
<linearGradient id="paint32_linear_1451_1640" x1="301.618" y1="167.28" x2="309.248" y2="152.703" gradientUnits="userSpaceOnUse">
<stop offset="0.28" stop-color="#89CEDA"/>
<stop offset="1" stop-color="#0086B2"/>
</linearGradient>
<linearGradient id="paint33_linear_1451_1640" x1="344.877" y1="164.829" x2="284.943" y2="117.425" gradientUnits="userSpaceOnUse">
<stop offset="0.11" stop-color="#6A4225"/>
<stop offset="0.84" stop-color="#9E631F"/>
</linearGradient>
<linearGradient id="paint34_linear_1451_1640" x1="301.985" y1="192.256" x2="308.865" y2="179.109" gradientUnits="userSpaceOnUse">
<stop offset="0.28" stop-color="#89CEDA"/>
<stop offset="1" stop-color="#0086B2"/>
</linearGradient>
<linearGradient id="paint35_linear_1451_1640" x1="303.105" y1="186.432" x2="314.567" y2="175.156" gradientUnits="userSpaceOnUse">
<stop offset="0.2" stop-color="#F2F9FF"/>
<stop offset="0.73" stop-color="#D5EAF7"/>
</linearGradient>
<linearGradient id="paint36_linear_1451_1640" x1="306.32" y1="224.39" x2="306.982" y2="223.001" gradientUnits="userSpaceOnUse">
<stop offset="0.29" stop-color="#F8E8D8"/>
<stop offset="1" stop-color="#E2BB93"/>
</linearGradient>
<linearGradient id="paint37_linear_1451_1640" x1="323.254" y1="222.545" x2="324.95" y2="218.985" gradientUnits="userSpaceOnUse">
<stop offset="0.29" stop-color="#F8E8D8"/>
<stop offset="1" stop-color="#E2BB93"/>
</linearGradient>
<linearGradient id="paint38_linear_1451_1640" x1="294.98" y1="111.374" x2="313.639" y2="133.519" gradientUnits="userSpaceOnUse">
<stop offset="0.52" stop-color="#BD7C29"/>
<stop offset="1" stop-color="#5F4219"/>
</linearGradient>
<linearGradient id="paint39_linear_1451_1640" x1="303.471" y1="130.112" x2="316.14" y2="145.148" gradientUnits="userSpaceOnUse">
<stop offset="0.52" stop-color="#BD7C29"/>
<stop offset="1" stop-color="#5F4219"/>
</linearGradient>
<linearGradient id="paint40_linear_1451_1640" x1="303.593" y1="140.947" x2="283.419" y2="112.322" gradientUnits="userSpaceOnUse">
<stop offset="0.4" stop-color="#F8E8D8"/>
<stop offset="1" stop-color="#EFCAA6"/>
</linearGradient>
<linearGradient id="paint41_linear_1451_1640" x1="289.52" y1="129.156" x2="292.879" y2="123.164" gradientUnits="userSpaceOnUse">
<stop offset="0.29" stop-color="#F8E8D8"/>
<stop offset="1" stop-color="#E2BB93"/>
</linearGradient>
<linearGradient id="paint42_linear_1451_1640" x1="298.283" y1="135.627" x2="299.135" y2="133.836" gradientUnits="userSpaceOnUse">
<stop offset="0.29" stop-color="#F8E8D8"/>
<stop offset="1" stop-color="#E2BB93"/>
</linearGradient>
<linearGradient id="paint43_linear_1451_1640" x1="307.285" y1="137.16" x2="333.138" y2="167.843" gradientUnits="userSpaceOnUse">
<stop offset="0.52" stop-color="#BD7C29"/>
<stop offset="1" stop-color="#5F4219"/>
</linearGradient>
<linearGradient id="paint44_linear_1451_1640" x1="208.256" y1="124.537" x2="202.756" y2="114.391" gradientUnits="userSpaceOnUse">
<stop offset="0.21" stop-color="#3B3D3D"/>
<stop offset="0.75" stop-color="#686B71"/>
</linearGradient>
<linearGradient id="paint45_linear_1451_1640" x1="205.711" y1="119.091" x2="202.835" y2="113.79" gradientUnits="userSpaceOnUse">
<stop offset="0.21" stop-color="#3B3D3D"/>
<stop offset="0.75" stop-color="#686B71"/>
</linearGradient>
<linearGradient id="paint46_linear_1451_1640" x1="181.089" y1="110.695" x2="200.505" y2="143.815" gradientUnits="userSpaceOnUse">
<stop offset="0.31" stop-color="#C6C6C5"/>
<stop offset="0.63" stop-color="#9C9B9B"/>
</linearGradient>
<linearGradient id="paint47_linear_1451_1640" x1="191.655" y1="128.844" x2="203.075" y2="142.642" gradientUnits="userSpaceOnUse">
<stop offset="0.31" stop-color="#C6C6C5"/>
<stop offset="0.63" stop-color="#9C9B9B"/>
</linearGradient>
<linearGradient id="paint48_linear_1451_1640" x1="71.3068" y1="216.213" x2="49.3234" y2="184.094" gradientUnits="userSpaceOnUse">
<stop offset="0.21" stop-color="#3B3D3D"/>
<stop offset="0.75" stop-color="#686B71"/>
</linearGradient>
<linearGradient id="paint49_linear_1451_1640" x1="55.0177" y1="213.525" x2="37.6625" y2="175.602" gradientUnits="userSpaceOnUse">
<stop offset="0.42" stop-color="#3B3D3D"/>
<stop offset="1" stop-color="#686B71"/>
</linearGradient>
<linearGradient id="paint50_linear_1451_1640" x1="77.4531" y1="275.491" x2="96.6049" y2="275.491" gradientUnits="userSpaceOnUse">
<stop stop-color="#3B3D3D"/>
<stop offset="0.75" stop-color="#686B71"/>
</linearGradient>
<linearGradient id="paint51_linear_1451_1640" x1="98.5063" y1="268.253" x2="81.2871" y2="259.829" gradientUnits="userSpaceOnUse">
<stop offset="0.4" stop-color="#F8E8D8"/>
<stop offset="1" stop-color="#EFCAA6"/>
</linearGradient>
<linearGradient id="paint52_linear_1451_1640" x1="104.678" y1="287.194" x2="69.7258" y2="281.686" gradientUnits="userSpaceOnUse">
<stop offset="0.2" stop-color="#F2F9FF"/>
<stop offset="0.73" stop-color="#D5EAF7"/>
</linearGradient>
<linearGradient id="paint53_linear_1451_1640" x1="90.4562" y1="288.689" x2="88.5647" y2="268.225" gradientUnits="userSpaceOnUse">
<stop offset="0.35" stop-color="#F8E8D8"/>
<stop offset="0.83" stop-color="#E2BB93"/>
</linearGradient>
<linearGradient id="paint54_linear_1451_1640" x1="120.258" y1="273.582" x2="161.554" y2="276.438" gradientUnits="userSpaceOnUse">
<stop offset="0.21" stop-color="#3B3D3D"/>
<stop offset="0.75" stop-color="#686B71"/>
</linearGradient>
<linearGradient id="paint55_linear_1451_1640" x1="151.399" y1="264.998" x2="126.294" y2="264.047" gradientUnits="userSpaceOnUse">
<stop offset="0.4" stop-color="#F8E8D8"/>
<stop offset="0.87" stop-color="#EFCAA6"/>
</linearGradient>
<linearGradient id="paint56_linear_1451_1640" x1="172.266" y1="285.064" x2="124.881" y2="278.404" gradientUnits="userSpaceOnUse">
<stop offset="0.2" stop-color="#F2F9FF"/>
<stop offset="0.73" stop-color="#D5EAF7"/>
</linearGradient>
<linearGradient id="paint57_linear_1451_1640" x1="139.329" y1="286.37" x2="137.76" y2="269.384" gradientUnits="userSpaceOnUse">
<stop offset="0.35" stop-color="#F8E8D8"/>
<stop offset="0.83" stop-color="#E2BB93"/>
</linearGradient>
<linearGradient id="paint58_linear_1451_1640" x1="151.123" y1="192.875" x2="126.282" y2="229.994" gradientUnits="userSpaceOnUse">
<stop offset="0.42" stop-color="#C8A974"/>
<stop offset="1" stop-color="#A28A5C"/>
</linearGradient>
<linearGradient id="paint59_linear_1451_1640" x1="148.899" y1="227.44" x2="124.349" y2="212.404" gradientUnits="userSpaceOnUse">
<stop offset="0.42" stop-color="#C8A974"/>
<stop offset="0.76" stop-color="#A28A5C"/>
</linearGradient>
<linearGradient id="paint60_linear_1451_1640" x1="144.108" y1="229.36" x2="53.8831" y2="223.935" gradientUnits="userSpaceOnUse">
<stop offset="0.42" stop-color="#C8A974"/>
<stop offset="1" stop-color="#A28A5C"/>
</linearGradient>
<linearGradient id="paint61_linear_1451_1640" x1="165.616" y1="228.168" x2="123.038" y2="202.09" gradientUnits="userSpaceOnUse">
<stop offset="0.42" stop-color="#C8A974"/>
<stop offset="0.76" stop-color="#A28A5C"/>
</linearGradient>
<linearGradient id="paint62_linear_1451_1640" x1="116.043" y1="161.213" x2="124.228" y2="131.335" gradientUnits="userSpaceOnUse">
<stop offset="0.36" stop-color="#C3C9E7"/>
<stop offset="0.77" stop-color="#DBE0F2"/>
</linearGradient>
<linearGradient id="paint63_linear_1451_1640" x1="114.147" y1="166.577" x2="122.013" y2="137.86" gradientUnits="userSpaceOnUse">
<stop offset="0.36" stop-color="#C3C9E7"/>
<stop offset="0.77" stop-color="#DBE0F2"/>
</linearGradient>
<linearGradient id="paint64_linear_1451_1640" x1="97.9332" y1="211.095" x2="116.967" y2="128.479" gradientUnits="userSpaceOnUse">
<stop offset="0.36" stop-color="#C3C9E7"/>
<stop offset="0.77" stop-color="#DBE0F2"/>
</linearGradient>
<linearGradient id="paint65_linear_1451_1640" x1="97.1312" y1="146.642" x2="101.457" y2="130.853" gradientUnits="userSpaceOnUse">
<stop offset="0.36" stop-color="#C3C9E7"/>
<stop offset="0.77" stop-color="#DBE0F2"/>
</linearGradient>
<linearGradient id="paint66_linear_1451_1640" x1="108.882" y1="144.335" x2="77.6756" y2="125.307" gradientUnits="userSpaceOnUse">
<stop offset="0.2" stop-color="#F2F9FF"/>
<stop offset="0.73" stop-color="#D5EAF7"/>
</linearGradient>
<linearGradient id="paint67_linear_1451_1640" x1="105.65" y1="128.404" x2="82.6544" y2="130.495" gradientUnits="userSpaceOnUse">
<stop offset="0.35" stop-color="#F8E8D8"/>
<stop offset="0.83" stop-color="#E2BB93"/>
</linearGradient>
<linearGradient id="paint68_linear_1451_1640" x1="98.1742" y1="144.886" x2="96.3648" y2="131.565" gradientUnits="userSpaceOnUse">
<stop offset="0.35" stop-color="#F8E8D8"/>
<stop offset="0.83" stop-color="#E2BB93"/>
</linearGradient>
<linearGradient id="paint69_linear_1451_1640" x1="81.7437" y1="133.965" x2="96.3975" y2="95.1457" gradientUnits="userSpaceOnUse">
<stop offset="0.18" stop-color="#3D2F26"/>
<stop offset="0.68" stop-color="#634E42"/>
</linearGradient>
<linearGradient id="paint70_linear_1451_1640" x1="91.4095" y1="131.293" x2="104.356" y2="100.829" gradientUnits="userSpaceOnUse">
<stop offset="0.4" stop-color="#F8E8D8"/>
<stop offset="1" stop-color="#EFCAA6"/>
</linearGradient>
<linearGradient id="paint71_linear_1451_1640" x1="99.8433" y1="142.946" x2="99.0334" y2="136.99" gradientUnits="userSpaceOnUse">
<stop offset="0.35" stop-color="#F8E8D8"/>
<stop offset="0.83" stop-color="#E2BB93"/>
</linearGradient>
<linearGradient id="paint72_linear_1451_1640" x1="100.871" y1="126.274" x2="93.6352" y2="116.754" gradientUnits="userSpaceOnUse">
<stop offset="0.35" stop-color="#F8E8D8"/>
<stop offset="0.83" stop-color="#E2BB93"/>
</linearGradient>
<linearGradient id="paint73_linear_1451_1640" x1="105.742" y1="184.868" x2="113.45" y2="203.853" gradientUnits="userSpaceOnUse">
<stop offset="0.36" stop-color="#C3C9E7"/>
<stop offset="0.77" stop-color="#DBE0F2"/>
</linearGradient>
<linearGradient id="paint74_linear_1451_1640" x1="106.605" y1="146.688" x2="125.444" y2="174.234" gradientUnits="userSpaceOnUse">
<stop offset="0.31" stop-color="#C6C6C5"/>
<stop offset="0.62" stop-color="#9C9B9B"/>
</linearGradient>
<linearGradient id="paint75_linear_1451_1640" x1="104.333" y1="162.735" x2="108.01" y2="169.632" gradientUnits="userSpaceOnUse">
<stop offset="0.36" stop-color="#C3C9E7"/>
<stop offset="0.77" stop-color="#DBE0F2"/>
</linearGradient>
<linearGradient id="paint76_linear_1451_1640" x1="80.7817" y1="155.245" x2="97.385" y2="186.39" gradientUnits="userSpaceOnUse">
<stop offset="0.32" stop-color="#C6C6C5"/>
<stop offset="0.56" stop-color="#9C9B9B"/>
</linearGradient>
<linearGradient id="paint77_linear_1451_1640" x1="79.7835" y1="152.808" x2="95.4354" y2="182.168" gradientUnits="userSpaceOnUse">
<stop offset="0.32" stop-color="#C6C6C5"/>
<stop offset="0.56" stop-color="#9C9B9B"/>
</linearGradient>
<linearGradient id="paint78_linear_1451_1640" x1="95.8468" y1="202.486" x2="94.1379" y2="189.9" gradientUnits="userSpaceOnUse">
<stop offset="0.35" stop-color="#F8E8D8"/>
<stop offset="0.83" stop-color="#E2BB93"/>
</linearGradient>
<linearGradient id="paint79_linear_1451_1640" x1="59.3222" y1="204.775" x2="72.2642" y2="220.416" gradientUnits="userSpaceOnUse">
<stop offset="0.31" stop-color="#C6C6C5"/>
<stop offset="0.63" stop-color="#9C9B9B"/>
</linearGradient>
<linearGradient id="paint80_linear_1451_1640" x1="141.534" y1="200.428" x2="104.809" y2="134.452" gradientUnits="userSpaceOnUse">
<stop offset="0.42" stop-color="#3B3D3D"/>
<stop offset="0.69" stop-color="#686B71"/>
</linearGradient>
<linearGradient id="paint81_linear_1451_1640" x1="129.049" y1="180.561" x2="109.576" y2="138.011" gradientUnits="userSpaceOnUse">
<stop offset="0.42" stop-color="#3B3D3D"/>
<stop offset="1" stop-color="#686B71"/>
</linearGradient>
<linearGradient id="paint82_linear_1451_1640" x1="101.987" y1="188.852" x2="82.2953" y2="145.825" gradientUnits="userSpaceOnUse">
<stop offset="0.42" stop-color="#3B3D3D"/>
<stop offset="1" stop-color="#686B71"/>
</linearGradient>
<linearGradient id="paint83_linear_1451_1640" x1="103.992" y1="175.623" x2="97.5291" y2="200.711" gradientUnits="userSpaceOnUse">
<stop offset="0.4" stop-color="#F8E8D8"/>
<stop offset="1" stop-color="#EFCAA6"/>
</linearGradient>
<linearGradient id="paint84_linear_1451_1640" x1="160.588" y1="157.467" x2="154.786" y2="144.79" gradientUnits="userSpaceOnUse">
<stop offset="0.42" stop-color="#3B3D3D"/>
<stop offset="1" stop-color="#686B71"/>
</linearGradient>
<linearGradient id="paint85_linear_1451_1640" x1="165.024" y1="144.849" x2="162.358" y2="166.546" gradientUnits="userSpaceOnUse">
<stop offset="0.4" stop-color="#F8E8D8"/>
<stop offset="1" stop-color="#EFCAA6"/>
</linearGradient>
<linearGradient id="paint86_linear_1451_1640" x1="96.1551" y1="203.211" x2="94.3556" y2="189.956" gradientUnits="userSpaceOnUse">
<stop offset="0.35" stop-color="#F8E8D8"/>
<stop offset="0.83" stop-color="#E2BB93"/>
</linearGradient>
<linearGradient id="paint87_linear_1451_1640" x1="92.8335" y1="166.257" x2="98.3976" y2="176.695" gradientUnits="userSpaceOnUse">
<stop offset="0.36" stop-color="#C3C9E7"/>
<stop offset="0.77" stop-color="#DBE0F2"/>
</linearGradient>
<linearGradient id="paint88_linear_1451_1640" x1="93.1481" y1="177.21" x2="74.4834" y2="145.408" gradientUnits="userSpaceOnUse">
<stop offset="0.36" stop-color="#C3C9E7"/>
<stop offset="0.65" stop-color="#DBE0F2"/>
</linearGradient>
<linearGradient id="paint89_linear_1451_1640" x1="78.6313" y1="169.689" x2="86.1252" y2="161.838" gradientUnits="userSpaceOnUse">
<stop offset="0.36" stop-color="#C3C9E7"/>
<stop offset="0.77" stop-color="#DBE0F2"/>
</linearGradient>
<linearGradient id="paint90_linear_1451_1640" x1="95.0003" y1="170.876" x2="65.4493" y2="186.296" gradientUnits="userSpaceOnUse">
<stop offset="0.2" stop-color="#C3C9E7"/>
<stop offset="0.63" stop-color="#DBE0F2"/>
</linearGradient>
<linearGradient id="paint91_linear_1451_1640" x1="98.18" y1="130.765" x2="85.17" y2="102.764" gradientUnits="userSpaceOnUse">
<stop offset="0.18" stop-color="#3D2F26"/>
<stop offset="0.68" stop-color="#765D4F"/>
</linearGradient>
<linearGradient id="paint92_linear_1451_1640" x1="300.804" y1="91.5485" x2="277.047" y2="91.4508" gradientUnits="userSpaceOnUse">
<stop offset="0.33" stop-color="#575756"/>
<stop offset="0.77" stop-color="#6F6F6E"/>
</linearGradient>
<linearGradient id="paint93_linear_1451_1640" x1="300.802" y1="91.506" x2="277.046" y2="91.4083" gradientUnits="userSpaceOnUse">
<stop offset="0.33" stop-color="#575756"/>
<stop offset="0.77" stop-color="#6F6F6E"/>
</linearGradient>
<linearGradient id="paint94_linear_1451_1640" x1="295.127" y1="62.4714" x2="232.835" y2="18.5625" gradientUnits="userSpaceOnUse">
<stop offset="0.15" stop-color="#F8B133"/>
<stop offset="0.64" stop-color="#FFE373"/>
</linearGradient>
<linearGradient id="paint95_linear_1451_1640" x1="324.377" y1="82.7282" x2="268.221" y2="43.1462" gradientUnits="userSpaceOnUse">
<stop offset="0.15" stop-color="#F8B133"/>
<stop offset="0.73" stop-color="#FFE373"/>
</linearGradient>
<linearGradient id="paint96_linear_1451_1640" x1="276.301" y1="88.2015" x2="295.069" y2="88.2015" gradientUnits="userSpaceOnUse">
<stop offset="0.19" stop-color="#F5F5F5"/>
<stop offset="0.51" stop-color="#D9D9D9"/>
</linearGradient>
<linearGradient id="paint97_linear_1451_1640" x1="288.715" y1="83.1612" x2="288.788" y2="95.7761" gradientUnits="userSpaceOnUse">
<stop stop-color="#F5F5F5"/>
<stop offset="0.51" stop-color="#D9D9D9"/>
</linearGradient>
<linearGradient id="paint98_linear_1451_1640" x1="276.154" y1="92.9009" x2="294.922" y2="92.9009" gradientUnits="userSpaceOnUse">
<stop offset="0.19" stop-color="#F5F5F5"/>
<stop offset="0.51" stop-color="#D9D9D9"/>
</linearGradient>
<linearGradient id="paint99_linear_1451_1640" x1="288.715" y1="87.8606" x2="288.788" y2="100.476" gradientUnits="userSpaceOnUse">
<stop stop-color="#F5F5F5"/>
<stop offset="0.51" stop-color="#D9D9D9"/>
</linearGradient>
<clipPath id="clip0_1451_1640">
<rect width="424.746" height="339.797" fill="white"/>
</clipPath>
</defs>
</svg>
